<svg xmlns="http://www.w3.org/2000/svg" width="24" height="24" fill="none" viewBox="0 0 24 24"><g><path d="M3.22302 10C3.07706 10.6432 3 11.3126 3 12C3 16.9706 7.02944 21 12 21C16.9706 21 21 16.9706 21 12C21 7.02944 16.9706 3 12 3C9.69494 3 7.59227 3.86656 6 5.29168" stroke="#001A72" stroke-width="1.5" stroke-linecap="round"></path><path d="M12 12C13.6569 12 15 10.6569 15 9C15 7.34315 13.6569 6 12 6C10.3431 6 9 7.34315 9 9C9 10.6569 10.3431 12 12 12Z" stroke="#001A72" stroke-width="1.5"></path><path d="M15 15C16.8283 15 18 17.0886 18 18.7083" stroke="#001A72" stroke-width="1.5" stroke-linecap="round" stroke-linejoin="round"></path><path d="M6 18.7083C6 17.0886 7.17172 15 9 15L11 15" stroke="#001A72" stroke-width="1.5" stroke-linecap="round" stroke-linejoin="round"></path></g></svg>