<svg xmlns="http://www.w3.org/2000/svg" width="24" height="24" fill="none" viewBox="0 0 24 24"><g><path d="M14 19H17" stroke="#001A72" stroke-width="1.5" stroke-linecap="round" stroke-linejoin="round"></path><path d="M17 21H18C19.1046 21 20 20.1046 20 19C20 17.8954 19.1046 17 18 17H17" stroke="#001A72" stroke-width="1.5" stroke-linecap="round" stroke-linejoin="round"></path><path d="M14 17H13C11.8954 17 11 17.8954 11 19C11 20.1046 11.8954 21 13 21H14" stroke="#001A72" stroke-width="1.5" stroke-linecap="round" stroke-linejoin="round"></path><path d="M15 2.5V6.5" stroke="#001A72" stroke-width="1.5" stroke-linecap="round" stroke-linejoin="round"></path><path d="M9 2.5V6.5" stroke="#001A72" stroke-width="1.5" stroke-linecap="round" stroke-linejoin="round"></path><path d="M3.51733 11.5H15" stroke="#001A72" stroke-width="1.5" stroke-linecap="round" stroke-linejoin="round"></path><path d="M8 20.6041C4.64094 19.7517 3.5 17.4094 3.5 12.5C3.5 12.154 3.50567 11.8208 3.51737 11.5C3.72564 5.79277 5.84596 4 12 4C17.3679 4 19.6668 5.36399 20.3048 9.5" stroke="#001A72" stroke-width="1.5" stroke-linecap="round" stroke-linejoin="round"></path></g></svg>