<svg xmlns="http://www.w3.org/2000/svg" width="24" height="24" fill="none" viewBox="0 0 24 24"><g><path d="M16 15C17.1046 15 18 14.1045 18 13C18 11.8954 17.1046 11 16 11C14.8954 11 14 11.8954 14 13C14 14.1045 14.8954 15 16 15Z" stroke="#001A72" stroke-width="1.5" stroke-linecap="round" stroke-linejoin="round"></path><path d="M18.75 21H13.25C12.5596 21 12 20.4404 12 19.75C12 17.7096 15 17.75 16 17.75C17 17.75 20 17.7096 20 19.75C20 20.4404 19.4404 21 18.75 21Z" stroke="#001A72" stroke-width="1.5" stroke-linecap="round" stroke-linejoin="round"></path><path d="M15 2.5V6.5" stroke="#001A72" stroke-width="1.5" stroke-linecap="round" stroke-linejoin="round"></path><path d="M9 2.5V6.5" stroke="#001A72" stroke-width="1.5" stroke-linecap="round" stroke-linejoin="round"></path><path d="M3.51733 11.5H9" stroke="#001A72" stroke-width="1.5" stroke-linecap="round" stroke-linejoin="round"></path><path d="M8 20.6041C4.64094 19.7517 3.5 17.4094 3.5 12.5C3.5 12.154 3.50567 11.8208 3.51737 11.5C3.72564 5.79277 5.84596 4 12 4C17.3679 4 19.6668 5.36399 20.3048 9.5" stroke="#001A72" stroke-width="1.5" stroke-linecap="round" stroke-linejoin="round"></path></g></svg>