<svg xmlns="http://www.w3.org/2000/svg" width="24" height="24" fill="none" viewBox="0 0 24 24"><g><path d="M6.50008 6.99997C7.96143 5.53862 9.59363 4.41896 10.6976 3.74084C11.5022 3.24662 12.498 3.24662 13.3026 3.74085C14.4065 4.41896 16.0387 5.53862 17.5001 6.99997C20.6685 10.1683 20.5001 12 20.5001 15C20.5001 16.4098 20.3897 17.5988 20.2726 18.4631C20.1494 19.3726 19.3563 20 18.4385 20H5.56164C4.64391 20 3.85074 19.3725 3.72757 18.4631C3.61051 17.5988 3.50009 16.4098 3.50009 15C3.50009 12 3.33169 10.1684 6.50008 6.99997Z" stroke="#001A72" stroke-width="1.5" stroke-linecap="round" stroke-linejoin="round"></path><path d="M12 10V16" stroke="#001A72" stroke-width="1.5" stroke-linecap="round" stroke-linejoin="round"></path><path d="M9 13H15" stroke="#001A72" stroke-width="1.5" stroke-linecap="round" stroke-linejoin="round"></path></g></svg>