<svg xmlns="http://www.w3.org/2000/svg" width="24" height="24" fill="none" viewBox="0 0 24 24"><g><path d="M19 14C21.2091 14 23 16 23 17.5C23 18.3284 22.3284 19 21.5 19H21" stroke="#001A72" stroke-width="1.5" stroke-linecap="round" stroke-linejoin="round"></path><path d="M17 11C18.6569 11 20 9.65685 20 8C20 6.34315 18.6569 5 17 5" stroke="#001A72" stroke-width="1.5" stroke-linecap="round" stroke-linejoin="round"></path><path d="M7.5 19H16.5C17.3284 19 18 18.3284 18 17.5C18 15 15 14 12 14C9 14 6 15 6 17.5C6 18.3284 6.67157 19 7.5 19Z" stroke="#001A72" stroke-width="1.5" stroke-linecap="round" stroke-linejoin="round"></path><path d="M12 11C13.6569 11 15 9.65685 15 8C15 6.34315 13.6569 5 12 5C10.3431 5 9 6.34315 9 8C9 9.65685 10.3431 11 12 11Z" stroke="#001A72" stroke-width="1.5" stroke-linecap="round" stroke-linejoin="round"></path><path d="M5 14C2.79086 14 1 16 1 17.5C1 18.3284 1.67157 19 2.5 19H3" stroke="#001A72" stroke-width="1.5" stroke-linecap="round" stroke-linejoin="round"></path><path d="M7 11C5.34315 11 4 9.65685 4 8C4 6.34315 5.34315 5 7 5" stroke="#001A72" stroke-width="1.5" stroke-linecap="round" stroke-linejoin="round"></path></g></svg>