<svg xmlns="http://www.w3.org/2000/svg" width="24" height="24" fill="none" viewBox="0 0 24 24"><g><path d="M12 5C7.77778 5 4.08333 5.36111 3.55556 5.72222C3.16625 5.98859 2.77694 7.9339 2.59946 9.83339C2.53633 10.509 2.5 11.2421 2.5 12.0001C2.5 14.8889 3.02778 17.9167 3.55556 18.2778C4.08333 18.6389 7.77778 19 12 19C16.2222 19 19.9167 18.6389 20.4444 18.2778C20.7556 18.0649 21.0667 16.599 21.2697 15.2501C21.4111 14.3108 21.5 13.1859 21.5 12.0001C21.5 11.2421 21.4637 10.509 21.4005 9.83339C21.3649 9.45201 21.3207 9.08894 21.2697 8.75005C21.0667 7.40107 20.7556 5.93511 20.4444 5.72222C19.9167 5.36111 16.2222 5 12 5Z" stroke="#001A72" stroke-width="1.5" stroke-linecap="round" stroke-linejoin="round"></path><path d="M21.31 9H14.0176C12.351 9 11 10.3431 11 12C11 13.6569 12.351 15 14.0176 15H21.31" stroke="#001A72" stroke-width="1.5" stroke-linecap="round" stroke-linejoin="round"></path><path d="M14 12V12.01" stroke="#001A72" stroke-width="1.5" stroke-linecap="round" stroke-linejoin="round"></path></g></svg>