<svg width="107" height="89" viewBox="0 0 107 89" fill="none" xmlns="http://www.w3.org/2000/svg">
<path d="M24.3824 67.2682C24.5948 67.3018 25.7578 67.3577 25.7578 67.1564C25.7578 67.039 25.5454 67.0446 25.5454 67.0446C25.5733 66.15 26.7084 65.9263 27.5191 66.396C27.7426 66.5246 27.9492 66.6805 28.1341 66.8601C26.9879 66.9216 25.4671 67.7043 25.5677 68.8394C25.6255 69.1353 25.7496 69.4144 25.9307 69.6555C26.1118 69.8966 26.3452 70.0936 26.6133 70.2316C26.9485 70.4824 27.3302 70.664 27.7363 70.7658C28.1423 70.8675 28.5646 70.8874 28.9784 70.8243C29.7155 70.6364 30.364 70.1974 30.8124 69.583C31.8258 69.6153 32.8174 69.2841 33.608 68.6493C33.6414 68.6228 33.669 68.5898 33.6892 68.5523C33.7094 68.5149 33.7217 68.4736 33.7255 68.4312C33.7255 68.2355 33.7255 68.2467 32.6072 67.0054C32.5755 66.9701 32.5359 66.9429 32.4915 66.9261C32.4472 66.9093 32.3994 66.9034 32.3523 66.9089C32.3052 66.9143 32.2601 66.931 32.2207 66.9576C32.1814 66.9841 32.1491 67.0197 32.1263 67.0613C32.107 67.0857 32.0902 67.1119 32.076 67.1396C31.9872 67.3064 31.8436 67.4375 31.6695 67.5108C31.4954 67.5841 31.3013 67.5952 31.1199 67.5422C30.5608 67.38 29.8395 65.8983 28.5255 65.0149C27.3793 64.2433 25.8417 64.0141 24.757 64.931C24.2901 65.3318 23.9582 65.8668 23.8065 66.4631C23.7461 66.6469 23.7581 66.8469 23.84 67.0222C23.9869 67.1645 24.1786 67.2515 24.3824 67.2682ZM26.4847 69.3426C26.3314 69.2331 26.225 69.0699 26.1867 68.8854C26.1483 68.701 26.1809 68.5089 26.2778 68.3473C26.5258 68.0046 26.8704 67.7438 27.2675 67.5981C26.9471 68.1413 26.6847 68.7166 26.4847 69.3146V69.3426ZM31.7517 68.4592C31.8859 68.0566 31.7517 68.1964 31.9754 68.0957C32.1448 68.0113 32.2981 67.8977 32.4283 67.7603L32.9371 68.3641C32.5157 68.6313 32.0499 68.8206 31.5616 68.9233C31.6175 68.7779 31.707 68.5542 31.7517 68.4312V68.4592ZM29.7277 67.0334C30.2588 67.6987 30.7006 68.2914 31.5113 68.2243C31.3956 68.4651 31.302 68.7159 31.2317 68.9736C30.8236 69.0015 30.7677 68.9065 30.6055 68.9736C30.2868 69.0966 29.7612 70.2428 28.4864 70.2372C28.5657 70.0599 28.6167 69.8712 28.6374 69.6781C28.9981 69.6052 29.3358 69.446 29.6214 69.214C29.7439 69.1079 29.8234 68.9608 29.8451 68.8002C29.8451 68.6045 29.778 68.3529 29.3642 68.023C29.5184 67.6965 29.6401 67.3557 29.7277 67.0054V67.0334ZM27.849 69.1469C27.3569 68.8841 28.1956 68.42 28.738 68.4368C28.8626 68.4377 28.9844 68.4739 29.0893 68.5412C29.1942 68.6085 29.2779 68.7041 29.3307 68.817C29.256 68.9373 29.1575 69.041 29.0413 69.1219C28.9251 69.2028 28.7936 69.259 28.6549 69.2873C28.5162 69.3156 28.3732 69.3152 28.2346 69.2863C28.096 69.2573 27.9648 69.2004 27.849 69.1189V69.1469ZM28.5088 65.725C28.8884 66.0478 29.2333 66.4095 29.5376 66.8041C29.3606 67.1268 29.2254 67.4706 29.135 67.8273C28.9 67.7599 28.6537 67.7415 28.4113 67.7732C28.1689 67.805 27.9357 67.8862 27.726 68.0119C26.7028 68.571 26.9432 69.7955 28.3634 69.6557C28.2799 69.8165 28.2179 69.9876 28.1789 70.1645C27.6119 70.0516 27.0817 69.7999 26.6357 69.4321C27.032 68.8162 27.3407 68.1482 27.5526 67.4471C27.77 67.3473 28.0052 67.2919 28.2442 67.2842C28.4833 67.2765 28.7215 67.3167 28.9449 67.4024L29.0623 66.9607L28.9393 66.9048C28.6765 66.7259 28.5591 66.5861 28.2572 66.3457C28.3692 66.1415 28.4538 65.9234 28.5088 65.6971V65.725ZM26.3393 64.8304C27.039 64.8432 27.7166 65.0782 28.2739 65.5014C28.1738 65.7292 28.0988 65.9673 28.0503 66.2115C27.7823 66.0011 27.4661 65.8608 27.1303 65.8032C26.7945 65.7456 26.4496 65.7726 26.1269 65.8816C26.2448 65.5424 26.3163 65.1888 26.3393 64.8304ZM25.0589 65.2665C25.3689 65.0253 25.7414 64.8779 26.1324 64.8416C25.959 65.2174 25.8512 65.6203 25.8137 66.0325C25.6472 66.1325 25.5108 66.2757 25.4192 66.4471C25.3277 66.6184 25.2843 66.8114 25.2938 67.0054C24.902 67.027 24.51 66.968 24.1419 66.8321C24.2251 66.211 24.5508 65.6482 25.0477 65.2665H25.0589ZM16.7055 64.3328C15.699 63.8967 13.4625 65.1882 13.0544 65.8816C12.9953 66.0345 12.9953 66.2039 13.0544 66.3568C13.4066 67.6932 16.6943 72.4122 17.3038 73.1447C17.41 73.2789 17.5554 73.0944 17.4603 72.9378C17.1696 72.457 17.2031 73.4243 18.6904 68.6101C18.8282 68.5562 18.9565 68.4807 19.0706 68.3865C19.1225 68.329 19.1512 68.2543 19.1512 68.1768C19.1512 68.0994 19.1225 68.0247 19.0706 67.9671C19.0198 67.9044 18.9616 67.8481 18.8973 67.7994L19.2495 66.4966L20.6474 67.2682C20.3647 67.9748 20.1585 68.7095 20.0323 69.46C19.4686 69.6633 18.9403 69.9538 18.4667 70.3211C18.1369 70.6845 18.6569 71.3555 18.9812 71.758C19.3054 72.1606 19.5794 72.4346 19.6409 72.4961C19.7024 72.5576 19.8981 72.4961 19.8814 72.3955C19.8458 72.3145 19.7988 72.2392 19.7416 72.1718C19.4386 71.7003 19.1785 71.2025 18.9644 70.6845C19.3989 70.4245 19.8577 70.2073 20.3342 70.0359C20.5076 69.9744 21.0443 69.8067 21.1897 69.8961C21.9071 70.274 22.6553 70.5902 23.4263 70.8411C23.4574 70.8559 23.4931 70.8577 23.5257 70.8462C23.5582 70.8347 23.5848 70.8107 23.5996 70.7796C23.6144 70.7484 23.6163 70.7127 23.6047 70.6802C23.5932 70.6477 23.5692 70.6211 23.5381 70.6062L22.5708 70.0191C22.7767 69.5522 22.9088 69.0561 22.9622 68.5486L25.3497 69.8402C25.495 69.9241 25.6069 69.6948 25.5006 69.6333C25.3944 69.5718 18.148 64.9646 16.7055 64.3328ZM15.8556 64.9255C16.0507 64.8669 16.2588 64.8669 16.4539 64.9255C16.5825 64.9814 16.8956 65.1491 17.3205 65.3839C17.1772 65.7797 17.0796 66.1905 17.0298 66.6084C16.6552 66.396 16.4315 66.2338 16.1352 66.2841C15.9736 66.3203 15.8226 66.393 15.6935 66.4966C15.7494 66.0605 15.7997 65.725 15.8556 64.9255ZM13.6191 66.1555C14.199 65.6027 14.9025 65.1963 15.6711 64.9702C15.3727 66.2891 15.1635 67.6266 15.0449 68.9736C14.481 68.0806 14.0054 67.135 13.6247 66.15L13.6191 66.1555ZM16.1575 70.8578C15.85 70.349 15.5145 69.7843 15.1958 69.2308C15.3859 68.4312 15.4474 68.0622 15.5649 67.3074C15.8708 67.838 16.2245 68.3395 16.6216 68.8058C16.3962 69.4716 16.2425 70.1595 16.1631 70.8578H16.1575ZM17.136 72.4681C16.9347 72.1494 16.6775 71.7189 16.342 71.1654C16.5543 70.4639 16.6948 69.7426 16.7614 69.0127C16.8844 69.309 17.9803 68.8841 18.2766 68.7723C18.0586 69.46 17.2982 71.8531 17.1416 72.4681H17.136ZM16.9683 68.8394C16.6218 68.2397 16.3154 67.6177 16.0513 66.9775L16.2246 66.8824C16.3029 66.9271 18.2151 68.0566 18.3549 68.1461C17.9192 68.4232 17.4564 68.6555 16.9739 68.8394H16.9683ZM18.6457 67.6093C18.2263 67.3297 17.656 66.9887 17.2199 66.737C17.3691 66.3412 17.4668 65.9277 17.5106 65.507L19.0986 66.4016C19.0706 66.614 18.8805 67.0502 18.6792 67.6093H18.6457ZM22.3471 69.8458L21.4861 69.3258C21.1034 69.1748 20.6777 69.1748 20.2951 69.3258C20.5118 68.6722 20.669 68.0004 20.7648 67.3185L22.7888 68.4368C22.5821 68.8928 22.4445 69.3771 22.3807 69.8738L22.3471 69.8458Z" fill="black"/>
<path d="M105.932 71.8363C105.026 63.4046 97.2206 50.4383 92.5574 43.3541C95.1611 43.5624 97.7744 43.6278 100.385 43.5498C101.129 43.5498 103.075 43.4156 103.449 43.3429C103.667 43.2982 103.701 43.0913 103.371 43.0802C103.041 43.069 100.693 42.9571 100.374 42.9516H94.6877C93.8155 42.9851 92.4512 43.0634 92.3729 43.0634C90.6955 40.5082 89.5269 38.909 89.5157 38.9034C89.5029 38.8904 89.4874 38.8803 89.4703 38.8737C89.4532 38.8672 89.4349 38.8643 89.4166 38.8654C89.3984 38.8665 89.3805 38.8715 89.3643 38.88C89.3481 38.8885 89.3339 38.9004 89.3227 38.9148C89.3115 38.9293 89.3034 38.946 89.2992 38.9638C89.2949 38.9816 89.2945 39.0001 89.2979 39.018C89.3014 39.036 89.3086 39.0531 89.3192 39.068C89.3298 39.083 89.3434 39.0955 89.3592 39.1047C89.6164 39.3116 100.916 55.8228 104.372 67.1955C105.742 71.7077 106.552 77.3717 102.135 78.9373C91.646 82.6835 9.49274 83.9024 1.7264 79.4964C0.647273 78.887 0.395663 77.6177 0.608134 75.9068C0.938021 73.5305 2.21843 70.3155 3.76164 66.7147C5.50054 68.3921 19.9261 81.6379 22.2633 81.1403C24.6005 80.6426 37.7457 74.5369 38.288 73.3683C38.6031 72.5566 38.7698 71.6949 38.7801 70.8243C38.8463 70.7332 38.8771 70.6212 38.8668 70.509C38.8565 70.3969 38.8058 70.2924 38.7242 70.2148C37.8575 69.3538 20.6642 55.7221 19.5571 55.7613C18.7855 55.7948 17.3877 56.5888 16.7223 56.9802C16.5066 56.6272 16.1854 56.351 15.8042 56.1904C15.4229 56.0299 15.0008 55.9932 14.5976 56.0856C14.2174 56.2391 13.877 56.4769 13.602 56.781C13.3269 57.0851 13.1244 57.4476 13.0097 57.8412C13.016 57.8715 13.0324 57.8986 13.0564 57.9181C13.0803 57.9376 13.1102 57.9482 13.1411 57.9482C13.1719 57.9482 13.2019 57.9376 13.2258 57.9181C13.2497 57.8986 13.2662 57.8715 13.2725 57.8412C13.6088 57.2725 14.1419 56.8468 14.7709 56.6447C15.0325 56.6045 15.3001 56.6394 15.5426 56.7453C15.7851 56.8512 15.9925 57.0238 16.1408 57.243L9.92327 59.8989C9.59314 59.5595 9.181 59.311 8.72673 59.1776C7.66438 58.898 6.94869 59.5969 6.52375 60.6201C6.51439 60.6496 6.51547 60.6813 6.52681 60.71C6.53815 60.7388 6.55905 60.7627 6.58598 60.7778C6.61292 60.7929 6.64424 60.7983 6.67466 60.793C6.70509 60.7877 6.73276 60.7721 6.753 60.7487C7.46868 59.7143 8.2962 59.3621 9.28586 60.1896C8.08932 60.7208 6.41752 61.4756 5.24334 62.0571C5.32721 61.9229 17.3933 40.072 17.3933 40.0161C17.9245 39.032 18.9924 37.2708 20.0939 37.0415C20.5917 36.933 21.0996 36.8768 21.6091 36.8738C20.8319 38.1598 14.5249 48.6156 14.5137 50.0917C14.5137 51.7691 14.8045 51.5063 15.6991 51.7691C16.5937 52.0319 66.6528 51.7243 66.7423 51.7243C67.6089 51.7243 70.9973 51.6125 71.3104 51.3833C72.2833 50.6676 72.0652 49.5996 71.6403 48.4758C71.5396 48.2074 71.0308 47.0947 70.3487 45.6074C73.2841 44.724 75.4927 45.8479 75.694 50.6396C75.8953 54.7828 74.2626 56.0464 71.1371 55.8675C68.6265 55.7221 66.8932 54.9841 66.3453 55.9626C65.7302 57.0529 67.43 59.5019 68.1681 60.5195C68.0618 60.5195 63.3819 60.4244 62.2021 60.3741C60.5397 60.3097 58.875 60.3303 57.2147 60.4356C56.0712 60.4608 54.9344 60.6165 53.8263 60.8997C53.407 61.1066 52.8646 62.1857 52.6354 62.6386C52.1825 63.5276 50.1193 69.1078 49.549 70.7181C49.2135 71.6462 48.0784 74.7214 48.8389 75.2638C48.8109 75.8621 48.906 76.6616 49.4315 76.9412C49.9571 77.2208 57.1811 77.422 57.7347 77.4332C58.7131 77.4612 68.6042 77.5898 74.9168 77.3102C81.2294 77.0307 83.9859 76.4268 83.8238 76.4436C83.9841 76.3964 84.1281 76.3055 84.2397 76.181C84.3513 76.0566 84.426 75.9036 84.4556 75.7391C84.5418 75.3258 84.5148 74.8969 84.3773 74.4978C85.0818 73.1279 79.7533 61.7552 78.2772 60.9556C78.19 60.9065 78.0921 60.8796 77.992 60.8773C77.6957 60.8773 71.0644 60.5978 68.4868 60.5139C67.9276 59.7255 66.1105 56.7565 66.8094 56.1247C67.8717 55.1966 76.7452 59.8485 76.2699 50.5893C76.0239 46.4014 74.0949 43.9468 70.1809 45.367C69.8399 44.629 66.9771 38.5121 66.2111 36.885C69.1786 37.0625 72.1557 36.9971 75.1125 36.6893C75.155 37.2111 75.3051 37.7185 75.5533 38.1794C75.8016 38.6404 76.1427 39.0449 76.555 39.3675C78.7916 41.0449 87.693 40.7933 89.3088 38.7413C89.7616 38.1221 90.0746 37.4119 90.2262 36.6599C90.3777 35.9079 90.3643 35.1319 90.1867 34.3857C90.3354 34.291 90.4507 34.1522 90.5166 33.9887C90.606 33.8153 90.5166 33.5973 90.1308 33.519C89.6331 33.4444 89.1297 33.4145 88.6267 33.4295C88.6267 32.9711 88.6547 32.1156 88.6267 31.1427C88.677 31.1091 89.0405 30.673 89.0796 30.6227C89.5252 30.102 89.877 29.508 90.1196 28.867C90.3041 28.347 90.3768 27.7488 89.8904 27.458C89.1411 27.0498 88.6155 27.7991 88.3639 28.6378C88.1291 27.3462 87.5867 25.4507 86.2895 25.6408C84.0866 25.9763 85.6074 31.316 86.3231 33.4295C85.6944 33.341 85.0563 33.341 84.4276 33.4295C85.1265 31.6739 85.4844 29.4038 83.6896 29.0627C83.4175 29.0026 83.1337 29.0235 82.8733 29.1228C82.613 29.2222 82.3875 29.3957 82.2246 29.6218C82.1887 29.4953 82.1213 29.3799 82.0286 29.2866C81.936 29.1932 81.8211 29.1249 81.6948 29.088C81.5686 29.0511 81.435 29.0469 81.3067 29.0757C81.1783 29.1046 81.0594 29.1655 80.961 29.2528C80.1391 29.8455 80.6088 31.2042 81.5649 31.6515C81.5146 32.2263 81.5146 32.8044 81.5649 33.3792C80.9696 33.3073 80.3672 33.3205 79.7757 33.4184C79.7425 32.0531 79.5929 30.6932 79.3283 29.3535C79.6681 29.1117 79.9539 28.802 80.1676 28.4439C80.3813 28.0859 80.5182 27.6873 80.5696 27.2735C80.6479 26.5298 80.3851 25.9092 79.7645 25.7471C78.9873 25.5458 78.5288 26.0881 78.3946 26.8653C77.7069 25.9148 76.3593 25.5737 75.7052 26.664C73.6084 24.4834 72.5964 25.7023 73.1276 26.664C73.5245 27.4021 74.5589 27.8158 75.3641 28.0451C75.3641 29.2976 75.9232 30.3543 76.6165 31.4334C77.0806 32.1603 77.6006 32.8592 78.0032 33.3736C77.1332 33.3457 76.2625 33.4018 75.4032 33.5414C74.8776 33.6811 74.7938 34.0614 75.2802 34.3353C75.1264 34.9907 75.0699 35.6652 75.1125 36.337C72.1089 36.1772 69.0975 36.2482 66.1049 36.5495C65.9148 36.1413 65.35 34.9504 65.2829 34.8106C65.2158 34.6708 65.7526 33.0493 66.5074 17.9751C69.9741 17.6844 85.5627 18.031 86.994 17.4775C87.0761 17.448 87.1488 17.3973 87.2048 17.3305C87.2608 17.2637 87.2981 17.1832 87.3128 17.0973C87.788 15.5373 88.1123 2.12932 87.3128 0.882457C87.1171 0.574935 86.4181 0.479882 86.0323 0.423969C81.0505 -0.302902 60.2619 0.0102106 59.194 0.574934C58.1261 1.13966 58.5789 6.6527 58.7802 7.7486C47.9834 7.40194 23.0517 8.07849 20.7033 8.95632C20.1442 9.15761 19.9373 9.92362 19.8255 10.4995C18.8973 15.2913 21.5029 30.7122 22.3751 35.476C22.3192 35.476 22.3751 35.476 21.693 36.5383C21.1156 36.4955 20.5352 36.5256 19.9653 36.6278C18.6905 36.8235 17.5163 38.5847 16.8677 39.6806C16.8397 39.7365 15.1903 42.4763 14.9443 42.9236C13.5409 42.7055 7.01579 42.7894 6.18827 42.8341C5.36076 42.8789 4.51088 42.9404 3.76164 42.9963C3.62745 42.9963 3.61626 43.2535 3.76164 43.2591C5.32721 43.3541 5.90311 43.3877 7.11643 43.4045C10.0854 43.4492 14.4634 43.5722 14.6032 43.5554C14.3125 44.0642 10.0071 51.7243 9.43124 52.8091C6.92633 57.5058 4.95818 61.8055 4.84076 62.1689C4.1908 62.4645 3.58034 62.8402 3.02358 63.2872C2.844 63.7798 2.73665 64.2958 2.70488 64.8192C2.67692 65.7194 3.00122 65.9375 3.49885 66.4407C2.16358 69.3017 1.06585 72.2676 0.216741 75.3085C-0.0604617 76.5388 -0.0718993 77.8141 0.183193 79.0491C0.41149 80.2838 0.838226 81.4734 1.44683 82.5717C1.72022 82.8493 2.07448 83.0333 2.45886 83.0972C3.92938 83.511 8.48631 84.0422 10.0127 84.2155C9.89766 84.8987 9.86575 85.5934 9.91768 86.2843C9.91919 86.9962 10.0228 87.7041 10.2252 88.3866C10.227 88.4035 10.2322 88.4199 10.2403 88.4348C10.2485 88.4497 10.2595 88.4628 10.2728 88.4735C10.286 88.4841 10.3012 88.492 10.3175 88.4968C10.3338 88.5016 10.3509 88.5031 10.3678 88.5013C10.3847 88.4994 10.401 88.4943 10.4159 88.4861C10.4308 88.478 10.444 88.4669 10.4546 88.4537C10.4653 88.4405 10.4732 88.4253 10.478 88.409C10.4827 88.3926 10.4842 88.3756 10.4824 88.3587C10.5719 87.6617 10.5962 86.9579 10.5551 86.2563C10.5514 85.5809 10.4746 84.9079 10.3259 84.249C11.0975 84.3161 11.8411 84.3721 12.4897 84.3944C12.3865 85.047 12.3584 85.7092 12.4058 86.3682C12.4077 87.08 12.5113 87.7879 12.7133 88.4705C12.7133 88.5046 12.7269 88.5373 12.751 88.5614C12.7751 88.5856 12.8078 88.5991 12.8419 88.5991C12.8761 88.5991 12.9088 88.5856 12.9329 88.5614C12.957 88.5373 12.9705 88.5046 12.9705 88.4705C13.063 87.7738 13.0892 87.0698 13.0488 86.3682C13.045 85.7152 12.97 85.0647 12.8252 84.428C14.072 84.4559 32.4227 86.1054 64.1144 85.4791C72.6076 85.3114 82.8173 84.92 91.2267 83.9974C91.1157 84.6717 91.0838 85.3566 91.1316 86.0383C91.1343 86.7486 91.2398 87.4549 91.4447 88.135C91.4408 88.1538 91.441 88.1731 91.4455 88.1918C91.45 88.2104 91.4586 88.2278 91.4706 88.2427C91.4827 88.2575 91.4979 88.2695 91.5152 88.2778C91.5325 88.286 91.5514 88.2903 91.5705 88.2903C91.5897 88.2903 91.6086 88.286 91.6259 88.2778C91.6432 88.2695 91.6584 88.2575 91.6705 88.2427C91.6825 88.2278 91.6911 88.2104 91.6956 88.1918C91.7001 88.1731 91.7003 88.1538 91.6963 88.135C91.794 87.4387 91.8202 86.7343 91.7746 86.0327C91.7685 85.342 91.6879 84.654 91.5342 83.9807C92.1548 83.9136 93.5918 83.7346 93.7148 83.7179C93.6047 84.3885 93.5747 85.0698 93.6253 85.7475C93.6257 86.4595 93.7293 87.1676 93.9329 87.8499C93.9366 87.884 93.9537 87.9152 93.9804 87.9367C94.0072 87.9582 94.0413 87.9682 94.0755 87.9645C94.1096 87.9608 94.1408 87.9437 94.1623 87.9169C94.1838 87.8902 94.1938 87.856 94.1901 87.8219C94.2821 87.127 94.3064 86.4248 94.2628 85.7252C94.2592 85.0362 94.1785 84.3498 94.0223 83.6787C96.544 83.3377 104.254 82.2977 105.306 80.145C106.547 77.6904 106.446 74.4978 105.932 71.8363ZM55.0508 62.8343C55.1123 62.6833 56.9854 62.2752 59.0318 62.8343C59.0506 62.8303 59.07 62.8306 59.0886 62.8351C59.1072 62.8395 59.1246 62.8481 59.1395 62.8602C59.1544 62.8722 59.1664 62.8875 59.1746 62.9048C59.1828 62.922 59.1871 62.9409 59.1871 62.9601C59.1871 62.9793 59.1828 62.9982 59.1746 63.0154C59.1664 63.0327 59.1544 63.048 59.1395 63.06C59.1246 63.0721 59.1072 63.0807 59.0886 63.0851C59.07 63.0896 59.0506 63.0899 59.0318 63.0859C58.0128 63.2669 56.9723 63.2933 55.9454 63.1642C55.4646 63.0859 54.8551 63.0803 55.034 62.8343H55.0508ZM83.7958 76.1305C78.6238 77.1145 50.0522 76.8909 49.6217 76.6896C49.1911 76.4883 49.152 75.8397 49.1408 75.4148C52.2384 76.4212 82.5042 75.644 84.1872 74.755C84.2767 75.247 84.299 76.0354 83.779 76.1305H83.7958ZM72.9431 62.8958C72.9431 62.7057 74.1731 62.5995 74.229 62.5939C74.9604 62.5376 75.6951 62.5376 76.4264 62.5939C76.8346 62.6386 77.3993 62.6945 77.3546 62.8678C77.3099 63.0412 76.4656 63.1139 76.3202 63.1362C75.7738 63.1866 75.2251 63.209 74.6764 63.2033C74.3073 63.1921 72.9039 63.125 72.9263 62.8958H72.9431ZM80.1279 64.7577C81.5267 67.4232 82.7012 70.2005 83.6392 73.0608C83.7585 73.4221 83.8244 73.7988 83.8349 74.1791C81.3133 74.9619 52.2496 75.767 49.3085 74.9227C49.1688 74.8836 49.1296 74.9227 49.0961 74.6879C48.8836 73.1671 51.3717 67.1228 51.9476 65.7138C62.5264 65.3616 80.0161 64.8192 80.1111 64.7577H80.1279ZM75.42 27.7935C74.8085 27.4576 74.2537 27.0274 73.7762 26.5187C73.5581 26.1888 73.6084 25.9595 74.2514 26.2726C74.654 26.4572 75.2187 26.787 75.5989 27.0163C75.5012 27.2651 75.4409 27.527 75.42 27.7935ZM88.8392 28.7943C89.2865 27.9892 89.7282 27.7599 89.6835 28.2352C89.4432 29.0857 89.1015 29.9041 88.6658 30.673C88.6323 30.1139 88.5932 29.7393 88.5484 29.3702C88.5708 29.292 88.6826 29.0571 88.8224 28.7943H88.8392ZM86.4629 33.6588C86.5747 33.9775 86.6474 34.1676 86.653 34.1788C86.6591 34.1946 86.6684 34.2091 86.6802 34.2213C86.692 34.2336 86.7061 34.2434 86.7217 34.2501C86.7373 34.2569 86.7541 34.2605 86.7711 34.2607C86.7881 34.2609 86.8049 34.2578 86.8207 34.2515C87.0667 34.1564 86.7033 33.9272 86.1218 30.5556C85.9485 29.5492 85.4341 26.446 86.4517 26.3006C87.2792 26.1776 87.7265 28.2296 87.8831 29.0403C88.1732 30.6031 88.36 32.1833 88.4422 33.7706C88.4418 33.8016 88.4526 33.8316 88.4726 33.8553C88.4926 33.8789 88.5204 33.8946 88.551 33.8993C88.5816 33.9041 88.6129 33.8977 88.6391 33.8812C88.6654 33.8647 88.6848 33.8394 88.6938 33.8097C88.6956 33.7781 88.6956 33.7464 88.6938 33.7147C89.1993 33.7296 89.7017 33.7989 90.1923 33.9216C90.1299 33.9945 90.0514 34.0519 89.963 34.0893C88.7888 34.6932 85.2384 34.5758 84.0139 34.5534C84.1816 34.2179 84.299 33.9607 84.4276 33.6532C85.0958 33.763 85.7773 33.7649 86.4461 33.6588H86.4629ZM82.1016 32.4343C82.2302 31.316 82.5154 29.5324 83.6448 29.7449C84.7743 29.9573 84.4891 31.5956 84.2431 32.6915C84.0914 33.3202 83.9048 33.9399 83.684 34.5478H82.0066C81.9931 33.8424 82.0192 33.1368 82.0849 32.4343H82.1016ZM81.3915 29.8064C81.4175 29.7816 81.4484 29.7625 81.4822 29.7504C81.5161 29.7383 81.552 29.7334 81.5878 29.736C81.6237 29.7387 81.6585 29.7488 81.6902 29.7657C81.7219 29.7826 81.7496 29.806 81.7717 29.8343C81.8608 29.9235 81.9413 30.0208 82.0122 30.1251C81.8533 30.4816 81.7424 30.8577 81.6823 31.2433C81.3915 30.8408 81.0169 30.1083 81.3915 29.8064ZM79.6303 26.4068C80.3571 26.6361 79.7868 28.5483 79.3004 29.1298C79.166 28.528 78.9653 27.943 78.7021 27.3853C78.8643 26.8933 79.1382 26.2503 79.6303 26.4012V26.4068ZM78.2548 33.7203C78.5288 34.0669 78.7077 34.2794 78.7077 34.2794C78.7299 34.3013 78.7593 34.3144 78.7905 34.3163C78.8216 34.3181 78.8524 34.3086 78.877 34.2894C78.9016 34.2703 78.9185 34.2428 78.9243 34.2122C78.9302 34.1815 78.9248 34.1498 78.909 34.1229C78.909 34.1229 77.9193 32.7138 77.103 31.2545C76.4879 30.1362 75.9009 29.018 76.063 27.7823C76.1916 26.8094 76.706 26.3957 77.5727 26.9604C78.8251 27.7655 79.3954 32.7306 79.5744 34.2291C79.5761 34.2683 79.5899 34.306 79.614 34.337C79.638 34.3681 79.671 34.3909 79.7085 34.4024C79.8595 34.4024 79.8372 34.2403 79.8316 34.162C79.826 34.0837 79.8316 33.6923 79.8316 33.6532C80.4256 33.7283 81.0267 33.7283 81.6208 33.6532C81.6543 34.0614 81.6935 34.3801 81.7214 34.5478C79.7365 34.5478 77.3378 34.682 75.694 34.039C76.5389 33.8718 77.3947 33.7653 78.2548 33.7203ZM75.5766 34.5422C76.3944 34.8592 77.2563 35.0478 78.1318 35.1013C79.1215 35.1908 85.859 35.202 86.625 35.1628C87.7801 35.1439 88.9237 34.9303 90.0078 34.531C90.1118 35.2176 90.0726 35.9183 89.8927 36.589C89.7127 37.2597 89.3959 37.8859 88.9622 38.4282C87.6035 40.0217 79.0096 40.3851 76.9464 38.9314C75.5877 37.9976 75.3417 36.1301 75.5766 34.5366V34.5422ZM71.07 50.9583C71.1874 51.333 17.8741 51.3497 17.8182 51.3441C15.5817 51.3441 16.1408 51.3441 15.3916 51.1596C15.1903 51.1149 15.1512 51.1149 15.112 50.9192C15.0646 50.6122 15.0515 50.3009 15.0729 49.991C15.0846 50.014 15.1035 50.0324 15.1268 50.0435C15.15 50.0546 15.1763 50.0578 15.2015 50.0525C15.2015 50.0525 71.0532 49.2921 71.4166 49.2809C71.5676 49.9351 71.59 50.5446 71.07 50.9583ZM86.7983 17.0246C86.7983 17.0246 86.8319 16.9687 86.8431 16.9855C86.8543 17.0022 86.7983 17.019 86.7704 17.0246H86.7983ZM58.9927 2.92329C58.9927 2.55985 59.1381 1.18439 59.4624 1.01665C60.2004 0.647622 83.656 0.334508 86.8599 1.33535C87.419 2.50953 87.2401 15.6995 86.7704 17.0246C84.0195 17.4551 70.1753 17.4216 66.5745 17.7906C66.7926 13.3902 66.8876 9.6832 66.7087 8.96192C66.6742 8.86785 66.6184 8.78306 66.5457 8.71418C66.4729 8.6453 66.3852 8.59422 66.2894 8.56493C65.0649 8.03376 60.4576 7.88279 59.1157 7.83806C58.9416 6.20584 58.9004 4.56217 58.9927 2.92329ZM20.3287 17.0022C20.2449 15.8281 19.8311 9.90126 20.9494 9.4875C21.5085 9.2918 23.4766 9.09611 26.3338 8.92837C31.8077 8.5873 40.4351 8.31332 48.2853 8.25741C50.0298 8.25741 64.7685 8.12881 66.2111 9.11847C66.636 11.0531 65.2774 32.5461 64.9754 34.6205C51.7631 35.051 36.1074 35.6996 22.7833 35.3753C22.5597 34.0949 20.8487 24.215 20.3287 17.0022ZM22.61 35.7499C22.611 35.7369 22.611 35.7238 22.61 35.7108C32.0314 36.0015 61.5144 35.0342 65.104 35.0119C65.501 35.9344 71.0755 48.3025 71.3104 48.9902C71.2489 48.9902 15.1568 49.7506 15.0841 49.8065C15.7886 47.447 21.6147 37.4721 22.61 35.7499ZM37.9805 73.2118C37.5668 74.0169 25.031 79.6194 22.4534 80.3966C22.5034 80.1389 22.5222 79.8761 22.5093 79.6138C26.317 78.2943 34.581 74.8109 38.288 72.3451C38.2174 72.6461 38.1143 72.9386 37.9805 73.2174V73.2118ZM38.3663 71.9761C37.2481 72.6359 36.1801 73.0944 22.5037 79.3119C22.5043 79.0588 22.4704 78.8067 22.4031 78.5627C24.1923 77.724 36.3255 73.0217 38.4893 71.1486C38.4614 71.389 38.4222 71.6798 38.3663 71.9817V71.9761ZM9.56543 60.5027C9.8343 60.8194 10.0007 61.2103 10.0426 61.6236C10.0846 62.0369 10.0001 62.4533 9.80027 62.8175C9.7108 62.9573 9.92327 63.1027 10.0127 62.9573C10.3503 62.5894 10.5498 62.1158 10.5774 61.6172C10.6049 61.1187 10.4587 60.626 10.1637 60.2231C12.8811 58.9763 15.5537 57.8021 16.2862 57.4834C16.4694 57.8557 16.5675 58.2641 16.5733 58.679C16.5791 59.0938 16.4925 59.5048 16.3197 59.8821C16.2527 60.061 16.4539 60.1281 16.549 60.0107C16.8565 59.6199 17.0479 59.1506 17.1013 58.6562C17.1547 58.1618 17.0679 57.6624 16.8509 57.215C17.4548 56.8739 18.8638 56.0968 19.5515 56.0968C20.4126 56.0968 37.8855 70.3099 38.2098 70.6342C36.7504 72.1383 23.2027 77.5003 22.062 78.0483C19.6578 77.4891 4.98614 64.8695 3.61067 63.5723C4.46615 62.8623 8.60372 60.95 9.56543 60.5027ZM3.18573 63.8296C4.93022 65.5349 19.4844 78.2384 21.9222 78.641C21.8733 78.8517 21.8508 79.0677 21.8552 79.284C17.9412 77.3717 6.75859 67.6876 3.05713 64.5732C3.07391 64.5732 3.15778 64.0253 3.20251 63.8296H3.18573ZM3.2696 65.7474C3.11189 65.5073 3.03365 65.2236 3.04595 64.9366C6.70267 68.6269 17.0243 77.7016 21.8496 79.5915C21.8396 79.8905 21.8697 80.1895 21.939 80.4805C19.0707 79.8375 3.64981 66.2059 3.28638 65.7474H3.2696ZM105.032 79.9605C101.42 87.1286 3.40379 85.2555 1.81586 82.4598C1.14277 81.2898 0.688064 80.0072 0.473942 78.6745C0.689636 79.1469 1.04992 79.5385 1.50274 79.7928C9.73317 84.5845 91.6181 83.3321 102.309 79.4908C104.573 78.6745 105.714 76.9132 105.971 74.4586C106.123 76.3434 105.796 78.2359 105.02 79.9605H105.032Z" fill="black"/>
<path d="M21.3071 41.9339C60.8433 42.493 64.6175 42.152 65.7245 41.9786C65.9873 41.9395 66.1551 41.85 66.1439 41.5425C66.1439 40.7318 64.2428 37.0135 63.7396 36.7563C63.516 36.6389 23.4821 37.2036 23.3423 37.2484C23.3163 37.2546 23.2919 37.2664 23.2707 37.2827C23.2495 37.2991 23.232 37.3198 23.2193 37.3434C22.8391 37.9641 20.9828 41.0281 21.0667 41.7214C21.0757 41.7793 21.1047 41.8322 21.1486 41.871C21.1925 41.9097 21.2485 41.932 21.3071 41.9339ZM23.5045 37.6342C23.907 37.5838 63.2923 37.1925 63.5327 37.2148C63.9502 37.8153 64.3239 38.445 64.651 39.0991C63.734 39.0991 22.7496 39.3172 22.5372 39.3227C22.7832 38.8307 23.1075 38.2716 23.5045 37.6342ZM22.3862 39.5911C22.6043 39.5911 64.0751 39.3787 64.7852 39.3619C65.1531 40.047 65.4438 40.7708 65.6518 41.5201C63.6613 41.8388 45.5231 41.6823 21.5084 41.5201C21.7328 40.8429 22.023 40.1893 22.375 39.5688L22.3862 39.5911ZM52.1656 43.8349C52.054 43.5881 51.8718 43.3798 51.6419 43.2365C51.412 43.0932 51.1448 43.0212 50.874 43.0298C49.4538 43.0298 37.5275 42.6999 36.454 43.136C35.7686 43.9664 35.2383 44.9134 34.8884 45.9317C34.8549 46.1777 34.9779 46.2895 35.1288 46.3063C38.4836 46.6697 49.6048 47.0164 52.4899 46.4852C52.8477 46.4181 52.8925 46.0379 52.8198 45.6745C52.6467 45.0462 52.428 44.4314 52.1656 43.8349ZM35.2854 45.9317C35.6066 45.0244 36.0425 44.1619 36.5826 43.3653C37.4325 43.0857 48.4865 43.6672 50.8908 43.6616C51.0339 43.6565 51.1755 43.6928 51.2985 43.7662C51.4215 43.8396 51.5206 43.947 51.5841 44.0754C51.8559 44.6561 52.0676 45.2631 52.2159 45.887C49.3811 46.3287 37.343 46.0771 35.2854 45.9317ZM90.9973 44.5506C90.2089 43.4659 86.2559 43.5162 84.9307 43.5554C83.8125 43.5554 79.7476 43.7399 79.7476 44.8358C79.7522 44.9246 79.778 45.0109 79.8227 45.0878C79.8675 45.1646 79.9299 45.2296 80.0048 45.2775C80.111 45.3614 79.3785 52.7307 80.385 56.6838C80.7149 57.9922 81.1398 58.6408 82.3867 59.1831C84.7798 60.2231 88.7496 59.9939 90.3431 57.7741C90.6618 57.1255 90.5947 55.2356 90.6227 54.6597C93.0996 55.1518 95.1293 54.1453 95.6549 51.4783C95.9848 49.7617 95.5598 48.6379 94.8274 47.9557C94.338 47.5573 93.7595 47.2832 93.1413 47.1566C92.5231 47.03 91.8834 47.0548 91.2769 47.2289C91.2557 47.236 91.2331 47.238 91.211 47.2346C91.1889 47.2313 91.168 47.2226 91.1499 47.2095C91.1318 47.1963 91.1172 47.1791 91.1072 47.1591C91.0972 47.1391 91.0921 47.117 91.0924 47.0947C91.0924 46.7983 91.1986 44.7911 90.9973 44.5506ZM80.3738 44.6681C81.8834 43.7846 88.0339 43.7175 90.0188 44.6177C90.0859 44.6513 90.3375 44.7799 90.3375 44.8358C90.3375 44.8917 90.0803 45.0259 90.0188 45.0538C88.5203 45.7304 83.1695 46.0379 80.357 45.0091C80.1613 44.9029 80.357 44.6904 80.357 44.6681H80.3738ZM91.4334 47.7992C91.9416 47.6527 92.4777 47.6317 92.9957 47.7378C93.5138 47.844 93.9984 48.0742 94.408 48.4086C95.0119 48.9678 95.3138 49.9295 95.0342 51.3553C94.9786 51.8509 94.8069 52.3265 94.5329 52.7433C94.2589 53.1601 93.8905 53.5063 93.4575 53.7539C92.5405 54.1666 91.508 54.2458 90.5388 53.9776C90.4912 53.9603 90.4405 53.953 90.3899 53.9562C90.3393 53.9593 90.29 53.9729 90.2449 53.996C90.1997 54.019 90.1599 54.0512 90.1277 54.0903C90.0956 54.1295 90.0718 54.1749 90.058 54.2236C89.907 54.6486 90.1195 56.3651 89.8119 57.4498C88.3973 59.3676 84.7798 59.541 82.6383 58.6408C81.5536 58.1767 81.2516 57.6958 80.9609 56.5384C80.2116 53.7931 80.1669 48.2018 80.3347 45.4508C82.0959 46.2839 88.1961 46.5244 90.5947 45.2943C90.5947 47.0276 90.3823 47.3183 90.8184 47.6706C90.9028 47.7342 91 47.7787 91.1033 47.8009C91.2066 47.8231 91.3136 47.8225 91.4166 47.7992H91.4334ZM37.1193 59.6472C35.6509 58.4018 34.0713 57.2938 32.4003 56.3371C31.7565 55.9573 31.0719 55.6516 30.3594 55.4258C29.7612 55.2692 29.5096 55.5767 29.6326 55.9849C29.8846 56.5709 30.2178 57.1186 30.6222 57.612C31.9087 59.2405 33.3882 60.7068 35.0282 61.9788C37.5219 64.0643 40.7537 66.5916 43.1132 68.3864C43.2334 68.4743 43.37 68.5372 43.5149 68.5716C43.6597 68.606 43.81 68.6111 43.9569 68.5866C44.1037 68.5621 44.2442 68.5086 44.3701 68.4291C44.496 68.3496 44.6048 68.2457 44.69 68.1236C45.1037 67.6707 45.3609 66.8768 44.8969 66.4462C44.3601 65.9654 41.078 62.8734 37.1193 59.6472ZM31.7629 58.4059L30.9968 57.1702C31.2695 57.057 31.5002 56.8615 31.6566 56.6111L32.8699 57.1031C32.5655 57.1635 32.2904 57.3251 32.0894 57.5616C31.8884 57.7982 31.7733 58.0957 31.7629 58.4059ZM33.4794 59.8317C33.0753 59.4916 32.7012 59.1175 32.3611 58.7134C32.4003 58.0369 32.6127 57.735 33.2893 57.7126C33.74 57.928 34.1657 58.1924 34.5585 58.501C34.2578 58.5742 33.9895 58.744 33.7946 58.9844C33.5997 59.2248 33.4889 59.5224 33.4794 59.8317ZM43.0405 67.9671C42.4199 67.4471 34.1671 60.4468 33.6583 59.9995C33.701 59.6864 33.8377 59.3937 34.0504 59.1601C34.263 58.9265 34.5416 58.7629 34.8493 58.6911C36.7783 60.1225 39.5516 62.4932 44.3881 66.5189C44.1998 66.5094 44.0117 66.5411 43.837 66.6119C43.6623 66.6828 43.5053 66.791 43.3769 66.929C43.2484 67.067 43.1518 67.2315 43.0937 67.4108C43.0356 67.5901 43.0175 67.78 43.0405 67.9671ZM87.3462 74.1623C88.0451 74.6375 88.5315 74.4195 88.9844 73.7597C90.1027 72.1718 94.0166 65.1435 94.0166 65.0876C94.0166 65.0316 94.0613 65.1379 93.8768 62.879C93.8689 62.794 93.8382 62.7128 93.788 62.6439C93.7378 62.5749 93.67 62.5207 93.5916 62.4869C93.5133 62.4532 93.4273 62.4411 93.3427 62.4521C93.2581 62.463 93.178 62.4965 93.1108 62.5491L91.1986 63.9413C91.1986 63.9413 86.9548 72.7141 86.91 72.7924C86.8333 73.0379 86.834 73.301 86.912 73.5461C86.99 73.7912 87.1416 74.0063 87.3462 74.1623ZM93.2674 63.2312C93.3009 63.6394 93.3456 64.1818 93.3792 64.5564C92.9639 64.3576 92.5292 64.2021 92.082 64.0923L93.2674 63.2312ZM91.6683 64.4725C92.1529 64.816 92.7127 65.0384 93.3009 65.1211C93.217 65.2665 88.9453 73.0608 88.9006 73.1391C88.7707 72.8749 88.5573 72.661 88.2934 72.5306C88.0295 72.4001 87.7299 72.3605 87.4412 72.4178C87.8773 71.607 91.5117 64.7521 91.6683 64.4725Z" fill="black"/>
<path d="M89.0964 53.3849C89.0361 53.3003 88.9595 53.2285 88.8712 53.1738C88.7829 53.1191 88.6846 53.0825 88.582 53.0662C88.2511 52.9778 87.915 52.9106 87.5755 52.8649C87.7657 54.1956 87.8775 55.6606 87.8719 55.7892C87.8634 55.8743 87.8216 55.9526 87.7556 56.0071C87.6896 56.0615 87.6048 56.0877 87.5196 56.0799C87.434 56.0701 87.3557 56.0271 87.3014 55.9602C87.247 55.8934 87.221 55.8079 87.2289 55.7221C87.2289 55.627 87.1953 55.2412 87.1674 52.809C86.0491 52.6692 80.6647 52.2499 80.8771 53.3234C80.8771 53.3793 80.4354 56.1191 82.1464 57.433C83.8573 58.747 87.2792 58.4898 88.4757 57.1535C88.8152 56.7467 89.0392 56.2562 89.1243 55.7333C89.2564 54.9552 89.2469 54.1596 89.0964 53.3849ZM90.4383 48.3248C90.4383 48.5764 90.1028 50.4998 89.8792 53.083L90.1476 53.1389C91.1313 53.3477 92.1561 53.236 93.0718 52.8202C93.3911 52.6429 93.6555 52.3811 93.836 52.0635C94.0165 51.746 94.1061 51.3849 94.095 51.0198C94.1329 50.5659 94.054 50.1099 93.8658 49.6952C93.6775 49.2805 93.3862 48.9209 93.0196 48.6507C92.6529 48.3805 92.2232 48.2087 91.7714 48.1516C91.3195 48.0946 90.8606 48.1542 90.4383 48.3248ZM90.6899 48.5149C91.0468 48.4584 91.4116 48.479 91.7598 48.5755C92.108 48.6719 92.4314 48.8419 92.7084 49.074C92.9742 49.3179 93.1801 49.6199 93.3101 49.9564C93.4401 50.2929 93.4905 50.6549 93.4576 51.0142C93.4073 52.4512 91.9312 52.7251 90.5166 52.5798C90.5837 51.5621 90.6396 50.3935 90.6899 48.5149ZM84.7016 15.6938C84.7001 15.7934 84.7184 15.8923 84.7553 15.9848C84.7922 16.0773 84.8471 16.1616 84.9167 16.2328C84.9864 16.304 85.0694 16.3607 85.1611 16.3997C85.2528 16.4387 85.3512 16.4591 85.4508 16.4598C85.603 16.4632 85.7527 16.4211 85.8809 16.339C86.009 16.2568 86.1098 16.1384 86.1704 15.9988C86.2309 15.8591 86.2485 15.7046 86.2209 15.5549C86.1933 15.4052 86.1217 15.2672 86.0152 15.1584C85.9088 15.0496 85.7724 14.9749 85.6233 14.944C85.4743 14.913 85.3194 14.9272 85.1785 14.9847C85.0375 15.0421 84.9169 15.1402 84.832 15.2666C84.747 15.3929 84.7016 15.5416 84.7016 15.6938ZM23.5046 34.1396C23.6332 34.3912 23.8009 34.4191 23.9072 34.3409C24.0134 34.2626 59.4232 33.9551 62.0568 33.8153C62.6231 33.824 63.1879 33.7525 63.7342 33.6028C64.9922 32.4845 65.4842 11.5786 64.9922 10.6113C63.7342 8.1008 24.3601 9.71669 21.939 10.4492C20.01 11.0307 22.6156 32.3559 23.5046 34.1396ZM21.8328 11.3549C21.8328 11.2543 21.9558 10.8629 22.0509 10.835C24.7291 10.0298 63.6167 8.70466 64.6735 10.807C64.7636 11.2277 64.8049 11.6573 64.7965 12.0874C64.8916 14.5252 64.7965 19.7475 64.5449 24.4275C64.4946 25.3221 64.0976 32.6523 63.5161 33.3177C61.1957 33.8097 25.4392 33.9215 23.8513 33.983C22.9455 31.8807 20.9885 15.0452 21.8328 11.3549ZM85.5235 3.36495C85.6755 3.36828 85.825 3.32633 85.953 3.24446C86.081 3.16258 86.1818 3.04447 86.2425 2.90516C86.3032 2.76584 86.3211 2.61162 86.2939 2.4621C86.2667 2.31258 86.1957 2.17452 86.0898 2.0655C85.984 1.95647 85.8481 1.8814 85.6994 1.84983C85.5508 1.81826 85.3961 1.83162 85.255 1.88821C85.114 1.9448 84.993 2.04206 84.9074 2.16763C84.8218 2.29319 84.7754 2.44139 84.7743 2.59335C84.7721 2.69341 84.7898 2.79291 84.8264 2.88607C84.8629 2.97923 84.9177 3.06418 84.9874 3.13598C85.0571 3.20779 85.1404 3.26501 85.2325 3.30431C85.3245 3.34362 85.4235 3.36424 85.5235 3.36495Z" fill="black"/>
<path d="M32.7749 25.4451H39.4174C40.1861 25.4421 40.9221 25.1343 41.4641 24.5892C42.006 24.0441 42.3096 23.3062 42.3081 22.5376V17.1476C42.3082 16.3772 42.0049 15.6379 41.4639 15.0895C40.9228 14.5412 40.1876 14.228 39.4174 14.2177H32.7749C32.3897 14.2162 32.0081 14.291 31.652 14.4377C31.2958 14.5844 30.9722 14.8002 30.6999 15.0725C30.4275 15.3449 30.2118 15.6685 30.0651 16.0246C29.9183 16.3807 29.8436 16.7624 29.8451 17.1476V22.5376C29.8465 22.9209 29.9235 23.3001 30.0715 23.6537C30.2195 24.0072 30.4358 24.3281 30.7078 24.5981C30.9799 24.8681 31.3025 25.0819 31.6571 25.2272C32.0118 25.3725 32.3916 25.4465 32.7749 25.4451ZM30.3203 17.1476C30.3305 16.5013 30.5929 15.8846 31.0515 15.4291C31.5101 14.9737 32.1286 14.7155 32.7749 14.7097H39.4174C39.7438 14.706 40.0677 14.7671 40.3704 14.8892C40.6731 15.0114 40.9486 15.1924 41.181 15.4217C41.4134 15.6509 41.5981 15.9239 41.7243 16.225C41.8506 16.526 41.916 16.8491 41.9167 17.1755V22.5376C41.9152 22.8643 41.8494 23.1876 41.723 23.4889C41.5966 23.7902 41.4121 24.0637 41.1801 24.2937C40.948 24.5237 40.6729 24.7057 40.3704 24.8294C40.068 24.9531 39.7441 25.016 39.4174 25.0145H32.7749C32.4511 25.0131 32.1307 24.9478 31.8321 24.8226C31.5335 24.6973 31.2625 24.5144 31.0346 24.2844C30.8067 24.0544 30.6263 23.7818 30.5037 23.482C30.3812 23.1823 30.3188 22.8614 30.3203 22.5376V17.1476ZM50.7342 29.4373C50.846 29.7672 51.1256 29.6945 51.2039 29.4876C51.3101 29.1913 51.9308 27.061 52.009 26.6919C52.4396 26.5577 51.2263 26.9771 54.978 25.6128C55.0169 25.5977 55.0504 25.5712 55.074 25.5368C55.0975 25.5024 55.1102 25.4616 55.1102 25.4199C55.1102 25.3782 55.0975 25.3374 55.074 25.303C55.0504 25.2686 55.0169 25.2421 54.978 25.227L49.2302 22.929C49.1949 22.9123 49.1558 22.9051 49.1169 22.9082C49.0779 22.9113 49.0405 22.9245 49.0082 22.9466C48.976 22.9686 48.9501 22.9987 48.9331 23.0339C48.9162 23.0691 48.9087 23.1081 48.9115 23.147C48.9115 23.147 50.4267 28.5483 50.7342 29.4373ZM49.4874 23.5272L54.3294 25.4339C53.6808 25.6743 52.5849 26.0881 52.0594 26.3005C51.8245 26.39 51.7295 26.4291 51.6736 26.5018C51.6177 26.5745 51.8133 26.1384 50.9914 28.6713L49.4874 23.5272ZM62.6829 7.1335C62.6894 7.16703 62.7076 7.19718 62.7342 7.21866C62.7608 7.24013 62.7941 7.25155 62.8283 7.25091C62.9457 7.25091 66.5633 7.59758 67.3013 7.40188C67.7766 7.27328 67.8604 6.43458 67.9052 5.94254C67.9611 5.1989 67.9052 3.37613 67.5921 2.75549C67.1671 1.91679 64.0304 2.19636 63.119 2.35851C62.8771 2.39254 62.6459 2.48044 62.4424 2.61571C62.324 2.75319 62.2551 2.92645 62.2467 3.10774C62.2412 4.46174 62.3875 5.81209 62.6829 7.1335ZM62.845 3.04624C63.7285 2.77227 66.2445 2.66603 67.0441 3.04624C67.3181 3.77311 67.4635 6.27243 67.1336 6.85393C66.6136 6.98812 63.4377 6.98812 62.9065 6.99371C62.8898 6.55759 62.6326 4.20364 62.845 3.04624ZM70.1864 7.11113C70.194 7.14418 70.2124 7.17374 70.2388 7.19503C70.2651 7.21633 70.2979 7.22814 70.3318 7.22855C70.4492 7.22855 74.0668 7.57521 74.8049 7.37951C75.2801 7.25091 75.364 6.41222 75.4143 5.92018C75.4646 5.17653 75.4143 3.35376 75.0956 2.73313C74.6707 1.88884 71.5339 2.17399 70.6225 2.33614C70.3812 2.37248 70.1505 2.46019 69.946 2.59334C69.83 2.73233 69.7615 2.90471 69.7503 3.08538C69.7451 4.43936 69.8914 5.78967 70.1864 7.11113ZM70.3486 3.02388C71.232 2.74431 73.7481 2.64367 74.5477 3.02388C74.8216 3.75075 74.967 6.25007 74.6371 6.82597C74.1171 6.96576 70.9413 6.96576 70.4101 6.97135C70.3933 6.53522 70.1361 4.18128 70.3486 3.02388ZM78.0366 7.35715C78.0432 7.39068 78.0614 7.42084 78.088 7.44231C78.1145 7.46378 78.1478 7.4752 78.182 7.47457C78.2994 7.47457 81.917 7.82123 82.6551 7.62553C83.1303 7.49693 83.2142 6.65823 83.2589 6.1662C83.3148 5.42255 83.2589 3.59978 82.9458 2.97914C82.5209 2.14045 79.3842 2.42001 78.4728 2.58216C78.2312 2.61764 78.0003 2.70542 77.7962 2.83936C77.6777 2.97685 77.6088 3.1501 77.6005 3.3314C77.595 4.6854 77.7413 6.03575 78.0366 7.35715ZM78.1988 3.26989C79.0822 2.99592 81.5983 2.88968 82.3979 3.26989C82.6718 3.99677 82.8172 6.49608 82.4873 7.07758C81.9673 7.21177 78.7915 7.21177 78.2603 7.21736C78.2435 6.78124 77.9863 4.4273 78.1988 3.26989ZM70.2367 15.7106C70.2759 15.8224 70.3654 15.8336 70.3821 15.828C70.5051 15.828 74.1171 16.1747 74.8552 15.979C75.3304 15.8504 75.4143 15.0117 75.4646 14.5196C75.515 13.776 75.4646 11.9532 75.1515 11.3382C74.721 10.4939 71.5843 10.779 70.6785 10.9356C70.435 10.9703 70.2021 11.0581 69.9963 11.1928C69.8792 11.3333 69.8106 11.5078 69.8006 11.6904C69.7954 13.0426 69.9417 14.391 70.2367 15.7106ZM70.4045 11.6233C71.2879 11.3494 73.7984 11.2431 74.598 11.6233C74.872 12.3502 75.0173 14.8495 74.6874 15.431C74.1674 15.5652 70.9972 15.5652 70.466 15.5708C70.4436 15.1347 70.1864 12.7807 70.4045 11.6233ZM83.3093 11.1089C84.2039 9.78937 84.9867 8.59842 85.0146 8.54251C85.0426 8.4866 84.6344 7.98338 84.394 8.34122C82.683 10.9747 82.9179 10.7231 82.7949 10.6784C81.8108 10.3205 78.6349 10.4436 78.1373 10.9076C77.8018 11.2208 77.9304 12.3558 77.9695 12.8422C77.6117 12.6409 77.3377 12.4956 77.2371 12.4564C76.9799 12.3558 76.9967 12.6074 77.1364 12.6969L78.0087 13.256C78.0793 13.9908 78.1932 14.7208 78.3498 15.4422C78.3552 15.4763 78.3731 15.5071 78.3999 15.5288C78.4268 15.5504 78.4607 15.5614 78.4951 15.5596C78.6125 15.5596 82.2301 15.9063 82.9682 15.7106C83.9299 15.4422 83.6336 11.9141 83.3093 11.1089ZM78.5119 11.3382C79.8272 11.0389 81.19 11.0141 82.5153 11.2655L80.5751 14.3239C80.3794 14.2121 79.3338 13.5971 78.4616 13.105C78.4248 12.5214 78.4416 11.9355 78.5119 11.3549V11.3382ZM82.8004 15.1403C82.2749 15.28 79.1046 15.28 78.5734 15.2856C78.5734 15.062 78.4895 14.3295 78.4504 13.5188L80.5751 14.8383C80.6288 14.8442 80.683 14.8347 80.7315 14.811C80.78 14.7872 80.8208 14.7502 80.8491 14.7041C81.028 14.4749 81.9282 13.1665 82.8452 11.819C83.0185 12.8255 83.0744 14.6594 82.8116 15.1403H82.8004ZM60.5694 3.18043C60.7211 3.18264 60.87 3.13974 60.9973 3.05718C61.1246 2.97461 61.2246 2.85609 61.2844 2.71666C61.3443 2.57723 61.3614 2.42316 61.3335 2.274C61.3057 2.12484 61.2342 1.9873 61.1281 1.87884C61.022 1.77037 60.886 1.69586 60.7375 1.66476C60.589 1.63365 60.4346 1.64736 60.2939 1.70413C60.1532 1.76091 60.0325 1.8582 59.9472 1.98366C59.8618 2.10912 59.8157 2.2571 59.8145 2.40883C59.8145 2.6106 59.8935 2.80436 60.0346 2.94859C60.1757 3.09282 60.3676 3.17605 60.5694 3.18043Z" fill="black"/>
</svg>
