<svg width="650" height="145" viewBox="0 0 260 58" fill="none" xmlns="http://www.w3.org/2000/svg">
<path d="M14.1223 17.0605L17.8178 13.365L21.5134 17.0605L17.8178 20.7561L14.1223 17.0605Z" fill="white"/>
<path d="M21.7763 17.0605V16.7976L21.5134 17.0605H21.7763Z" fill="#118E9C"/>
<path d="M4.24171 35.3526H0V30.1263H3.48421H8.71053H13.9368V35.3526H9.79771H4.24171Z" fill="white"/>
<path d="M24.3895 48.2332V52.7737H30.4868V58H13.0658V52.7737H19.1632V48.2332C20.0166 48.3553 20.8891 48.4184 21.7763 48.4184C22.6635 48.4184 23.536 48.3553 24.3895 48.2332Z" fill="white"/>
<path d="M24.3895 48.2332C33.2541 46.9652 40.0684 39.3415 40.0684 30.1263C40.0684 21.5496 34.1657 14.3515 26.201 12.373L34.8784 3.69556L31.1828 0L17.8178 13.365L21.5134 17.0605L21.7763 16.7976V17.0605C28.9924 17.0605 34.8421 22.9103 34.8421 30.1263C34.8421 37.3423 28.9924 43.1921 21.7763 43.1921C16.4185 43.1921 11.8139 39.9672 9.79771 35.3526H4.24171C6.24969 42.0995 12.0455 47.2151 19.1632 48.2332C20.0166 48.3553 20.8891 48.4184 21.7763 48.4184C22.6635 48.4184 23.536 48.3553 24.3895 48.2332Z" fill="#118E9C"/>
<path d="M245.881 38.5229C245.961 39.6048 246.442 40.4863 247.364 41.1674C248.285 41.8486 249.487 42.1691 250.97 42.1691C252.252 42.1691 253.334 41.9287 254.135 41.4479C254.937 40.9671 255.377 40.2859 255.377 39.4445C255.377 38.7633 255.177 38.2424 254.817 37.8818C254.416 37.5613 253.935 37.3209 253.294 37.1606C252.653 37.0003 251.691 36.84 250.409 36.6798C248.606 36.4794 247.123 36.199 245.961 35.8383C244.799 35.4777 243.878 34.9168 243.157 34.1154C242.435 33.314 242.115 32.2722 242.115 30.9099C242.115 29.6678 242.435 28.5459 243.157 27.5842C243.878 26.6226 244.839 25.8613 246.082 25.3003C247.324 24.7795 248.726 24.499 250.329 24.499C252.893 24.499 255.017 25.1 256.62 26.2219C258.222 27.3839 259.104 28.9866 259.264 31.0702H255.057C254.937 30.1486 254.456 29.3873 253.655 28.7863C252.813 28.1853 251.771 27.8647 250.529 27.8647C249.247 27.8647 248.245 28.1051 247.484 28.586C246.683 29.0668 246.322 29.7479 246.322 30.5493C246.322 31.1904 246.482 31.6312 246.883 31.9517C247.284 32.2722 247.764 32.4726 248.365 32.5928C248.926 32.713 249.888 32.8332 251.21 32.9935C252.973 33.1938 254.456 33.4743 255.658 33.875C256.86 34.2757 257.822 34.8767 258.543 35.7181C259.264 36.5596 259.625 37.6815 259.625 39.1239C259.625 40.4061 259.224 41.5681 258.503 42.5298C257.742 43.4914 256.7 44.2527 255.418 44.7736C254.095 45.2945 252.613 45.5349 251.01 45.5349C248.245 45.5349 246.001 44.9339 244.319 43.6917C242.636 42.4496 241.754 40.7267 241.714 38.5229H245.881Z" fill="white"/>
<path d="M236.176 26.7829C237.699 28.3055 238.5 30.7096 238.5 33.9952V45.2945H234.132V34.2356C234.132 32.3123 233.692 30.8298 232.89 29.788C232.049 28.7863 230.847 28.2654 229.244 28.2654C227.521 28.2654 226.159 28.8664 225.197 30.0685C224.236 31.2705 223.755 32.8733 223.755 34.9568V45.2945H219.427V24.7794H223.194L223.675 27.464C225.197 25.5407 227.401 24.539 230.246 24.539C232.65 24.539 234.653 25.3003 236.176 26.7829Z" fill="white"/>
<path d="M200 44.2527C198.398 43.3712 197.196 42.1691 196.314 40.5664C195.433 38.9637 195.032 37.1205 195.032 35.037C195.032 32.9935 195.433 31.1904 196.314 29.5877C197.196 27.9849 198.398 26.7428 200 25.8613C201.603 24.9798 203.406 24.539 205.49 24.539C207.533 24.539 209.336 24.9798 210.939 25.8613C212.542 26.7428 213.744 27.9849 214.625 29.5877C215.507 31.1904 215.948 32.9935 215.948 35.037C215.948 37.1205 215.507 38.9637 214.625 40.5664C213.744 42.1691 212.542 43.3712 210.939 44.2527C209.336 45.1342 207.533 45.5349 205.49 45.5349C203.406 45.5349 201.603 45.1342 200 44.2527ZM209.857 39.9654C210.979 38.6832 211.54 37.0404 211.54 35.037C211.54 33.0335 210.979 31.4308 209.857 30.1486C208.735 28.8664 207.293 28.2253 205.49 28.2253C203.647 28.2253 202.204 28.8664 201.122 30.1486C200 31.4308 199.48 33.0335 199.48 35.037C199.48 37.0404 200 38.6832 201.122 39.9654C202.204 41.2476 203.647 41.8486 205.49 41.8486C207.293 41.8486 208.735 41.2476 209.857 39.9654Z" fill="white"/>
<path d="M189.59 43.5315C187.908 44.8938 185.784 45.5349 183.22 45.5349C181.176 45.5349 179.373 45.1342 177.85 44.2527C176.288 43.3712 175.086 42.1291 174.244 40.5263C173.403 38.9236 173.002 37.0805 173.002 34.9969C173.002 32.9133 173.403 31.1103 174.284 29.5075C175.126 27.9449 176.328 26.7428 177.89 25.8613C179.453 24.9798 181.256 24.539 183.34 24.539C185.904 24.539 187.988 25.2202 189.631 26.5825C191.233 27.9449 192.275 29.7479 192.676 32.0719H188.228C187.908 30.9099 187.347 29.9883 186.465 29.2671C185.584 28.5859 184.502 28.2253 183.22 28.2253C181.457 28.2253 180.054 28.8664 179.012 30.1085C177.971 31.3907 177.45 32.9935 177.45 34.9969C177.45 37.0404 177.971 38.6832 179.012 39.9654C180.054 41.2476 181.457 41.8486 183.22 41.8486C184.542 41.8486 185.664 41.528 186.545 40.8068C187.427 40.0856 187.988 39.1239 188.268 37.9219H192.676C192.275 40.326 191.233 42.1691 189.59 43.5315Z" fill="white"/>
<path d="M164.461 17.2466H169.069V45.2945H164.461V17.2466Z" fill="white"/>
<path d="M136.341 44.2527C134.739 43.3712 133.537 42.1691 132.655 40.5664C131.774 38.9637 131.373 37.1205 131.373 35.037C131.373 32.9935 131.774 31.1904 132.655 29.5877C133.537 27.9849 134.739 26.7428 136.341 25.8613C137.944 24.9798 139.747 24.539 141.831 24.539C143.874 24.539 145.677 24.9798 147.28 25.8613C148.883 26.7428 150.085 27.9849 150.966 29.5877C151.848 31.1904 152.289 32.9935 152.289 35.037C152.289 37.1205 151.848 38.9637 150.966 40.5664C150.085 42.1691 148.883 43.3712 147.28 44.2527C145.677 45.1342 143.874 45.5349 141.831 45.5349C139.747 45.5349 137.944 45.1342 136.341 44.2527ZM146.198 39.9654C147.32 38.6832 147.881 37.0404 147.881 35.037C147.881 33.0335 147.32 31.4308 146.198 30.1486C145.076 28.8664 143.634 28.2253 141.831 28.2253C139.988 28.2253 138.545 28.8664 137.463 30.1486C136.341 31.4308 135.821 33.0335 135.821 35.037C135.821 37.0404 136.341 38.6832 137.463 39.9654C138.545 41.2476 139.988 41.8486 141.831 41.8486C143.634 41.8486 145.076 41.2476 146.198 39.9654Z" fill="white"/>
<path d="M125.875 26.7829C127.397 28.3055 128.199 30.7096 128.199 33.9952V45.2945H123.831V34.2356C123.831 32.3123 123.391 30.8298 122.589 29.788C121.748 28.7863 120.546 28.2654 118.943 28.2654C117.22 28.2654 115.858 28.8664 114.896 30.0685C113.934 31.2705 113.454 32.8733 113.454 34.9568V45.2945H109.126V24.7794H112.893L113.373 27.464C114.896 25.5407 117.1 24.539 119.945 24.539C122.349 24.539 124.352 25.3003 125.875 26.7829Z" fill="white"/>
<path d="M106.769 41.528V45.2945H104.485C103.123 45.2945 102.161 45.014 101.6 44.453C100.999 43.8921 100.719 43.0907 100.719 42.0089C99.1561 44.3729 96.9122 45.5349 93.9472 45.5349C91.6232 45.5349 89.78 45.014 88.4177 43.9322C87.0153 42.8904 86.3342 41.4078 86.3342 39.5246C86.3342 37.4411 87.0554 35.7983 88.578 34.6763C90.0605 33.5544 92.2242 32.9534 95.1091 32.9534H100.278V31.7113C100.278 30.5894 99.8773 29.6678 99.0759 29.0267C98.2745 28.3856 97.1526 28.025 95.7502 28.025C94.468 28.025 93.4263 28.3055 92.6249 28.8664C91.8235 29.4274 91.3427 30.1486 91.1824 31.0301H86.9352C87.1355 28.9866 88.0571 27.3839 89.6598 26.262C91.2626 25.1401 93.3461 24.539 95.9506 24.539C98.6752 24.539 100.799 25.1801 102.321 26.4623C103.804 27.7445 104.565 29.5877 104.565 31.9918V40.0856C104.565 41.0472 105.006 41.528 105.928 41.528H106.769ZM100.278 36.1589H94.9088C93.5465 36.1589 92.5448 36.4394 91.8235 36.9602C91.1023 37.4811 90.7417 38.2424 90.7417 39.2442C90.7417 40.1257 91.0622 40.8469 91.7434 41.3678C92.4246 41.9287 93.3461 42.1691 94.5482 42.1691C96.3112 42.1691 97.7136 41.6883 98.7153 40.7267C99.717 39.765 100.238 38.4829 100.278 36.8801V36.1589Z" fill="white"/>
<path d="M60.0684 45.2945V17.2466H64.2755L77.9389 37.1205V17.2466H82.4666V45.2945H78.2594L64.5961 25.4205V45.2945H60.0684Z" fill="white"/>
</svg>
