<svg width="41" height="58" viewBox="0 0 41 58" fill="none" xmlns="http://www.w3.org/2000/svg">
<g clip-path="url(#clip0_6_2)">
<path d="M14.1223 17.0605L17.8178 13.365L21.5134 17.0605L17.8178 20.7561L14.1223 17.0605Z" fill="white"/>
<path d="M21.7763 17.0605V16.7976L21.5134 17.0605H21.7763Z" fill="#118E9C"/>
<path d="M4.24171 35.3526H0V30.1263H3.48421H8.71053H13.9368V35.3526H9.79771H4.24171Z" fill="white"/>
<path d="M24.3895 48.2332V52.7737H30.4868V58H13.0658V52.7737H19.1632V48.2332C20.0166 48.3553 20.8891 48.4184 21.7763 48.4184C22.6635 48.4184 23.536 48.3553 24.3895 48.2332Z" fill="white"/>
<path d="M24.3895 48.2332C33.2541 46.9652 40.0684 39.3415 40.0684 30.1263C40.0684 21.5496 34.1657 14.3515 26.201 12.373L34.8784 3.69556L31.1828 0L17.8178 13.365L21.5134 17.0605L21.7763 16.7976V17.0605C28.9924 17.0605 34.8421 22.9103 34.8421 30.1263C34.8421 37.3423 28.9924 43.1921 21.7763 43.1921C16.4185 43.1921 11.8139 39.9672 9.7977 35.3526H4.2417C6.24968 42.0995 12.0455 47.2151 19.1632 48.2332C20.0166 48.3553 20.8891 48.4184 21.7763 48.4184C22.6635 48.4184 23.536 48.3553 24.3895 48.2332Z" fill="#118E9C"/>
</g>
<defs>
<clipPath id="clip0_6_2">
<rect width="41" height="58" fill="white"/>
</clipPath>
</defs>
</svg>
