<svg width="107" height="105" viewBox="0 0 107 105" fill="none" xmlns="http://www.w3.org/2000/svg">
<path d="M57.4159 63.9306C57.2697 62.1864 57.2155 60.4358 57.2538 58.6859C57.2538 58.5406 57.0413 58.5014 57.0245 58.6859C56.8418 60.4398 56.8605 62.2089 57.0804 63.9585C57.0841 64.003 57.1054 64.0442 57.1394 64.0731C57.1735 64.1019 57.2177 64.116 57.2621 64.1123C57.3066 64.1086 57.3478 64.0874 57.3767 64.0533C57.4055 64.0192 57.4196 63.9751 57.4159 63.9306ZM54.883 63.2764C54.8932 63.2991 54.9097 63.3183 54.9305 63.3318C54.9513 63.3454 54.9756 63.3525 55.0005 63.3525C55.0253 63.3525 55.0496 63.3454 55.0704 63.3318C55.0913 63.3183 55.1077 63.2991 55.1179 63.2764C55.0396 61.5151 54.9669 59.7483 54.8886 57.9814C54.8886 57.9518 54.8769 57.9233 54.8559 57.9023C54.8349 57.8814 54.8065 57.8696 54.7768 57.8696C54.7472 57.8696 54.7187 57.8814 54.6977 57.9023C54.6768 57.9233 54.665 57.9518 54.665 57.9814C54.5904 59.3154 54.6054 60.6528 54.7097 61.9848C54.7134 62.4209 54.7716 62.8548 54.883 63.2764ZM69.5379 63.5C69.5927 64.3637 69.4962 65.2304 69.2527 66.0609C69.2527 66.1895 69.6273 66.8996 69.8622 64.8587C70.0094 63.4803 69.722 62.0904 69.0403 60.8833C68.9676 60.7491 68.7775 60.8833 68.839 61.0007C69.2259 61.7829 69.463 62.6306 69.5379 63.5ZM62.7612 23.0804C62.7574 23.5012 62.8996 23.9102 63.1638 24.2378C63.4993 24.5397 64.0193 23.3656 65.5792 23.181V21.6714C64.4908 21.751 63.478 22.2575 62.7612 23.0804ZM77.4608 63.4665C77.4608 62.3147 77.3602 61.1685 77.3378 60.0167C77.3378 59.8601 77.0974 59.8936 77.0974 60.0502C77.0974 61.2412 77.0974 62.4433 77.1477 63.6398C77.1701 64.4282 77.4776 64.1375 77.4608 63.4665ZM66.6248 21.6434L66.6584 23.1531C68.5874 23.2202 69.1465 24.6739 69.3534 24.221C69.4428 24.0141 69.8063 22.9797 69.6106 22.8008C68.7897 22.0639 67.7279 21.6522 66.6248 21.6434ZM26.4959 12.5687C26.2052 12.7253 26.4959 13.413 26.7252 13.262C26.9544 13.1111 26.8146 12.3842 26.4959 12.5687ZM26.1269 10.8857C25.7355 10.9249 25.7243 11.3274 26.1269 11.3778C26.4185 11.4004 26.7013 11.4883 26.9544 11.635C27.1054 11.7356 27.2675 11.5343 27.1781 11.3945C27.0629 11.225 26.9051 11.0887 26.7206 10.9994C26.5361 10.9101 26.3313 10.8709 26.1269 10.8857ZM25.126 12.8539C25.2757 13.2463 25.3935 13.6502 25.4783 14.0616C25.5733 14.5424 25.5678 14.671 25.5454 14.699C25.4551 14.7019 25.3652 14.7131 25.277 14.7326C25.1149 14.7885 25.1149 14.9953 25.3665 15.1128C25.4347 15.1473 25.5118 15.1604 25.5876 15.1504C25.6634 15.1404 25.7344 15.1078 25.7914 15.0568C26.0822 14.7773 25.9591 13.9889 25.4336 12.7141C25.415 12.6733 25.381 12.6416 25.3391 12.6258C25.2972 12.6101 25.2507 12.6117 25.2099 12.6302C25.1691 12.6488 25.1374 12.6827 25.1217 12.7247C25.1059 12.7666 25.1075 12.8131 25.126 12.8539Z" fill="black"/>
<path d="M106.167 80.2069H98.2325C98.965 76.293 94.6149 73.5365 91.9087 74.979C91.6308 73.6228 90.8673 72.4148 89.7615 71.5819C88.6557 70.7489 87.2839 70.3484 85.9036 70.4557C85.7564 69.4949 85.3931 68.5801 84.841 67.7801C84.2889 66.9801 83.5626 66.3158 82.7166 65.8372C82.4538 62.7061 82.5712 59.519 82.5768 56.427C83.0521 56.4606 84.1927 56.5668 84.0082 56.1139C83.449 54.7273 82.4929 52.4125 81.7716 51.0817C82.0624 51.0817 82.3923 51.0817 82.3923 50.7854C82.4817 45.4177 82.6551 34.1568 82.6551 34.1568C82.7445 27.4919 82.9682 19.8318 78.2883 14.3467C78.1429 14.1734 77.9416 14.1119 77.813 14.2908C75.9091 16.9863 74.6573 20.087 74.1563 23.3488C73.9662 20.1617 73.7146 16.5609 73.2225 12.9992C72.3838 6.95502 70.3598 2.89572 67.0721 0.485861C66.7589 0.256617 66.3005 -0.11241 66.0936 0.0329645C60.9608 3.66732 59.4511 10.0079 59.0932 14.6878C58.9646 16.6783 58.9255 18.6968 58.9758 20.6985C58.2881 18.1321 55.9286 13.1222 55.0619 14.33C51.025 20.1114 51.366 27.5814 51.7071 34.1736C52.2662 46.7317 52.434 49.9691 52.5067 50.8133C52.5067 51.0873 52.5067 51.2718 53.2783 51.188C51.6512 55.4989 51.3157 56.2201 51.4611 56.3432C51.6065 56.4662 52.1824 56.427 52.4619 56.4103C52.4228 58.2945 52.8701 67.4531 52.8086 67.9396C52.4027 68.4339 52.0763 68.9885 51.8413 69.5834C50.8882 69.8427 50.0036 70.3081 49.25 70.9468C48.4965 71.5854 47.8923 72.3816 47.4801 73.2793C46.7363 73.2065 45.9863 73.3299 45.3051 73.6371C44.6341 66.1951 43.2586 54.9453 41.5756 47.453C44.4552 47.8276 45.8306 46.536 46.496 45.4177C48.1734 42.4935 47.0551 37.6346 44.9752 34.9452C43.2146 31.1998 40.6327 27.8993 37.4213 25.289C37.7624 24.6404 36.8622 21.6937 34.5753 20.4804C33.5968 19.9604 32.294 19.9213 31.6958 19.3622C30.4154 18.1097 31.2764 14.7773 28.6094 13.905C28.4369 12.5269 28.1507 11.1655 27.7539 9.83455C31.1087 8.39199 30.9354 4.48925 28.956 3.38217C27.1109 2.35336 26.0933 3.8127 24.88 4.22086C23.2026 4.78 21.7768 3.57227 19.5738 3.57227C15.4194 3.57227 14.4354 7.75458 14.2173 7.96146C13.9993 8.16834 13.9154 9.34811 12.0647 10.075C10.0965 10.841 7.5916 10.8857 6.52365 13.2005C5.61786 15.2246 7.35676 17.6959 6.16022 19.569C5.4613 20.6873 2.9508 20.7544 1.12803 23.6787C-0.823341 26.793 -0.169156 31.0201 2.52027 32.7757C0.205462 37.9757 0.311697 43.5055 2.79424 47.2293C5.06432 50.6232 8.76577 51.8981 12.7859 51.7918C12.5846 61.2635 12.6685 70.7073 12.1653 80.2405C10.3481 80.2405 8.52535 80.2796 6.74172 80.3132C6.6913 80.3132 6.64294 80.3332 6.60729 80.3688C6.57164 80.4045 6.55161 80.4528 6.55161 80.5033C6.55161 80.5537 6.57164 80.602 6.60729 80.6377C6.64294 80.6733 6.6913 80.6934 6.74172 80.6934C8.33524 80.7269 10.2195 80.7605 12.1317 80.7605C11.8242 86.3126 11.4105 91.9431 10.9017 97.4617C10.8513 98.0209 12.1597 97.9873 12.7132 98.0209C12.5604 98.7975 12.5022 99.5898 12.5399 100.38C12.115 100.755 11.4943 103.316 11.5279 103.791C11.5279 103.892 11.5726 103.953 11.6397 103.964C12.2548 104.065 21.5475 104.524 21.9781 104.015C21.9888 103.995 21.9945 103.973 21.9945 103.95C21.9945 103.928 21.9888 103.906 21.9781 103.886C21.3574 102.209 19.1824 100.794 17.4044 100.336L17.8852 98.1942C18.2542 98.1942 19.0035 98.2501 19.1097 98.0544C21.609 92.4184 23.8847 86.5978 25.8696 80.7661H33.9994C35.5482 85.7374 36.9153 90.7636 38.0978 95.8347C38.5731 97.8811 38.2432 97.7693 39.5628 97.8308C39.5566 98.6281 39.6524 99.4229 39.8479 100.196C39.4191 101.205 39.1603 102.278 39.0819 103.372C39.0711 103.39 39.0654 103.412 39.0654 103.433C39.0654 103.455 39.0711 103.476 39.0819 103.495C39.4342 103.942 49.4706 104.317 50.1583 103.909C50.7174 103.551 47.6534 100.582 44.936 100.034C44.9752 99.3197 44.9584 98.6037 44.8857 97.8923C45.361 97.8923 46.4569 98.0209 46.4569 97.5512C46.4569 92.273 46.2779 86.6202 45.8977 80.7772H106.183C106.259 80.775 106.331 80.7428 106.383 80.6878C106.434 80.6327 106.462 80.5593 106.46 80.4837C106.458 80.4081 106.426 80.3364 106.371 80.2845C106.316 80.2326 106.242 80.2047 106.167 80.2069ZM30.4321 70.232C31.8244 74.0621 32.568 76.444 33.8261 80.2572H26.0374C27.3961 76.2371 29.2747 70.1929 30.5104 65.1104C30.9298 63.433 31.7741 64.1431 31.4665 65.5073C31.1087 67.1903 30.4154 70.1929 30.4321 70.232ZM44.539 100.09C43.5829 100.526 41.1842 100.498 40.2505 100.229C40.189 99.4299 40.0268 98.6303 40.0157 97.8308L44.4104 97.8811C44.4496 98.6191 44.4943 99.3516 44.539 100.09ZM13.2276 51.7862C17.9244 51.5514 23.5101 49.4043 28.1844 46.0328C28.2851 45.9601 28.3745 45.9433 28.4025 45.8482C28.4304 45.7532 28.4025 45.6749 28.2348 45.4345C29.5478 44.8197 30.9265 44.3564 32.3444 44.0534C32.9035 43.9528 34.5418 43.6397 34.8381 42.7507L36.057 42.7171C37.2312 45.1493 39.0987 46.8379 41.1898 47.3635L42.3081 54.0116C33.0712 57.193 24.6395 57.8696 13.2612 56.3208C13.3003 54.8167 13.3059 53.2903 13.2444 51.7862H13.2276ZM27.8825 17.7071C27.0997 19.7368 25.467 19.8207 25.7298 20.3015V20.4748C25.8361 21.3639 26.043 23.1922 24.6116 24.4838C22.1961 23.5221 20.6977 22.415 19.5794 20.8047C19.8142 20.3966 19.5794 18.6129 19.5794 18.5961C19.2327 16.7734 17.6448 16.4044 18.0026 14.7549C18.053 14.5145 18.1256 14.3747 18.2207 14.33C18.5338 14.1902 19.339 15.2693 19.5067 14.0169C19.7695 12.2276 20.2727 10.8466 22.0452 10.3434C23.689 9.87928 25.2769 10.6732 27.4016 9.94078C27.8825 11.9313 28.71 15.5321 27.8825 17.7071ZM24.6954 24.9758C25.6627 24.7354 26.4903 22.3591 26.289 21.0284C27.798 21.2415 29.2841 21.5934 30.7285 22.0795C35.9843 23.9526 40.5468 27.956 43.6277 33.3908C41.5253 31.3779 38.7744 30.2429 36.2863 30.3994C35.493 29.0994 34.5815 27.8753 33.5633 26.7427C33.5481 26.7259 33.5295 26.7125 33.5088 26.7033C33.4881 26.6941 33.4657 26.6894 33.4431 26.6894C33.4204 26.6894 33.398 26.6941 33.3773 26.7033C33.3566 26.7125 33.3381 26.7259 33.3229 26.7427C33.3068 26.7583 33.294 26.777 33.2853 26.7977C33.2766 26.8183 33.2721 26.8405 33.2721 26.8629C33.2721 26.8853 33.2766 26.9075 33.2853 26.9282C33.294 26.9488 33.3068 26.9675 33.3229 26.9831C34.2162 28.094 35.0397 29.2592 35.7886 30.4721C35.0476 30.584 34.3332 30.8303 33.6807 31.199C33.575 31.2094 33.4703 31.2281 33.3676 31.2549C33.0606 31.3243 32.7482 31.3673 32.4338 31.3835C31.1255 31.3835 31.0751 30.8244 30.6055 30.8859C29.6717 30.9809 29.9457 32.8261 32.0928 33.2175C31.707 34.2966 31.5336 36.6729 32.2549 37.6905C31.3938 37.6905 30.8403 37.5116 30.8068 38.3894C30.7955 38.5476 30.7955 38.7065 30.8068 38.8647C30.5295 38.6863 30.2157 38.5726 29.8886 38.5319C29.5614 38.4913 29.2293 38.5247 28.9169 38.6299C28.3298 38.8535 27.2115 40.0221 26.6468 40.5085C26.6468 40.2737 26.6468 39.9159 26.4399 39.8935C22.8895 39.5972 17.4938 39.5133 14.262 39.6027C14.0849 37.3216 14.1148 35.0291 14.3515 32.7534C14.3611 32.7067 14.3518 32.658 14.3256 32.6182C14.2994 32.5783 14.2584 32.5505 14.2117 32.5409C14.165 32.5313 14.1164 32.5406 14.0765 32.5668C14.0367 32.593 14.0089 32.634 13.9992 32.6807C13.8203 33.6871 13.4737 37.7912 13.8371 39.6195L9.25781 39.9214C9.224 39.9246 9.19195 39.938 9.16591 39.9598C9.13987 39.9816 9.12106 40.0108 9.11197 40.0435C9.10287 40.0763 9.10393 40.111 9.115 40.1431C9.12607 40.1752 9.14662 40.2032 9.17394 40.2234C9.1897 40.2375 9.20845 40.2478 9.22879 40.2537C9.24913 40.2595 9.27052 40.2606 9.29136 40.2569C14.9365 39.9112 20.5986 39.9485 26.2387 40.3688C26.2646 42.258 26.8333 44.0999 27.8769 45.6749C20.4181 51.0482 8.14514 54.5595 3.13531 46.9441C-0.471088 41.5038 1.31813 31.9985 8.00535 26.1948C11.1995 23.4562 15.0857 21.6494 19.2383 20.9725C20.2503 22.9015 23.963 25.1436 24.6899 24.9647L24.6954 24.9758ZM32.9818 31.7525C32.6969 32.0534 32.4576 32.3943 32.2717 32.7646C31.2261 32.608 30.6334 32.0601 30.5328 31.6072C30.4545 31.294 30.639 31.1654 31.0248 31.4282C31.6317 31.7243 32.3118 31.837 32.9818 31.7525ZM35.6992 34.8333C35.6708 34.8659 35.654 34.907 35.6514 34.9501C35.6488 34.9932 35.6606 35.036 35.6848 35.0717C35.7091 35.1074 35.7445 35.1342 35.7855 35.1477C35.8265 35.1612 35.8709 35.1608 35.9116 35.1465C36.3645 34.9675 36.577 35.0067 36.6105 35.0905C36.6441 35.1744 36.4652 35.5882 36.1017 35.7671C35.8669 35.8845 35.414 35.9908 35.0673 35.3589C34.7822 34.8445 35.2686 34.2798 35.0673 34.1624C34.8661 34.045 34.2957 34.9116 34.7822 35.672C34.6817 35.7457 34.5615 35.7877 34.437 35.7927C34.3125 35.7977 34.1893 35.7654 34.0833 35.7C33.8373 35.5099 33.6695 34.9787 33.9547 34.0226C34.0609 33.6536 33.4347 33.5585 33.3564 35.1409C33.3229 35.3589 33.0824 36.7008 33.0097 37.1537C32.9371 37.6066 32.8364 37.6402 32.8252 37.6458C32.814 37.6514 32.7637 37.6458 32.719 37.5843C32.322 37.137 31.8467 34.8613 32.6072 33.1112C32.8436 32.521 33.2474 32.0128 33.769 31.6492C34.2905 31.2856 34.9071 31.0825 35.5426 31.0648C35.9164 31.0576 36.2864 31.1409 36.621 31.3075C36.9557 31.4741 37.2452 31.7191 37.4648 32.0216C37.6844 32.3241 37.8277 32.6752 37.8824 33.0451C37.9371 33.4149 37.9017 33.7924 37.7791 34.1456C37.7189 34.3336 37.6166 34.5053 37.48 34.6477C37.3434 34.7902 37.176 34.8995 36.9908 34.9675C36.9269 34.8584 36.8383 34.7658 36.732 34.6973C36.6257 34.6288 36.5047 34.5863 36.379 34.5732C36.2532 34.5601 36.1261 34.5769 36.008 34.6221C35.8899 34.6673 35.7841 34.7396 35.6992 34.8333ZM31.584 39.5692C31.5154 39.3764 31.3833 39.2127 31.2093 39.1051L31.2764 38.1993H33.9267C33.9267 38.5013 34.0106 39.3903 34.0106 39.3903C33.1985 39.3938 32.3877 39.4536 31.584 39.5692ZM33.3173 37.6961C33.4649 37.0852 33.5714 36.465 33.636 35.8398C33.8177 36.0378 34.0646 36.1637 34.3316 36.1945C34.5986 36.2253 34.8677 36.1589 35.0897 36.0075L35.1792 36.069C34.94 37.1605 34.9096 38.2875 35.0897 39.3903H34.5306C34.5458 38.8611 34.4875 38.3323 34.3572 37.8191C34.1951 37.6737 33.5633 37.6961 33.3173 37.6961ZM29.0119 39.0492C29.3867 38.9555 29.7795 38.9626 30.1507 39.0696C30.5218 39.1766 30.8581 39.3798 31.1255 39.6587C31.2261 39.8264 31.2093 39.8823 31.2037 39.8991C31.1982 39.9159 30.8683 39.9606 30.6446 39.9494C30.3142 39.8961 29.9754 39.9428 29.6717 40.0836C29.2108 40.4534 28.9087 40.9855 28.8274 41.5709C28.7436 42.9967 32.8644 42.8178 34.2734 42.773C33.2334 43.8354 30.1358 43.5949 28.0391 45.0599C27.3063 43.796 26.8401 42.3955 26.6692 40.9447C27.0382 40.7769 28.4193 39.3064 29.0119 39.0492ZM46.496 44.3666C45.2883 47.8947 41.503 46.9889 41.3464 46.9497C38.7073 46.2844 37.1809 43.8242 36.605 42.6836C37.2312 42.5382 37.0523 41.9231 36.9908 41.3305L41.8664 41.2186C42.2578 41.9623 43.1859 41.7163 43.1412 40.9726C43.147 40.8108 43.0959 40.6521 42.9968 40.524C42.8978 40.3959 42.7571 40.3065 42.599 40.2713C42.441 40.2361 42.2756 40.2573 42.1316 40.3313C41.9875 40.4053 41.8739 40.5273 41.8105 40.6763C41.1116 40.6148 37.6729 40.7098 36.9516 40.7881C36.8677 39.2896 36.9516 39.3959 35.5706 39.4015C35.442 38.3505 35.442 37.2877 35.5706 36.2368C35.8635 36.2914 36.1663 36.2412 36.4259 36.0951C36.6856 35.9489 36.8855 35.716 36.9908 35.4372C37.9189 35.3198 38.8527 33.7095 38.0307 31.9874C37.8769 31.6983 37.6648 31.4442 37.4079 31.2411C37.1509 31.0381 36.8547 30.8905 36.5379 30.8076C40.804 30.6958 44.6676 34.1344 46.2108 38.2273C46.2891 38.2273 46.3394 38.1714 46.2108 38.2273C47.0052 40.1809 47.1059 42.3477 46.496 44.3666ZM17.4211 98.183C17.2433 98.8874 17.1126 99.6028 17.0297 100.324C15.6697 100.465 14.2997 100.48 12.9369 100.369C13.0264 99.592 13.1102 98.8204 13.1941 98.0432L17.4211 98.183ZM91.9534 75.3089C93.1723 74.3081 98.5624 75.5829 97.7572 80.2237H45.8642L45.3777 74.0285C48.2125 73.0444 50.2925 74.5429 51.025 76.3657C51.1536 76.7068 51.8749 76.416 50.751 75.0126C50.0368 74.13 49.0284 73.5344 47.9106 73.3352C50.6168 68.1241 58.2769 68.9572 59.7642 74.5597C59.8425 74.856 60.2842 74.7106 60.2059 74.4143C59.7573 72.7621 58.7023 71.3397 57.2515 70.4309C55.8006 69.522 54.0604 69.1935 52.3781 69.5107C52.8521 68.5576 53.5537 67.736 54.4207 67.1184C55.2877 66.5009 56.2935 66.1064 57.3492 65.9699C58.4049 65.8334 59.4779 65.959 60.4735 66.3357C61.4691 66.7124 62.3566 67.3285 63.0575 68.1297C63.5719 68.6888 65.294 71.9653 65.8532 72.3511C65.3935 73.1393 65.1058 74.0158 65.0089 74.9231C64.3176 75.1764 63.6891 75.5757 63.1661 76.0938C62.6432 76.612 62.238 77.2368 61.9784 77.9257C61.9598 77.9679 61.9588 78.0158 61.9756 78.0588C61.9924 78.1018 62.0256 78.1364 62.0678 78.1549C62.1101 78.1734 62.158 78.1744 62.201 78.1577C62.244 78.1409 62.2785 78.1077 62.2971 78.0654C62.6353 77.2818 63.172 76.5999 63.8543 76.087C64.5365 75.5741 65.3406 75.248 66.1874 75.1407C67.0341 75.0335 67.8942 75.1488 68.6828 75.4754C69.4713 75.802 70.1611 76.3286 70.6841 77.0031C70.7211 77.055 70.7773 77.09 70.8402 77.1005C70.9031 77.111 70.9676 77.0961 71.0195 77.059C71.0714 77.0219 71.1065 76.9658 71.117 76.9028C71.1275 76.8399 71.1125 76.7754 71.0754 76.7235C70.4313 75.8706 69.5463 75.2304 68.5346 74.8856C67.523 74.5407 66.4312 74.5071 65.4003 74.7889C65.5646 73.8986 65.9074 73.0508 66.408 72.2965C66.9087 71.5422 67.5568 70.897 68.3133 70.3997C69.2281 69.8133 70.2769 69.4689 71.3613 69.3988C72.4456 69.3288 73.53 69.5354 74.5127 69.9994C75.4953 70.4633 76.3439 71.1693 76.9789 72.0511C77.6139 72.9329 78.0144 73.9615 78.1429 75.0405C78.155 75.0963 78.1869 75.1457 78.2328 75.1796C78.2787 75.2135 78.3353 75.2295 78.3921 75.2247C78.4489 75.2199 78.5021 75.1946 78.5416 75.1535C78.5811 75.1124 78.6044 75.0584 78.607 75.0014C78.4588 73.7706 77.9826 72.6023 77.2281 71.6186C76.4737 70.635 75.4687 69.8722 74.3184 69.4101C74.6915 68.4256 75.311 67.5534 76.1177 66.8769C76.9244 66.2004 77.8912 65.7423 78.9257 65.5465C82.191 65.0433 84.9922 67.5538 85.406 70.5116C84.5506 70.6532 83.7383 70.9869 83.0304 71.4876C82.3225 71.9882 81.7373 72.6429 81.3187 73.4023C81.2181 73.5924 81.5256 73.7601 81.6319 73.5756C82.2424 72.5437 83.1749 71.7408 84.2861 71.2903C85.3972 70.8398 86.6255 70.7666 87.7823 71.0819C88.8953 71.4364 89.8638 72.1415 90.543 73.0918C91.2222 74.0421 91.5758 75.1867 91.5509 76.3545C91.5509 76.5055 91.7522 76.6956 91.9031 76.5893C91.9646 76.5502 92.1435 76.4216 91.959 75.3089H91.9534ZM59.6076 14.9897C63.4433 14.3188 67.4355 14.2014 72.943 14.6095C73.8264 22.2081 73.955 29.365 74.0948 37.0084C73.0212 34.6376 71.9309 31.1766 71.9477 28.7891C71.9425 26.0118 71.2673 23.2767 69.9795 20.8159C68.4475 17.8916 66.3731 15.8229 64.1143 18.2495C60.9831 21.6043 61.2068 25.6524 61.2683 30.1422C61.0608 32.1388 60.6314 34.1061 59.9879 36.0075C59.7922 26.6868 59.2498 19.8207 59.6076 14.9897ZM82.0177 50.6288C81.6064 50.5645 81.1876 50.5645 80.7764 50.6288L80.8323 46.2229C80.8487 46.1231 80.8421 46.0208 80.813 45.9239C80.784 45.827 80.7332 45.7381 80.6646 45.6637C79.3842 44.5902 75.8001 41.1348 74.6148 38.0539C74.6148 34.811 74.5644 31.5233 74.4358 28.2803C77.2706 28.1964 79.9209 28.23 82.1519 28.2803C82.3755 33.7319 81.9562 43.2595 82.0177 50.6288ZM59.6859 65.5856C58.554 65.334 57.3768 65.3722 56.2635 65.6967C55.1502 66.0212 54.1369 66.6215 53.3174 67.4419C53.2783 66.2398 53.0323 58.7698 52.9484 56.4214L59.3001 56.2984C59.2834 57.4335 59.5797 64.4897 59.6859 65.5856ZM72.0651 32.6471C73.0883 36.8798 74.9223 41.4032 80.3459 46.0048C80.3459 47.5145 80.1725 51.3333 80.2732 52.7871C80.1613 52.7871 71.9309 52.843 71.3271 52.8933C71.9526 46.1638 72.199 39.4044 72.0651 32.6471ZM61.3913 32.731C61.7659 39.5804 62.4536 46.3962 63.4433 53.0163C62.0734 52.9828 55.649 52.7871 54.7152 52.8318C54.7152 51.9148 54.486 46.6366 54.4636 46.1222C58.0248 42.4263 60.4321 37.773 61.3913 32.731ZM59.7139 56.2872C60.1165 56.2872 61.0055 56.3823 60.9552 55.9853C60.7038 55.1111 60.3609 54.2658 59.9319 53.4636L63.4992 53.514C63.5831 54.0284 63.6614 54.5428 63.7396 55.0572C63.214 55.6163 62.1517 58.8593 62.0063 59.4463C61.9952 59.4854 61.9934 59.5265 62.0012 59.5663C62.0089 59.6062 62.026 59.6436 62.0511 59.6756C62.1852 59.8433 62.5375 59.8657 62.9121 59.8657C61.285 62.4433 62.1685 65.6303 62.7891 67.2015C62.0153 66.5231 61.109 66.0128 60.1276 65.703C60.2562 64.6798 59.7866 57.2266 59.7195 56.2872H59.7139ZM62.5766 62.3482C62.695 61.4851 62.9758 60.6523 63.4042 59.8936C65.9834 59.9971 68.5662 59.9691 71.1425 59.8098C71.4501 61.0231 74.2513 64.2046 70.7735 68.9851C69.8297 69.1131 68.9233 69.438 68.1132 69.9389C67.3031 70.4398 66.6074 71.1054 66.0712 71.8926C64.0919 68.9013 62.0734 65.9491 62.5822 62.3482H62.5766ZM71.5731 38.7417C71.4892 44.3777 71.1425 49.3149 70.7288 54.7161L64.1478 54.8894C62.9065 46.2956 62.3754 40.1451 61.9113 33.0833C61.7827 31.0816 61.6541 29.0072 61.6988 26.9775C61.7715 23.4941 62.4816 21.0116 63.9353 19.1497C65.9929 16.5274 67.6591 17.6959 69.2918 20.5978C70.2294 22.2729 70.8742 24.0958 71.1984 25.9879C71.7017 28.8395 71.601 37.1146 71.5787 38.7417H71.5731ZM73.9214 69.2647C73.1171 69.0041 72.2723 68.8905 71.4277 68.9292C72.3684 67.6 72.8925 66.0211 72.9334 64.3932C72.9742 62.7653 72.5299 61.1621 71.6569 59.7874C72.0204 59.7874 72.9877 59.7874 72.8759 59.4463C72.6857 58.8089 72.149 57.4838 71.7185 56.4158C71.4389 55.7113 71.1593 55.1019 71.1593 54.9397C71.1929 54.6434 71.3271 53.3238 71.3271 53.3238C71.8471 53.4077 74.3352 53.3238 75.1795 53.3238C74.4694 55.5604 74.5644 55.2808 74.4135 55.6666C74.3016 55.963 74.2457 56.1083 74.3184 56.2257C74.3911 56.3432 74.6874 56.3376 75.4367 56.3543C75.4367 59.5805 75.7107 63.3099 75.8504 66.525C74.9445 67.2203 74.2733 68.1765 73.927 69.2647H73.9214ZM75.7945 56.3488L82.163 56.4103C81.9603 59.4546 81.9715 62.5093 82.1966 65.5521C81.2368 65.1311 80.1843 64.966 79.1417 65.0728C78.0991 65.1796 77.1019 65.5547 76.2474 66.1615C76.13 62.8906 76.0405 59.5302 75.8001 56.3488H75.7945ZM59.6356 14.5704C60.0214 10.047 61.5087 3.99162 66.3452 0.513818C70.9972 3.70646 72.2664 9.158 72.8814 14.0951C68.9172 13.8044 63.3371 13.8435 59.6412 14.5704H59.6356ZM52.0873 29.0128C53.3901 29.0128 58.2378 28.9457 59.356 28.9401C59.4567 31.6239 59.5592 34.3115 59.6636 37.0028C58.6292 39.6866 56.3088 43.813 54.1337 45.8371C54.0219 46.3962 54.1673 49.997 54.1952 50.6456C53.7871 50.6847 53.3789 50.7239 52.9987 50.7798C52.7751 43.2539 52.0873 33.5306 52.0873 29.0128Z" fill="black"/>
<path d="M25.0198 16.3708C23.5045 16.2534 23.1187 15.1519 22.7832 15.2525C22.6938 15.2525 22.6546 15.37 22.6323 15.4315C22.157 16.4659 22.7609 17.7519 23.8176 17.7519C24.1427 17.717 24.4522 17.5946 24.7131 17.3977C24.9741 17.2007 25.1767 16.9366 25.2993 16.6336C25.3178 16.5951 25.3235 16.5516 25.3157 16.5096C25.3078 16.4676 25.2868 16.4292 25.2557 16.3999C25.2245 16.3707 25.1849 16.3521 25.1425 16.3468C25.1001 16.3416 25.0571 16.35 25.0198 16.3708ZM24.7514 16.7566C23.9965 17.763 22.8 17.3157 22.9174 15.9347C23.1494 16.1914 23.4322 16.3971 23.7479 16.5386C24.0637 16.6801 24.4054 16.7543 24.7514 16.7566ZM67.1839 40.8161C67.1749 40.7565 67.1449 40.7021 67.0993 40.6628C67.0536 40.6235 66.9953 40.6018 66.9351 40.6018C66.8748 40.6018 66.8166 40.6235 66.7709 40.6628C66.7253 40.7021 66.6952 40.7565 66.6863 40.8161C66.6863 41.6603 66.9658 52.077 67.1224 53.2064C67.1224 53.2598 67.1436 53.311 67.1814 53.3488C67.2191 53.3865 67.2703 53.4077 67.3237 53.4077C67.3771 53.4077 67.4283 53.3865 67.466 53.3488C67.5038 53.311 67.525 53.2598 67.525 53.2064C67.7766 49.6503 67.3013 44.5007 67.1839 40.8161ZM23.0125 13.7373C23.1914 13.7373 23.2473 13.5472 23.2082 13.3515C23.1299 12.9601 22.8168 12.9377 22.7385 13.1614C22.6602 13.385 22.772 13.7373 23.0125 13.7373ZM22.4198 11.3722C22.168 11.4222 21.9412 11.5573 21.7773 11.7548C21.6133 11.9523 21.5224 12.2002 21.5196 12.4569C21.5643 12.7476 21.8047 12.7476 21.8439 12.5352C21.9613 11.9369 22.2129 11.976 22.526 11.7859C22.5711 11.7639 22.6073 11.727 22.6283 11.6814C22.6494 11.6358 22.6541 11.5844 22.6416 11.5357C22.6291 11.4871 22.6002 11.4443 22.5598 11.4145C22.5194 11.3847 22.4699 11.3697 22.4198 11.3722ZM79.5295 63.9306C79.5295 64.0368 79.7364 64.0033 79.7588 63.897C79.8482 63.5168 79.4345 59.1835 79.5016 58.0094C79.5016 57.8584 79.2779 57.864 79.2668 58.0094C79.1635 59.987 79.2515 61.9699 79.5295 63.9306ZM66.6695 68.4763C66.7813 68.5602 66.9547 68.426 66.882 68.303C66.6695 67.9284 66.3676 67.6376 66.0489 67.0617C65.5597 66.1491 65.2775 65.1399 65.2224 64.1059C65.1674 63.0719 65.3407 62.0384 65.7302 61.079C65.7917 60.9392 65.568 60.8554 65.5009 61.0007C65.0256 62.0916 64.8323 63.2846 64.9389 64.4697C65.0453 65.6549 65.4482 66.7943 66.1104 67.783C66.2599 68.0415 66.4485 68.2754 66.6695 68.4763Z" fill="black"/>
</svg>
