<svg width="105" height="160" viewBox="0 0 105 160" fill="none" xmlns="http://www.w3.org/2000/svg">
<path d="M0.00423312 144.996C-0.105767 138.766 1.94423 126.026 4.26423 120.226C9.64423 106.766 20.5242 104.906 32.8342 100.986C37.9542 112.256 60.6942 115.336 68.7442 106.696C69.6742 105.696 70.7642 103.936 70.8042 102.536C70.8342 101.576 69.9742 102.146 69.4142 102.016C69.5142 101.846 69.4742 101.476 69.7642 101.326C75.1842 103.556 81.0142 104.656 86.2942 107.406C100.444 114.786 102.504 130.316 104.634 144.646C104.564 145.696 102.594 146.106 101.864 145.856C101.824 145.846 101.694 145.336 101.284 145.246C97.3142 144.426 93.7542 145.096 89.7842 145.166C90.0142 143.406 89.5542 141.706 89.4442 139.986C89.4142 139.526 89.4742 139.066 89.4442 138.606C89.4142 138.146 89.4742 137.686 89.4442 137.226C89.4242 136.886 89.4642 136.536 89.4442 136.186C89.3642 134.816 89.1242 133.566 89.0942 132.046C89.0942 131.926 89.0942 131.816 89.0942 131.696C89.0942 131.466 89.1242 131.226 89.0942 131.006C89.0642 130.716 89.0942 130.416 88.7442 130.316C88.7042 129.866 88.7642 129.396 88.7442 128.936C88.7242 128.596 88.7842 128.226 88.7442 127.896C88.6642 127.276 88.0642 124.426 87.0242 125.486C86.5742 125.936 87.6842 131.616 87.3642 132.736C87.3642 133.076 87.3642 133.426 87.3642 133.776C87.3642 135.056 87.6742 136.226 87.7142 137.576C87.7242 138.146 87.7042 138.726 87.7142 139.306C87.7142 139.416 87.7142 139.536 87.7142 139.656C87.7142 139.886 87.7142 140.116 87.7142 140.346C87.7642 142.026 87.9942 143.626 88.0642 145.176C88.0842 145.746 88.0442 146.326 88.0642 146.906C88.0642 147.016 88.0642 147.136 88.0642 147.256C88.0842 147.716 88.0442 148.176 88.0642 148.636C88.2042 152.086 88.3642 155.536 88.4142 158.986C67.3642 159.056 46.2942 159.016 25.2542 158.986C25.6942 158.346 25.5742 157.636 25.6042 156.916C25.6042 156.686 25.6042 156.456 25.6042 156.226C25.6042 156.106 25.6042 155.996 25.6042 155.876C25.6342 153.556 25.8942 150.106 25.6042 147.936C26.5142 147.556 27.4442 147.506 27.6642 146.376C28.0142 144.616 27.8642 141.326 27.6642 139.496C27.6442 137.016 27.7342 134.536 27.6842 132.066C27.6842 131.726 27.6942 131.376 27.6842 131.026C27.6442 130.146 27.8742 129.076 27.5042 128.266C27.0842 127.346 26.2942 127.616 26.0342 128.506C25.3842 130.656 26.3642 135.146 25.9642 137.576C25.9642 137.916 25.9642 138.266 25.9642 138.616C25.9642 138.726 25.9642 138.846 25.9642 138.966C25.9442 139.886 25.9642 140.806 25.9642 141.726C25.9642 142.646 25.9442 143.566 25.9642 144.486C25.9642 144.926 25.9042 145.456 25.9642 145.866C23.3242 145.856 20.6642 145.886 18.0242 145.866C17.4542 145.866 16.8742 145.876 16.2942 145.866C16.0642 145.866 15.8342 145.866 15.6042 145.866C15.1442 145.866 14.6842 145.866 14.2242 145.866C11.3242 145.806 8.58423 145.456 5.59423 145.516C5.25423 145.516 4.90423 145.506 4.55423 145.516C3.46423 145.556 0.874233 145.116 1.79423 146.556C0.534233 146.296 0.0742331 146.966 0.0342331 145.006L0.00423312 144.996ZM51.1642 121.046C51.0342 121.126 50.4742 122.576 51.1142 122.726C51.0842 122.946 51.1142 123.196 51.1142 123.416C51.1842 126.696 53.5042 131.526 53.8942 134.956L52.5042 135.496C52.0442 135.466 51.5842 135.506 51.1242 135.496C50.1542 135.466 49.2842 135.516 48.3642 135.846C48.0242 135.836 47.6742 135.846 47.3242 135.846C42.1242 135.876 42.4742 137.766 45.9442 140.676C46.5742 141.426 47.0842 141.796 47.6742 142.406C47.8242 143.466 48.9242 144.206 49.7442 144.826C51.7442 147.066 53.8642 149.236 55.9542 151.386C56.3042 151.746 56.6442 152.076 56.9942 152.426C58.1642 153.616 59.1342 154.796 60.4442 155.876C60.7342 156.116 60.8342 156.736 61.4842 156.916C61.6042 156.946 62.0642 156.946 62.1742 156.916C62.4842 156.816 62.7242 156.676 62.8142 156.346C63.3342 154.476 59.9942 147.256 59.7542 144.836C60.8842 143.796 69.4042 145.156 70.0642 144.106C70.3642 143.626 69.9942 142.476 69.7242 141.946C69.1342 140.806 65.9842 137.256 64.9342 136.206C64.7442 135.516 64.4142 135.246 63.8942 134.826C63.7742 134.726 63.6642 134.596 63.5442 134.476C63.1842 133.556 62.2042 132.506 61.4742 131.716C61.3642 131.596 61.2342 131.486 61.1242 131.366C60.6342 130.086 59.5742 129.196 58.7042 128.256C58.5942 128.136 58.4742 128.026 58.3542 127.906C58.1742 126.916 57.3142 126.186 56.6242 125.486C56.5142 125.366 56.3942 125.256 56.2742 125.136C55.6942 123.756 52.8742 119.956 51.1442 121.036L51.1642 121.046Z" fill="#FDB227"/>
<path d="M3.48428 147.237C3.49428 148.927 1.89428 158.327 2.84428 158.927C9.95428 159.027 17.0843 158.967 24.1943 158.977C23.7843 158.497 23.5443 158.087 23.4843 157.437C23.1943 154.317 23.7343 150.747 23.5043 147.577C18.0243 147.617 12.5443 147.677 7.10428 147.237C5.97428 147.147 4.49428 147.417 3.48428 147.237Z" fill="#FDA780"/>
<path d="M89.7742 146.887C89.7742 146.997 89.7742 147.117 89.7742 147.237C89.7942 148.317 90.1042 149.187 90.1342 150.157C90.2242 152.977 90.0442 155.817 90.1242 158.627C90.4342 158.627 91.2242 158.997 92.0042 158.987C93.4942 158.987 102.004 159.217 102.404 158.647C102.994 157.797 102.154 148.177 101.864 146.547L89.7842 146.897L89.7742 146.887Z" fill="#FDA780"/>
<path d="M32.8242 100.987C37.9442 112.257 60.6842 115.337 68.7342 106.697C69.6642 105.697 70.7542 103.937 70.7942 102.537C70.8242 101.577 69.9642 102.147 69.4042 102.017C68.9142 102.817 68.3542 103.537 68.0242 104.437C67.9742 104.557 68.6842 104.217 67.6742 105.127C67.2742 105.487 66.9442 105.877 66.6342 106.167C66.8142 107.037 66.3542 106.917 65.5942 106.857C65.4642 106.957 65.3742 107.107 65.2442 107.207C59.6542 111.267 51.2642 110.937 44.8642 108.757C44.3042 108.567 43.6442 108.817 43.8442 107.897C43.7342 107.867 43.6042 107.927 43.4942 107.897C43.0042 107.747 40.9042 107.217 40.7942 107.127C40.6142 106.977 40.7742 106.547 40.7242 106.517C38.4742 104.517 35.8342 103.357 34.5142 100.307C33.9442 100.517 33.3742 100.817 32.7842 100.997L32.8242 100.987Z" fill="#231B25"/>
<path d="M89.4342 139.987C88.9442 141.027 88.5442 145.507 89.9542 145.507H100.484C100.534 146.317 100.604 146.117 99.9742 146.197C98.4242 146.397 90.1942 145.887 89.7842 146.197C89.7642 146.427 89.8042 146.657 89.7842 146.887L101.864 146.537C101.824 146.327 101.894 146.067 101.864 145.847C101.824 145.837 101.694 145.327 101.284 145.237C97.3142 144.417 93.7542 145.087 89.7842 145.157C90.0142 143.397 89.5542 141.697 89.4442 139.977L89.4342 139.987Z" fill="#140E19"/>
<path d="M89.7742 147.236L89.4242 158.626C88.7642 158.506 88.9142 158.076 88.8442 157.646C88.4642 155.266 88.8142 152.296 88.7342 149.816C88.7142 149.156 89.0842 148.426 88.0442 148.626C88.1842 152.076 88.3442 155.526 88.3942 158.976C89.1242 158.976 89.8242 158.636 90.1242 158.626C90.0442 155.816 90.2242 152.976 90.1342 150.156C90.1042 149.186 89.7942 148.316 89.7742 147.236Z" fill="#140E19"/>
<path d="M1.75429 146.547C2.60429 146.727 3.38429 147.217 3.48429 147.237C4.49429 147.427 5.97429 147.147 7.10429 147.237C12.5443 147.677 18.0243 147.617 23.5043 147.577C23.7343 150.747 23.1943 154.317 23.4843 157.437C23.5443 158.087 23.7843 158.497 24.1943 158.977C24.5443 158.977 24.8843 158.977 25.2343 158.977C25.6743 158.337 25.5543 157.627 25.5843 156.907L25.3043 157.147L25.2343 158.637H24.2043V147.587C16.9143 146.787 9.35429 147.587 2.11429 146.207L4.52429 145.517C3.43429 145.557 0.844286 145.117 1.76429 146.557L1.75429 146.547Z" fill="#140E19"/>
<path d="M56.2943 125.147C55.7343 124.577 54.4443 123.617 53.8643 122.917C53.1343 122.047 53.7443 121.387 51.4643 121.347C51.6943 121.887 51.1443 122.477 51.1143 122.727C51.0843 122.947 51.1143 123.197 51.1143 123.417C52.1143 123.207 51.7443 123.907 51.9043 124.507C52.7943 127.897 53.4943 131.317 54.4643 134.687C54.3543 136.747 53.3343 135.547 52.4943 135.497C52.0343 135.467 51.5743 135.507 51.1143 135.497C51.4643 136.527 49.7943 136.267 48.8643 136.177C48.3043 136.127 48.3843 135.847 48.3543 135.847C48.0143 135.837 47.6643 135.847 47.3143 135.847C46.7143 137.087 44.9243 136.367 43.8643 136.537C43.3243 137.047 45.4843 140.147 45.9343 140.677C46.5643 141.427 47.0743 141.797 47.6643 142.407C48.4743 143.257 48.9443 143.947 49.7343 144.827C51.7343 147.067 53.8543 149.237 55.9443 151.387L56.9843 152.427C58.1543 153.617 59.1243 154.797 60.4343 155.877L61.4743 156.917C61.5943 156.947 62.0543 156.947 62.1643 156.917C62.3943 153.577 60.6543 150.437 59.9143 147.257C59.7543 146.577 59.2543 145.287 59.7443 144.837C60.8743 143.797 69.3943 145.157 70.0543 144.107C70.3543 143.627 69.9843 142.477 69.7143 141.947C69.1243 140.807 65.9743 137.257 64.9243 136.207C64.8043 136.087 63.9143 136.167 63.8843 134.827C63.7643 134.727 63.6543 134.597 63.5343 134.477C63.0043 133.947 63.1543 134.157 62.5243 133.347C62.1243 132.837 61.1843 132.837 61.4643 131.717C61.3543 131.597 61.2243 131.487 61.1143 131.367C60.8843 131.117 59.5143 129.977 59.1443 129.537C58.9043 129.247 58.9243 128.617 58.6943 128.267C58.5843 128.147 58.4643 128.037 58.3443 127.917C58.2043 127.767 57.0243 126.867 56.7043 126.437C56.4943 126.157 56.6043 125.807 56.6143 125.497C56.5043 125.377 56.3843 125.267 56.2643 125.147H56.2943Z" fill="#231B25"/>
<path d="M27.6442 131.016C25.9442 131.146 27.9342 127.876 26.2642 128.256C26.1742 131.076 26.3742 133.916 26.2742 136.736C26.2542 137.186 25.9142 137.526 25.9142 137.576C25.9142 137.916 25.9142 138.266 25.9142 138.616L26.2542 138.786L25.9142 138.956C25.8942 139.876 25.9142 140.796 25.9142 141.716C26.1042 141.746 26.5642 141.656 26.6042 141.716C26.7042 141.846 26.9542 145.056 25.9142 144.476C25.9142 144.916 25.8542 145.446 25.9142 145.856C25.9142 145.896 26.4142 146.106 26.2542 146.546C23.6842 146.206 20.1942 147.326 17.9742 145.856C17.4042 145.856 16.8242 145.866 16.2442 145.856L15.7342 146.196L15.5542 145.856C15.0942 145.856 14.6342 145.856 14.1742 145.856C11.9442 146.436 9.08424 146.276 6.73424 146.206C6.07424 146.186 5.34424 146.556 5.54424 145.516C5.20424 145.516 4.85424 145.506 4.50424 145.516L2.09424 146.206C9.33424 147.596 16.8942 146.786 24.1842 147.586V158.636H25.2142L25.2842 157.146L25.5642 156.906C25.5642 156.676 25.5642 156.446 25.5642 156.216L25.2242 156.046L25.5642 155.876C25.5942 153.556 25.8542 150.106 25.5642 147.936C25.5642 147.896 25.0042 147.446 25.2242 147.246C25.3342 147.146 26.6042 147.196 26.8842 146.826C27.5142 145.966 27.3742 136.436 27.3142 134.636C27.2942 133.946 26.3242 131.816 27.6442 132.066C27.6442 131.726 27.6542 131.376 27.6442 131.026V131.016Z" fill="#231B25"/>
<path d="M88.7343 127.907C87.1343 128.127 88.9243 125.467 87.3543 125.837C87.2743 127.807 87.7643 129.567 87.7243 131.577C87.7143 132.207 87.3543 132.677 87.3543 132.747C87.3543 133.087 87.3543 133.437 87.3543 133.787C88.4443 134.287 88.2643 136.777 87.7043 137.587C87.7143 138.157 87.6943 138.737 87.7043 139.317L88.0443 139.487L87.7043 139.657C87.7043 139.887 87.7043 140.117 87.7043 140.347C87.8943 140.377 88.3543 140.287 88.3943 140.347C88.5443 140.547 88.5443 144.697 88.0543 145.177C88.0743 145.747 88.0343 146.327 88.0543 146.907L88.3943 147.077L88.0543 147.247C88.0743 147.707 88.0343 148.167 88.0543 148.627C89.0943 148.437 88.7243 149.157 88.7443 149.817C88.8243 152.297 88.4743 155.267 88.8543 157.647C88.9243 158.077 88.7743 158.517 89.4343 158.627L89.7843 147.237C89.7843 147.127 89.7843 147.007 89.7843 146.887C89.8043 146.657 89.7643 146.427 89.7843 146.197C90.1943 145.887 98.4243 146.397 99.9743 146.197C100.604 146.117 100.534 146.317 100.484 145.507H89.9543C88.5543 145.507 88.9443 141.027 89.4343 139.987C89.4043 139.527 89.4643 139.067 89.4343 138.607C88.3943 138.797 88.7643 138.077 88.7443 137.417C88.6443 134.637 88.0943 131.567 88.7443 128.947C88.7243 128.607 88.7843 128.237 88.7443 127.907H88.7343Z" fill="#231B25"/>
<path d="M51.1143 123.417C51.1843 126.697 53.5043 131.527 53.8943 134.957L52.5043 135.497C53.3443 135.557 54.3643 136.747 54.4743 134.687C53.5043 131.317 52.8043 127.897 51.9143 124.507C51.7543 123.907 52.1243 123.207 51.1243 123.417H51.1143Z" fill="#140E19"/>
<path d="M27.6442 132.047C26.3242 131.797 27.2842 133.927 27.3142 134.617C27.3742 136.417 27.5242 145.957 26.8842 146.807C26.6142 147.177 25.3442 147.127 25.2242 147.227C25.0042 147.427 25.5642 147.877 25.5642 147.917C26.4742 147.537 27.4042 147.487 27.6242 146.357C27.9742 144.597 27.8242 141.307 27.6242 139.477C27.6042 136.997 27.6942 134.517 27.6442 132.047Z" fill="#140E19"/>
<path d="M17.9843 145.857C20.2143 147.327 23.6943 146.207 26.2643 146.547C26.4143 146.107 25.9243 145.897 25.9243 145.857C23.2843 145.847 20.6243 145.877 17.9843 145.857Z" fill="#140E19"/>
<path d="M5.55415 145.507C5.36415 146.547 6.08415 146.177 6.74415 146.197C9.08415 146.277 11.9542 146.427 14.1842 145.847C11.2842 145.787 8.54415 145.437 5.55415 145.497V145.507Z" fill="#140E19"/>
<path d="M88.7343 128.937C88.0843 131.557 88.6343 134.627 88.7343 137.407C88.7543 138.067 88.3843 138.787 89.4243 138.597C89.3943 138.137 89.4543 137.677 89.4243 137.217C88.9043 137.167 88.9043 136.227 89.4243 136.177C89.3443 134.807 89.1043 133.557 89.0743 132.037L88.7343 131.867L89.0743 131.697C89.0743 131.467 89.1043 131.227 89.0743 131.007C88.7343 130.917 88.7543 130.607 88.7243 130.317C88.6843 129.867 88.7443 129.397 88.7243 128.937H88.7343Z" fill="#140E19"/>
<path d="M62.1643 156.896C62.4743 156.796 62.7144 156.656 62.8044 156.326C63.3244 154.456 59.9844 147.236 59.7444 144.816C59.2544 145.266 59.7543 146.556 59.9143 147.236C60.6543 150.416 62.3943 153.556 62.1643 156.896Z" fill="#140E19"/>
<path d="M25.9243 137.567C25.9243 137.567 26.2643 137.177 26.2843 136.727C26.3843 133.907 26.1743 131.057 26.2743 128.247C27.9443 127.867 25.9543 131.127 27.6543 131.007C27.6143 130.127 27.8443 129.057 27.4743 128.247C27.0543 127.327 26.2643 127.597 26.0043 128.487C25.3543 130.637 26.3343 135.127 25.9343 137.557L25.9243 137.567Z" fill="#140E19"/>
<path d="M88.7342 127.907C88.6542 127.287 88.0542 124.437 87.0142 125.497C86.5642 125.947 87.6742 131.627 87.3542 132.747C87.3542 132.687 87.7142 132.207 87.7242 131.577C87.7642 129.577 87.2742 127.817 87.3542 125.837C88.9242 125.467 87.1342 128.127 88.7342 127.907Z" fill="#140E19"/>
<path d="M87.7042 140.327C87.7542 142.007 87.9842 143.607 88.0542 145.157C88.5442 144.677 88.5442 140.517 88.3942 140.327C88.3542 140.267 87.8942 140.357 87.7042 140.327Z" fill="#140E19"/>
<path d="M25.9242 141.717C25.9242 142.637 25.9042 143.557 25.9242 144.477C26.9642 145.057 26.7142 141.847 26.6142 141.717C26.5742 141.657 26.1142 141.747 25.9242 141.717Z" fill="#140E19"/>
<path d="M56.2941 125.147C55.7141 123.767 52.8941 119.967 51.1641 121.047C51.0341 121.127 50.4741 122.577 51.1141 122.727C51.1441 122.477 51.6941 121.887 51.4641 121.347C53.7341 121.397 53.1341 122.047 53.8641 122.917C54.4441 123.607 55.7341 124.567 56.2941 125.147Z" fill="#140E19"/>
<path d="M87.7042 137.567C88.2642 136.757 88.4442 134.267 87.3542 133.767C87.3542 135.047 87.6642 136.217 87.7042 137.567Z" fill="#140E19"/>
<path d="M48.3542 135.847C48.3542 135.847 48.3042 136.127 48.8642 136.177C49.7942 136.267 51.4642 136.527 51.1142 135.497C50.1442 135.467 49.2742 135.517 48.3542 135.847Z" fill="#140E19"/>
<path d="M45.9342 140.677C45.4842 140.147 43.3242 137.047 43.8642 136.537C44.9242 136.367 46.7142 137.087 47.3142 135.847C42.1142 135.877 42.4642 137.767 45.9342 140.677Z" fill="#140E19"/>
<path d="M47.6643 142.406C47.8143 143.466 48.9143 144.206 49.7343 144.826C48.9443 143.946 48.4743 143.256 47.6643 142.406Z" fill="#140E19"/>
<path d="M61.4743 131.707C61.1843 132.827 62.1343 132.827 62.5343 133.337C63.1743 134.147 63.0143 133.937 63.5443 134.467C63.1843 133.547 62.2043 132.497 61.4743 131.707Z" fill="#140E19"/>
<path d="M56.6343 125.486C56.6243 125.796 56.5143 126.146 56.7243 126.426C57.0443 126.846 58.2143 127.756 58.3643 127.906C58.1843 126.916 57.3243 126.186 56.6343 125.486Z" fill="#140E19"/>
<path d="M58.7144 128.246C58.9444 128.606 58.9244 129.226 59.1644 129.516C59.5344 129.966 60.9044 131.096 61.1344 131.346C60.6444 130.066 59.5844 129.176 58.7144 128.236V128.246Z" fill="#140E19"/>
<path d="M63.8843 134.807C63.9143 136.147 64.7943 136.067 64.9243 136.187C64.7343 135.497 64.4043 135.227 63.8843 134.807Z" fill="#140E19"/>
<path d="M89.4342 137.227C89.4142 136.887 89.4542 136.537 89.4342 136.187C88.9142 136.237 88.9142 137.177 89.4342 137.227Z" fill="#231B25"/>
<path d="M15.5642 145.857L15.7442 146.197L16.2542 145.857C16.0242 145.857 15.7942 145.857 15.5642 145.857Z" fill="#140E19"/>
<path d="M89.0841 131.016C89.0541 130.726 89.0841 130.426 88.7341 130.326C88.7541 130.616 88.7341 130.926 89.0841 131.016Z" fill="#231B25"/>
<path d="M61.4742 156.897L60.4342 155.857C60.7242 156.097 60.8242 156.717 61.4742 156.897Z" fill="#140E19"/>
<path d="M25.5743 156.207C25.5743 156.087 25.5743 155.977 25.5743 155.857L25.2343 156.027L25.5743 156.197V156.207Z" fill="#140E19"/>
<path d="M56.9843 152.417L55.9443 151.377C56.2943 151.737 56.6343 152.067 56.9843 152.417Z" fill="#140E19"/>
<path d="M89.0841 132.046C89.0841 131.926 89.0841 131.816 89.0841 131.696L88.7441 131.866L89.0841 132.036V132.046Z" fill="#231B25"/>
<path d="M88.0442 147.237L88.3842 147.067L88.0442 146.897C88.0442 147.007 88.0442 147.127 88.0442 147.247V147.237Z" fill="#140E19"/>
<path d="M25.9242 138.947L26.2642 138.777L25.9242 138.607C25.9242 138.717 25.9242 138.837 25.9242 138.957V138.947Z" fill="#140E19"/>
<path d="M87.7042 139.637L88.0442 139.467L87.7042 139.297C87.7042 139.407 87.7042 139.527 87.7042 139.647V139.637Z" fill="#140E19"/>
<path d="M78.3846 1.57691C76.8446 1.13691 74.9946 0.856907 73.3746 0.856907C67.2046 0.836907 58.4946 5.36691 53.1846 8.13691C52.9546 8.25691 52.7246 8.35691 52.4946 8.48691C52.5146 9.76691 51.0446 9.68691 50.5546 9.99691C49.6246 10.5769 48.5546 11.9369 47.3246 11.9369C47.2146 12.0569 47.0746 12.1469 46.9746 12.2869C46.8346 12.4769 47.3946 13.2569 45.9346 12.9769C45.8446 13.0869 45.6846 13.1869 45.5846 13.3269C45.5046 13.4369 45.1646 15.3969 44.8946 13.3269C44.8846 13.2169 44.8946 13.0969 44.8946 12.9769C43.8446 13.1669 44.2346 12.4469 44.2046 11.7869C44.0746 8.56691 44.2046 5.81691 43.5346 2.77691C43.4046 2.19691 43.5646 1.49691 43.5146 0.896907C43.4346 0.816907 41.7246 1.15691 41.3746 1.27691C41.2946 1.30691 40.1346 1.89691 40.0646 1.93691C39.4146 2.33691 39.4046 2.62691 39.0246 2.97691C39.2746 4.09691 38.3846 4.14691 37.8546 4.75691C37.4046 5.26691 37.9546 5.14691 36.9546 5.73691C35.8846 7.49691 34.1446 11.1269 33.5246 12.9069C33.2046 13.8369 32.2646 21.4869 30.1146 19.1069C29.9546 18.9369 30.0846 18.5469 30.0446 18.5069C29.6246 18.0969 29.3146 18.0569 29.0046 17.8169C26.4146 17.1469 24.2046 15.4469 21.4246 15.4069L21.1246 16.5869L21.7446 19.1869C22.7846 20.8269 23.8846 21.6869 25.1946 22.9869L25.8846 23.3369C26.1046 23.5769 26.8746 24.5069 26.9246 24.7169C26.9746 24.9069 26.9046 25.1869 26.9246 25.4069C26.3746 25.4769 25.7246 25.3269 25.1946 25.4069C25.0846 25.4269 24.9646 25.3869 24.8446 25.4069C24.9746 26.5369 22.6246 26.6669 21.7346 27.1369C21.6046 27.2269 21.5146 27.3869 21.3846 27.4869C21.2146 27.9669 20.8646 28.1869 20.3446 28.1769C19.3546 29.0069 18.7346 29.5669 17.9246 30.5969C18.1346 31.5969 17.7346 31.7069 16.8846 31.9769C16.8446 32.0769 16.9246 32.2169 16.8846 32.3269C16.6346 32.9969 15.8646 35.4569 15.8646 35.9969C15.8246 39.2569 20.8546 35.9569 22.4146 36.4669C22.5346 36.5069 22.7146 36.4169 22.7646 36.4669C23.4746 37.2469 23.0046 39.8769 23.1146 41.1269C23.2946 43.1269 23.5746 45.1669 23.8046 47.1669C23.8146 47.2769 23.7946 47.3969 23.8046 47.5169C24.5646 48.1569 24.5646 51.2169 24.9046 51.5969C25.0746 51.7969 28.9246 52.6669 29.8046 53.3569C30.2046 53.6669 29.9546 53.9669 30.0146 54.0769C30.0646 54.1669 29.9646 54.3469 30.0146 54.4269C30.0846 54.5369 30.2646 54.6369 30.3646 54.7769H30.7146C32.5246 54.5369 32.4346 56.9469 34.1646 56.8469L39.0046 30.2669C39.1146 30.2669 39.2346 30.2569 39.3546 30.2669L39.5246 29.9269L39.6946 30.2669C39.6946 30.2669 40.0546 30.8469 40.0446 30.9569H40.3946C41.8546 30.6669 41.2946 31.4769 41.4346 31.6469C41.5446 31.7769 41.6646 31.8769 41.7846 31.9969C41.9046 32.1169 42.0246 32.2169 42.1346 32.3469C42.2446 32.3769 42.3746 32.3069 42.4846 32.3469L43.1746 32.6969C43.2846 32.7369 43.6046 32.9369 43.8646 33.0469C46.5046 34.1269 49.3246 35.5769 52.3046 35.8269C53.0346 35.8869 53.8146 35.7969 54.5446 35.7969C54.5046 34.9869 54.9146 34.1969 54.9046 33.3969C54.9046 33.2869 54.9046 33.1669 54.9046 33.0469C53.8646 31.9469 53.2946 30.7769 53.1746 29.2469C53.1746 29.1369 53.1746 29.0169 53.1746 28.8969C53.1946 28.6669 53.0346 28.1969 53.3446 28.2069C54.1246 28.8869 56.0946 28.7569 55.9346 29.9269C56.2746 30.0569 56.6346 30.1469 56.9746 30.2769C58.4946 30.8569 60.1046 31.4169 61.6046 32.0469C62.1246 32.2669 62.6646 32.2769 62.4946 33.0369C62.5946 33.0669 62.7346 33.0069 62.8446 33.0369C64.6546 33.6069 66.4246 34.3269 68.3646 34.0769H68.7146C68.7446 33.9769 68.6846 33.8369 68.7146 33.7269C69.2746 31.7169 69.1146 29.7869 68.3646 27.8669C68.6546 27.8969 71.1046 26.7969 70.0946 28.2069C70.2046 28.2269 70.3346 28.1769 70.4446 28.2069C70.5546 28.2369 70.6846 28.1769 70.7946 28.2069C71.7646 28.4969 72.3546 28.8969 73.2146 29.2469C73.6046 29.4069 73.6746 29.4969 73.9046 29.5969C74.0046 29.6369 74.1546 29.5569 74.2546 29.5969C76.0046 30.3969 77.8246 31.2869 79.4346 32.3569C79.4946 32.3769 79.5246 32.7169 80.1246 32.7069C80.1546 32.7069 80.2646 32.3469 80.4646 32.3569C80.7746 33.5569 81.2246 35.0569 80.4646 36.1569C80.4846 36.4969 80.4446 36.8469 80.4646 37.1969C81.6546 38.3969 81.0546 40.5869 81.1546 42.1969C81.2846 44.2769 82.0546 46.8669 81.1546 48.9269C81.1746 49.1569 81.1346 49.3869 81.1546 49.6169C82.2946 49.0469 81.5146 51.9269 82.5346 50.9969C82.9646 50.6069 83.8946 42.0369 83.9346 40.8269C83.9946 39.0769 83.7046 37.7669 83.4646 36.0869C83.3746 35.4469 82.7946 34.9769 83.9246 35.1069C83.9046 34.9969 83.9246 34.8769 83.9246 34.7569C83.9146 34.5269 83.9246 34.2969 83.9246 34.0669C86.9846 35.0069 89.8246 35.0269 92.8946 34.0669L91.8546 30.6169C90.7246 29.1469 89.1746 27.7669 87.6846 26.6769C85.9746 25.4369 84.2546 24.8269 82.6246 23.8069C82.2846 23.5969 81.9546 23.6669 82.1946 23.0269C82.4346 22.3869 93.8346 19.5369 95.3146 18.5369C95.4446 18.4369 95.5446 18.2969 95.6646 18.1869L96.0146 16.1169C95.7546 15.7969 95.5946 15.6769 95.3246 15.4269C93.8746 15.2169 92.7746 14.1969 91.3646 13.6869C86.3446 11.8769 81.1346 12.1869 76.0846 12.5869C75.3546 12.6469 72.4746 12.6169 72.0446 12.3269C71.4046 11.8969 72.9346 10.6669 73.5746 10.5869C74.1346 10.4169 74.2946 9.89691 74.6146 9.54691C74.3646 8.07691 75.0146 8.68691 75.3046 8.50691C75.5046 8.38691 75.5446 8.41691 75.6546 8.15691C76.1346 7.00691 76.5946 6.64691 76.9946 5.79691C77.2746 5.20691 78.5946 1.83691 78.4146 1.59691L78.3846 1.57691Z" fill="#231B25"/>
<path d="M53.1846 8.13691C58.4946 5.36691 67.1946 0.836907 73.3746 0.856907C74.9946 0.856907 76.8446 1.14691 78.3846 1.57691C78.5646 1.81691 77.2446 5.18691 76.9646 5.77691C76.5646 6.62691 76.1046 6.98691 75.6246 8.13691C76.7046 7.19691 79.3746 3.00691 79.0946 1.80691C79.0046 1.42691 78.4146 1.61691 78.3846 1.58691C78.3346 1.53691 78.4746 1.07691 78.1646 0.876907C74.4246 -1.52309 65.7446 1.58691 61.9346 3.24691C58.9946 4.53691 55.7646 6.23691 53.1946 8.13691H53.1846Z" fill="#140E19"/>
<path d="M73.5546 10.5469C72.9146 10.6269 71.3846 11.8569 72.0246 12.2869C72.4546 12.5769 75.3346 12.5969 76.0646 12.5469C81.1146 12.1469 86.3246 11.8369 91.3446 13.6469C92.7546 14.1569 93.8446 15.1769 95.3046 15.3869C91.1046 11.3969 81.0446 11.1369 75.5046 11.6369C74.5046 11.7269 73.5246 12.1669 72.5346 12.2869L73.5646 10.5669L73.5546 10.5469Z" fill="#140E19"/>
<path d="M83.9046 35.0569C82.7746 34.9169 83.3446 35.3869 83.4446 36.0369C83.6946 37.7069 83.9746 39.0269 83.9146 40.7769C83.8746 41.9869 82.9446 50.5569 82.5146 50.9469C81.4946 51.8769 82.2746 48.9969 81.1346 49.5669C81.2446 51.0869 81.7446 52.5669 81.8246 53.7069C82.5746 53.0169 82.8346 51.9569 83.1046 51.0169C84.5446 46.0369 84.6746 40.0369 83.8946 35.0669L83.9046 35.0569Z" fill="#140E19"/>
<path d="M36.9646 5.71691C35.7146 6.45691 34.3346 9.34691 33.6846 10.8969C32.6546 13.3569 31.8946 16.0069 31.4346 18.6369L30.0546 18.4869C30.0546 18.4869 29.9646 18.9169 30.1246 19.0869C32.2746 21.4569 33.2046 13.8169 33.5346 12.8869C34.1546 11.1169 35.8846 7.47691 36.9646 5.71691C37.9646 5.12691 37.4146 5.24691 37.8646 4.73691C38.3946 4.12691 39.2846 4.07691 39.0346 2.95691C37.8746 4.03691 37.7446 4.43691 36.9646 5.71691Z" fill="#140E19"/>
<path d="M40.0746 1.92691C40.1446 1.88691 41.3046 1.29691 41.3846 1.26691C41.7346 1.14691 43.4446 0.806907 43.5246 0.886907C43.5746 1.48691 43.4146 2.18691 43.5446 2.76691C44.2246 5.80691 44.0946 8.55691 44.2146 11.7769C44.2446 12.4369 43.8546 13.1669 44.9046 12.9669C44.7746 10.5369 45.0746 7.96691 44.9046 5.54691C44.6446 1.91691 44.0446 -1.96309 40.0746 1.91691V1.92691Z" fill="#140E19"/>
<path d="M82.1846 22.9769C86.3146 22.2269 91.9546 21.0869 95.3046 18.4869C93.8246 19.4869 82.4246 22.3269 82.1846 22.9769Z" fill="#140E19"/>
<path d="M16.9446 32.2969C15.7946 32.8469 14.7246 37.0869 15.6446 37.7469C16.7446 38.5269 21.4046 37.6369 22.4746 36.4369C20.9246 35.9269 15.8946 39.2269 15.9246 35.9669C15.9246 35.4269 16.7046 32.9669 16.9446 32.2969Z" fill="#140E19"/>
<path d="M91.8446 30.5669L92.8846 34.0169C89.8146 34.9869 86.9746 34.9569 83.9146 34.0169C83.9146 34.2469 83.9046 34.4769 83.9146 34.7069C86.5146 35.1869 89.5546 36.0169 92.0946 34.7769C94.6346 33.5369 93.0546 32.1269 91.8446 30.5669Z" fill="#140E19"/>
<path d="M29.0246 17.7969C25.8846 15.3469 17.5146 12.4469 21.7746 19.1769L21.1546 16.5769L21.4546 15.3969C24.2246 15.4369 26.4346 17.1369 29.0346 17.8069L29.0246 17.7969Z" fill="#140E19"/>
<path d="M24.5346 52.3169C25.8946 52.2269 26.8246 52.2669 27.9846 53.0069C28.1146 53.0869 28.2146 53.2469 28.3346 53.3569L30.0646 54.0469C29.9946 53.9369 30.2546 53.6369 29.8546 53.3269C28.9646 52.6369 25.1246 51.7669 24.9546 51.5669C24.6146 51.1869 24.6146 48.1269 23.8546 47.4869C24.0046 48.8069 23.9846 51.0969 24.5446 52.3169H24.5346Z" fill="#140E19"/>
<path d="M23.8446 47.1369C23.6146 45.1369 23.3346 43.0969 23.1546 41.0969C23.0446 39.8569 23.5146 37.2169 22.8046 36.4369C22.6846 39.5769 22.9146 42.6969 23.2646 45.8069C23.3246 46.3569 23.2346 46.8069 23.8346 47.1369H23.8446Z" fill="#140E19"/>
<path d="M47.3246 11.9269C48.5546 11.9269 49.6246 10.5569 50.5546 9.98691C51.0446 9.68691 52.5146 9.75691 52.4946 8.47691C50.7546 9.39691 48.6846 10.4869 47.3146 11.9269H47.3246Z" fill="#140E19"/>
<path d="M21.7746 27.1169C22.6646 26.6469 25.0046 26.5169 24.8846 25.3869C23.6646 25.6169 22.7646 26.4569 21.7746 27.1169Z" fill="#140E19"/>
<path d="M25.2346 25.3969C25.7646 25.3169 26.4146 25.4669 26.9646 25.3969C26.9446 25.1769 27.0046 24.8969 26.9646 24.7069C26.3146 24.6969 25.6146 24.8069 25.2346 25.3969Z" fill="#140E19"/>
<path d="M16.9446 31.9469C17.7946 31.6769 18.1846 31.5669 17.9846 30.5669C17.5946 31.0669 17.2646 31.1069 16.9446 31.9469Z" fill="#140E19"/>
<path d="M45.9346 12.9669C47.3946 13.2469 46.8246 12.4669 46.9746 12.2769C46.3146 12.2369 46.2446 12.5769 45.9346 12.9669Z" fill="#140E19"/>
<path d="M75.2746 8.47691C74.9846 8.64691 74.3346 8.04691 74.5846 9.51691C74.8446 9.23691 75.3646 9.16691 75.2746 8.47691Z" fill="#140E19"/>
<path d="M20.3946 28.1569C20.9046 28.1569 21.2646 27.9469 21.4346 27.4669C21.1346 27.6869 20.9246 27.7169 20.3946 28.1569Z" fill="#140E19"/>
<path d="M44.9046 13.3169C45.1746 15.3869 45.5146 13.4269 45.5946 13.3169H44.9046Z" fill="#140E19"/>
<path d="M25.2346 22.9769C25.5746 23.3069 25.8946 23.2969 25.9246 23.3269L25.2346 22.9769Z" fill="#140E19"/>
<path d="M70.1046 28.1569C71.1246 26.7469 68.6646 27.8469 68.3746 27.8169C69.1246 29.7469 69.2746 31.6669 68.7246 33.6769H69.0746C69.1046 33.5669 69.0346 33.4269 69.0746 33.3269C69.1746 33.0669 69.3746 32.3569 69.4246 32.2869C70.1046 30.7869 69.1346 29.3169 69.0846 27.7969C69.5346 27.6469 69.8746 28.0969 70.1146 28.1369L70.1046 28.1569Z" fill="#140E19"/>
<path d="M80.1146 32.6369C79.9946 33.8269 80.3946 34.9169 80.4646 36.0869C81.2146 34.9869 80.7646 33.4869 80.4646 32.2869C80.2646 32.2769 80.1646 32.6369 80.1246 32.6369H80.1146Z" fill="#140E19"/>
<path d="M53.1846 28.8469C54.1346 29.1169 55.0146 29.5369 55.9446 29.8869C56.1046 28.7169 54.1246 28.8369 53.3546 28.1669C53.0446 28.1469 53.2046 28.6169 53.1846 28.8569V28.8469Z" fill="#140E19"/>
<path d="M54.9146 32.9869C54.8246 31.9769 53.9746 29.8269 53.1846 29.1869C53.3046 30.7169 53.8746 31.8869 54.9146 32.9869Z" fill="#140E19"/>
<path d="M39.3846 30.2269C39.5046 30.2369 39.6746 30.1869 39.7346 30.2269L39.5646 29.8869L39.3946 30.2269H39.3846Z" fill="#140E19"/>
<path d="M24.5342 52.3169C19.2242 52.6569 17.3942 58.4869 18.4842 63.0269C19.9942 69.3569 26.4942 73.1769 32.8042 71.6569C33.2742 73.4969 34.3242 75.6069 35.3042 77.2669C35.9642 78.3869 39.2742 82.3769 39.3742 82.8669C40.1342 86.8669 38.6242 92.6669 38.8842 96.8669C38.1942 99.1969 36.4942 99.5769 34.5442 100.297C35.8642 103.347 38.5042 104.517 40.7542 106.507L43.5142 107.887C43.6242 107.917 43.7542 107.857 43.8642 107.887C46.5842 108.687 49.2942 109.427 52.1442 109.617C53.4942 109.037 56.0442 109.047 57.3242 109.617C60.0042 109.357 62.7642 108.137 65.2642 107.197C65.3842 107.107 65.4842 106.947 65.6142 106.847C65.9342 106.607 66.6042 106.197 66.6542 106.157C66.9642 105.877 67.2942 105.487 67.6942 105.117L68.0442 104.427C68.3742 103.527 68.9342 102.807 69.4242 102.007C69.5242 101.837 69.4842 101.467 69.7742 101.317C69.0642 101.027 65.1842 99.1269 64.9142 98.7569C64.3342 97.9469 64.6442 96.4769 64.5942 95.4469C61.1742 96.2269 57.3642 95.8469 54.2442 94.4069C52.3142 93.5169 44.9242 89.3169 44.5742 87.3369C44.4742 86.7669 44.5942 86.7769 45.1042 86.8069C46.8542 86.8969 51.0542 89.7669 53.5542 90.2669C56.7342 90.9069 60.0142 90.3469 63.2142 90.6169C63.6142 90.5469 63.9342 90.3469 64.2542 90.2669C67.9242 89.4069 70.5342 88.7569 73.5742 86.2969C76.1142 84.2469 80.9242 78.3369 81.1642 75.0769C80.4742 74.9969 79.2342 74.6969 78.6742 74.3769C78.1142 74.0569 78.2342 73.1769 77.3642 73.3569C77.0542 73.6969 78.4842 74.8869 78.0542 75.4269C77.4942 76.1269 77.3342 74.8669 77.2842 74.8469C75.7842 73.9569 76.6942 75.5869 76.6042 76.2169C76.5842 76.3369 75.7142 78.4669 75.6142 78.5369C75.4342 78.6669 74.7442 78.0869 74.2542 78.3369C73.8942 78.5169 73.7442 79.1569 73.4542 79.4569C73.1142 79.7969 72.3542 79.9269 72.2642 80.4669C72.1842 80.9069 72.9642 82.0569 71.9942 82.3269C71.3842 82.4969 70.8042 81.8469 70.2542 81.7469C69.8242 81.6669 69.1642 82.1869 68.7242 81.8569C68.3342 81.5569 68.4842 80.6869 68.2242 80.2569C67.9642 79.8269 67.4142 79.9669 67.3642 79.9169L65.9842 80.6069C65.7542 80.8269 65.4542 81.1569 65.2942 81.2969C61.1142 84.8169 54.7942 85.5269 50.7942 81.2969C50.7342 81.2369 50.8542 81.0169 50.7942 80.9469H50.4442C49.1542 80.7769 48.6042 79.5069 48.0242 78.5269C46.0542 76.2569 43.9142 71.5369 44.2242 68.5169C43.1442 69.0669 42.7942 67.7269 42.3542 67.8169C41.5742 67.9669 40.5842 68.8869 39.5942 68.8269C38.8442 68.6169 39.2042 67.3669 39.0142 67.1769C38.9242 67.0769 36.7242 66.4869 36.4642 66.4369C34.7942 66.1669 37.6942 68.1169 36.6442 68.6969C34.5642 69.8569 34.5242 67.4269 34.2142 67.1369C33.3442 66.3169 33.6142 68.6669 32.6642 68.5269C31.4942 68.3569 31.4542 67.3869 31.4542 66.4469C31.4542 66.3369 31.4542 66.2169 31.4542 66.0969H31.1042C31.2042 67.1769 30.8742 66.8269 30.2142 66.4569C28.9342 65.7369 29.6142 65.3569 29.0642 64.5269C28.5142 63.6969 27.8942 62.9169 27.1242 62.3169C25.3642 60.9269 21.5442 60.7769 22.1142 58.4069C22.4442 57.0269 25.0342 57.9169 25.9242 58.1669C25.3042 56.5769 25.9542 56.6469 26.4142 55.7269C26.8942 54.7469 26.5242 53.5269 28.4542 54.0269C28.7142 54.0969 28.6642 54.7369 28.8842 54.7469C29.1542 54.7469 29.2842 54.4069 29.3642 54.3769C28.9342 54.1269 28.6542 53.6269 28.3242 53.3369C28.2042 53.2369 28.1142 53.0769 27.9742 52.9869C27.5442 53.3469 24.7042 52.6869 24.5242 52.2969L24.5342 52.3169Z" fill="#FDA780"/>
<path d="M70.7942 28.1572C70.6642 29.0372 71.3342 28.8172 71.7942 29.0372C72.8042 29.5172 79.4742 32.6672 79.7042 33.0472C80.2542 33.9172 78.9442 37.0972 80.4542 37.8272C80.6842 41.5072 80.8742 45.1972 81.1442 48.8772C81.1642 49.1072 81.1242 49.3372 81.1442 49.5672C81.2542 51.0872 81.7542 52.5672 81.8342 53.7072C81.8642 54.1672 81.8042 54.6272 81.8342 55.0872C79.1742 54.3772 82.5642 49.1372 79.4242 49.2172C80.0542 51.5372 77.8442 49.9872 77.3542 51.1172C76.7442 52.5272 78.7042 51.3972 78.3842 52.6672C75.9142 51.8572 76.2442 56.3572 77.6942 55.6072C78.2242 55.3372 79.2642 54.5472 78.7242 55.9372C78.2942 57.0372 75.2042 56.2772 76.6642 59.2272C75.9842 59.4072 75.3142 58.4172 74.7742 58.5372C73.8942 58.7272 74.9042 60.9672 73.8342 61.5672C73.0442 62.0072 71.4642 60.8672 71.2142 63.2672C71.1442 63.8972 71.6842 64.6172 71.3442 65.1072C68.3442 66.2772 70.4542 64.2772 70.4542 63.5372C70.4542 63.3372 69.5342 61.0072 69.0842 61.6372C69.2342 63.4872 68.8442 64.8072 67.3342 65.9272C66.7742 66.3472 63.8942 67.6672 63.2942 67.7672C62.5642 67.8972 62.0342 67.5772 61.4842 67.1572C61.9542 67.3772 65.5942 66.4272 66.3142 66.1172C66.4342 66.0672 66.5342 65.8472 66.6642 65.7672C66.9342 65.5972 67.3842 65.5872 67.6142 65.3372C67.7842 65.1472 67.6542 64.8172 67.7042 64.7372C69.0342 62.4072 68.4642 61.4372 67.3542 59.2172C66.4842 57.4672 64.6942 54.6372 63.5542 53.0072C63.9542 50.9872 60.8442 49.0672 60.8642 51.3872C60.8742 52.6872 63.0342 56.3172 63.9042 57.4972C64.9042 59.6972 68.5742 63.3072 64.6042 64.5872C63.0342 65.0872 60.1242 64.4772 61.4842 67.1672C60.5342 66.4272 60.4742 65.7072 61.4542 64.8972C63.1542 63.4772 67.2642 65.2372 65.6242 60.6172C64.7942 60.3572 64.2042 61.4672 63.4442 61.2772C62.5442 61.0472 62.7242 59.4672 60.9842 59.2172C57.6042 58.7272 59.1242 60.0772 58.7242 60.6172C58.1142 61.4272 57.9342 59.5272 57.7142 59.3872C56.2242 58.3672 55.5542 60.2772 55.4142 60.2872C54.7442 60.3572 52.2742 58.7872 51.3242 58.8672C50.9942 58.8972 51.8242 59.4172 49.9242 59.3072C49.5842 59.2872 49.1442 59.5672 48.9142 59.5172C48.5742 59.4272 47.9842 57.9972 47.6842 57.4972C54.4742 58.4872 50.8742 45.2672 46.9842 50.0672C45.0142 52.4972 46.2842 55.2372 47.6842 57.4972C46.6142 57.3372 45.9442 56.6372 44.3842 56.7672C43.5642 56.8372 44.2242 57.7572 43.1942 57.4872C43.3042 55.7372 44.4942 54.5872 42.1542 54.5472C42.0242 53.8172 43.0942 53.8972 43.2042 53.4472C43.5042 52.2072 42.5042 50.9572 41.5042 51.6472C41.2742 51.8072 41.2542 53.6472 40.4442 52.9872C40.3842 52.9372 40.4242 52.3672 40.0942 52.1472C39.6742 51.8672 38.9942 52.0372 38.5342 51.6272C37.6742 50.8572 38.1442 48.2572 38.0242 47.1372C37.0942 46.8672 37.1142 48.3672 36.9542 48.9972C36.0942 52.2672 35.8242 55.6472 34.9142 58.8672C33.3642 58.9472 32.3442 58.0272 32.1642 56.4572C32.5042 56.7572 34.2942 58.4872 34.5742 58.1772C35.8342 52.3472 36.7742 46.4772 37.6842 40.5772C38.7342 41.2572 38.2242 40.7872 38.3642 40.0572C38.8542 37.4172 38.8342 33.8772 39.4242 31.5172C39.5042 31.2172 40.0742 31.0872 40.1042 30.9172H40.4542C40.6042 31.4172 40.9842 31.6072 41.4942 31.6072C41.6042 31.7372 41.7242 31.8372 41.8442 31.9572V32.3072C43.3642 33.5872 45.7942 34.8472 47.7142 35.5772C50.0742 36.4772 56.6342 38.5472 55.9142 33.9372C55.7142 32.6772 55.0242 33.0672 54.9542 32.9972C54.8642 31.9872 54.0142 29.8372 53.2242 29.1972C53.2242 29.0872 53.2242 28.9672 53.2242 28.8472C54.1742 29.1172 55.0542 29.5372 55.9842 29.8872C56.3242 30.0172 56.6842 30.1072 57.0242 30.2372C58.6842 31.3572 60.6442 32.3572 62.5442 32.9972C62.6442 33.0272 62.7842 32.9672 62.8942 32.9972C63.6642 33.9372 64.4742 34.3772 65.6542 34.7272C66.7142 35.0372 68.2642 35.6072 68.7642 34.0372C68.7942 33.9372 68.7342 33.7972 68.7642 33.6872H69.1142L69.4542 33.5172L69.1142 33.3472C69.2142 33.0872 69.4142 32.3772 69.4642 32.3072C69.4842 32.2772 70.0642 32.4672 70.1642 32.0872C70.5442 30.6572 69.1142 28.8572 70.5042 28.1672C70.6142 28.1972 70.7442 28.1372 70.8542 28.1672L70.7942 28.1572ZM65.6142 38.8572C64.7342 42.5672 69.6742 40.6472 71.9742 40.9572C73.7742 41.1972 79.1042 44.2872 77.0042 39.5472C75.5242 36.1872 66.1742 36.4872 65.6142 38.8572ZM54.1542 39.0972C53.2042 35.9372 44.3242 36.6872 42.4842 39.1972C41.5342 39.9772 40.8842 41.8472 42.1342 42.6472C43.7942 43.7072 46.2142 41.5172 48.3442 41.2672C50.3642 41.8572 55.1742 42.4972 54.1442 39.0972H54.1542ZM70.2942 57.4972C74.2742 58.1672 74.3142 50.0972 71.5842 49.2872C66.7942 47.8472 67.4042 57.0072 70.2942 57.4972ZM69.0642 60.2572C69.2142 58.8872 69.2042 58.2472 67.6842 58.1872C67.3842 58.4972 68.5742 60.9272 69.0642 60.2572Z" fill="#FDAD87"/>
<path d="M48.9043 59.5072C49.1343 59.5672 49.5743 59.2872 49.9143 59.2972C51.8143 59.3972 50.9843 58.8872 51.3143 58.8572C52.2643 58.7672 54.7343 60.3472 55.4043 60.2772C55.5443 60.2672 56.2143 58.3472 57.7043 59.3772C57.9143 59.5172 58.1043 61.4172 58.7143 60.6072C59.1143 60.0672 57.5943 58.7172 60.9743 59.2072C62.7243 59.4572 62.5343 61.0372 63.4343 61.2672C64.1943 61.4572 64.7743 60.3472 65.6143 60.6072C67.2543 65.2272 63.1443 63.4672 61.4443 64.8872C60.4643 65.7072 60.5243 66.4172 61.4743 67.1572C62.0143 67.5772 62.5543 67.8972 63.2843 67.7672C63.8743 67.6572 66.7643 66.3372 67.3243 65.9272C68.8343 64.8072 69.2243 63.4872 69.0743 61.6372C69.5343 61.0072 70.4443 63.3372 70.4443 63.5372C70.4443 64.2672 68.3443 66.2772 71.3343 65.1072C71.6743 64.6172 71.1343 63.8972 71.2043 63.2672C71.4643 60.8672 73.0343 62.0072 73.8243 61.5672C74.9043 60.9672 73.8943 58.7172 74.7643 58.5372C75.3043 58.4172 75.9743 59.4072 76.6543 59.2272C75.2043 56.2772 78.2843 57.0472 78.7143 55.9372C79.2543 54.5472 78.2143 55.3372 77.6843 55.6072C76.2443 56.3572 75.9043 51.8572 78.3743 52.6672C78.6843 51.3972 76.7343 52.5272 77.3443 51.1172C77.8343 49.9872 80.0443 51.5372 79.4143 49.2172C82.5643 49.1272 79.1743 54.3672 81.8243 55.0872C81.8443 55.3172 81.8043 55.5472 81.8243 55.7772C81.0643 57.2572 79.5543 60.1472 82.1743 60.2672C82.1743 60.4972 82.1743 60.7272 82.1743 60.9572C81.6043 61.3172 81.8243 62.2672 81.8243 62.8472C81.7843 66.5872 82.1643 70.9272 80.4543 74.2472C80.4343 74.6072 81.0443 74.3272 81.1443 74.4172C81.1743 74.4372 81.1543 74.9372 81.1443 75.1072C80.4543 75.0272 79.2143 74.7272 78.6543 74.4072C78.0943 74.0872 78.2143 73.2072 77.3443 73.3872C77.0343 73.7272 78.4643 74.9172 78.0343 75.4572C77.4743 76.1572 77.3143 74.8972 77.2643 74.8772C75.7643 73.9872 76.6743 75.6172 76.5843 76.2472C76.5643 76.3672 75.6943 78.4972 75.5943 78.5672C75.4143 78.6972 74.7243 78.1172 74.2343 78.3672C73.8743 78.5472 73.7243 79.1872 73.4343 79.4872C73.0943 79.8272 72.3343 79.9572 72.2443 80.4972C72.1643 80.9372 72.9443 82.0872 71.9743 82.3572C71.3643 82.5272 70.7843 81.8772 70.2343 81.7772C69.8043 81.6972 69.1443 82.2172 68.7043 81.8872C68.3143 81.5872 68.4643 80.7172 68.2043 80.2872C67.9443 79.8572 67.3943 79.9972 67.3443 79.9472C67.3243 79.9272 67.3243 79.4272 67.3443 79.2572C68.0643 78.5372 68.4243 77.7972 69.0743 77.1872C69.1143 77.1472 69.4443 77.2572 69.6643 77.0972C69.8943 76.9272 69.9243 76.2872 70.3043 76.1972C70.6443 76.1172 71.3343 76.6372 71.4943 76.4972C71.9143 76.1272 70.9743 74.6172 70.1143 74.7772C70.4243 73.3072 69.9543 71.7472 69.0743 70.6372C68.9743 70.5072 68.1343 69.6672 68.0343 69.5972C66.9943 68.8672 67.1043 69.5272 66.6543 69.5972C64.4343 69.9172 63.6543 69.8572 61.4743 69.5972C60.7343 69.5072 60.6543 69.6072 60.4343 69.5972C59.6743 69.5472 59.6743 69.3272 59.3943 69.2472C58.3843 68.9572 58.4243 69.2572 58.3543 69.2472C57.6443 69.0972 56.2543 68.7772 55.5943 68.5572C53.5843 67.8972 50.0243 65.3972 48.3443 65.1072C48.5943 64.0472 46.7143 64.0472 46.9643 65.1072C45.2043 65.3772 44.3743 66.9372 44.2043 68.5572C43.1243 69.1072 42.7743 67.7672 42.3343 67.8572C41.5543 68.0072 40.5643 68.9272 39.5743 68.8672C38.8243 68.6572 39.1843 67.4072 38.9943 67.2172C38.9043 67.1172 36.7043 66.5272 36.4443 66.4772C34.7743 66.2072 37.6743 68.1572 36.6243 68.7372C34.5443 69.8972 34.5043 67.4672 34.1943 67.1772C33.3243 66.3572 33.5943 68.7072 32.6443 68.5672C31.4743 68.3972 31.4343 67.4272 31.4343 66.4872C31.7843 66.2272 31.9943 65.8572 32.1243 65.4472C32.2643 64.9972 32.1443 65.2872 32.1243 65.0972C31.8943 62.5272 29.5443 61.7972 28.6743 59.9172C28.5843 59.7172 28.7943 59.0172 28.6743 58.8872C28.5643 58.7772 27.9243 58.9372 27.6443 58.8872C26.7143 58.6772 26.3943 58.3272 25.9143 58.1972C25.2943 56.6072 25.9443 56.6772 26.4043 55.7572C26.8843 54.7772 26.5143 53.5572 28.4443 54.0572C28.7043 54.1272 28.6543 54.7672 28.8743 54.7772C29.1443 54.7772 29.2743 54.4372 29.3543 54.4072C29.5243 54.3472 29.8343 54.4472 30.0443 54.4072C30.1143 54.5172 30.2943 54.6172 30.3943 54.7572C30.6743 55.1472 30.8543 55.2072 31.0843 55.4472C31.3343 55.7072 31.8843 56.2772 32.1243 56.4872C32.3043 58.0572 33.3243 58.9772 34.8743 58.8972C35.7843 55.6772 36.0643 52.2972 36.9143 49.0272C37.0843 48.3972 37.0543 46.8972 37.9843 47.1672C38.1043 48.2872 37.6343 50.8872 38.4943 51.6572C38.9543 52.0672 39.6343 51.9072 40.0543 52.1772C40.3843 52.3972 40.3443 52.9672 40.4043 53.0172C41.2143 53.6772 41.2343 51.8372 41.4643 51.6772C42.4643 50.9772 43.4643 52.2372 43.1643 53.4772C43.0543 53.9272 41.9843 53.8472 42.1143 54.5772C44.4543 54.6072 43.2643 55.7672 43.1543 57.5172C44.1843 57.7872 43.5243 56.8672 44.3443 56.7972C45.9043 56.6672 46.5843 57.3672 47.6443 57.5272C47.9543 58.0172 48.5343 59.4572 48.8743 59.5472L48.9043 59.5072ZM37.4643 53.3372C36.4343 54.5372 37.4243 55.5372 38.2943 55.0272C39.3043 54.4372 39.1743 51.3372 37.4643 53.3372ZM50.7743 61.2872H51.8143V60.2572H50.7743V61.2872ZM80.4543 71.1372C80.2543 70.1172 77.8143 70.8472 78.0443 71.9972C78.6743 72.0572 80.6643 72.1872 80.4543 71.1372Z" fill="#FDAB85"/>
<path d="M53.5343 90.2875C51.0343 89.7775 46.8343 86.9175 45.0843 86.8275C44.5743 86.7975 44.4543 86.7875 44.5543 87.3575C44.9043 89.3375 52.2943 93.5375 54.2243 94.4275C57.7543 95.0275 60.9943 95.6775 64.5743 95.1175C64.4843 93.4975 64.5943 91.8875 64.2243 90.2875C63.9143 90.3575 63.5843 90.5575 63.1843 90.6375C59.8743 91.2575 56.7543 91.4975 53.3243 90.6575L53.5143 90.2975L53.5343 90.2875Z" fill="#231B25"/>
<path d="M82.1842 60.9473C81.6142 61.3073 81.8342 62.2573 81.8342 62.8373C81.7942 66.5773 82.1742 70.9173 80.4642 74.2373C80.4442 74.5973 81.0542 74.3173 81.1542 74.4073C82.6642 70.3373 82.3042 65.2973 82.1942 60.9473H82.1842Z" fill="#FDA780"/>
<path d="M54.2241 94.4268C57.3541 95.8668 61.1541 96.2468 64.5741 95.4668C64.5741 95.3568 64.5741 95.2368 64.5741 95.1168C60.9841 95.6668 57.7441 95.0268 54.2241 94.4268Z" fill="#F5C396"/>
<path d="M81.8342 55.7676C81.0742 57.2476 79.5642 60.1376 82.1842 60.2576C82.1242 58.7476 81.9542 57.2776 81.8342 55.7676Z" fill="#FDAD87"/>
<path d="M39.0341 30.2275L34.1941 56.8075C32.4641 56.9075 32.5541 54.4975 30.7441 54.7375L31.0941 55.4275C31.3441 55.6875 31.8941 56.2575 32.1341 56.4675C32.4741 56.7675 34.2641 58.4975 34.5441 58.1875C35.8041 52.3575 36.7441 46.4875 37.6541 40.5875C38.1841 37.1575 38.9041 33.7275 39.0341 30.2375V30.2275Z" fill="#140E19"/>
<path d="M80.4543 37.8167C80.6843 41.4967 80.8743 45.1867 81.1443 48.8667C82.0443 46.7967 81.2743 44.2067 81.1443 42.1367C81.0443 40.5267 81.6443 38.3367 80.4543 37.1367C80.4643 37.3667 80.4443 37.5967 80.4543 37.8267V37.8167Z" fill="#140E19"/>
<path d="M39.0343 30.2267C38.9043 33.7167 38.1843 37.1467 37.6543 40.5767C38.7043 41.2567 38.1943 40.7867 38.3343 40.0567C38.8243 37.4167 38.8043 33.8767 39.3943 31.5167C39.4743 31.2167 40.0443 31.0867 40.0743 30.9167C40.0943 30.8067 39.7643 30.2467 39.7243 30.2267C39.6743 30.1867 39.5043 30.2367 39.3743 30.2267C39.2643 30.2167 39.1443 30.2267 39.0243 30.2267H39.0343Z" fill="#F5C396"/>
<path d="M43.8643 32.9875C44.6243 33.8975 46.4243 34.5575 47.5643 34.9775C50.0443 35.8975 57.4843 38.4975 54.9043 33.3275C54.9043 34.1275 54.5043 34.9175 54.5443 35.7275C53.8143 35.7275 53.0343 35.8175 52.3043 35.7575C49.3243 35.5175 46.5043 34.0575 43.8643 32.9775V32.9875Z" fill="#140E19"/>
<path d="M70.7942 28.1575C70.6642 29.0375 71.3342 28.8175 71.7942 29.0375C72.8042 29.5175 79.4742 32.6675 79.7042 33.0475C80.2542 33.9175 78.9442 37.0975 80.4542 37.8275C80.4442 37.5975 80.4642 37.3675 80.4542 37.1375C80.4342 36.7975 80.4742 36.4475 80.4542 36.0975C80.3842 34.9275 79.9942 33.8275 80.1042 32.6475C79.5042 32.6675 79.4742 32.3175 79.4142 32.2975C77.7142 31.7475 75.5242 30.7675 74.2342 29.5375C74.1342 29.4975 73.9842 29.5775 73.8842 29.5375L73.1942 29.1875C72.3342 28.8475 71.7542 28.4375 70.7742 28.1475L70.7942 28.1575Z" fill="#F5C396"/>
<path d="M62.8542 32.9871C63.6242 33.9271 64.4343 34.3671 65.6143 34.7171C66.5643 34.6571 67.9643 35.1071 68.3743 34.0271C66.4343 34.2871 64.6542 33.5571 62.8542 32.9871Z" fill="#140E19"/>
<path d="M70.1042 28.1572C69.8642 28.1072 69.5142 27.6672 69.0742 27.8172C69.1242 29.3272 70.0942 30.7972 69.4142 32.3072C69.4342 32.2772 70.0142 32.4672 70.1142 32.0872C70.4942 30.6572 69.0642 28.8572 70.4542 28.1672C70.3442 28.1372 70.2242 28.1872 70.1042 28.1672V28.1572Z" fill="#F5C396"/>
<path d="M56.9841 30.2275C58.6441 31.3475 60.6041 32.3475 62.5041 32.9875C62.6741 32.2275 62.1341 32.2175 61.6141 31.9975C60.1141 31.3675 58.5041 30.8075 56.9841 30.2275Z" fill="#140E19"/>
<path d="M41.7942 32.2969C43.3142 33.5769 45.7442 34.8369 47.6642 35.5669C50.0242 36.4669 56.5842 38.5369 55.8642 33.9269C55.6642 32.6669 54.9742 33.0569 54.9042 32.9869C54.9042 33.0969 54.9042 33.2169 54.9042 33.3369C57.4842 38.4969 50.0442 35.9069 47.5642 34.9869C46.4242 34.5569 44.6242 33.9069 43.8642 32.9969C43.6042 32.8869 43.2842 32.6869 43.1742 32.6469C42.8642 32.5469 42.6542 32.3669 42.4842 32.2969C42.3842 32.2569 42.2442 32.3269 42.1342 32.2969H41.7842H41.7942Z" fill="#F5C396"/>
<path d="M40.4143 30.9176C40.5643 31.4176 40.9443 31.6076 41.4543 31.6076C41.3243 31.4376 41.8743 30.6276 40.4143 30.9176Z" fill="#140E19"/>
<path d="M79.4243 32.2971C77.8143 31.2271 76.0043 30.3371 74.2443 29.5371C75.5243 30.7671 77.7243 31.7471 79.4243 32.2971Z" fill="#140E19"/>
<path d="M42.4841 32.2969C42.6541 32.3569 42.8641 32.5469 43.1741 32.6469L42.4841 32.2969Z" fill="#140E19"/>
<path d="M28.3342 53.3467C28.6542 53.6367 28.9342 54.1367 29.3742 54.3867C29.5442 54.3267 29.8542 54.4267 30.0642 54.3867C30.0142 54.3067 30.1142 54.1267 30.0642 54.0367L28.3342 53.3467Z" fill="#FDAD87"/>
<path d="M65.6143 34.7171C66.6743 35.0271 68.2243 35.5971 68.7243 34.0271H68.3743C67.9643 35.1071 66.5643 34.6571 65.6143 34.7171Z" fill="#F5C396"/>
<path d="M41.7942 32.2973H42.1442C42.0342 32.1773 41.9142 32.0673 41.7942 31.9473V32.2973Z" fill="#140E19"/>
<path d="M73.2043 29.1875L73.8943 29.5375C73.6643 29.4375 73.5943 29.3475 73.2043 29.1875Z" fill="#140E19"/>
<path d="M31.0943 55.4271L30.7443 54.7371H30.3943C30.6743 55.1271 30.8543 55.1871 31.0843 55.4271H31.0943Z" fill="#FDAD87"/>
<path d="M50.0842 66.4671C50.8842 67.7771 51.7742 67.5271 52.8442 68.0271C56.6542 69.7971 59.7242 70.9271 64.0642 70.9671C64.7242 70.9671 65.4642 71.2771 65.2642 70.2671C65.4942 70.2671 65.7242 70.2671 65.9542 70.2671C66.4142 70.8571 67.6242 70.6171 68.3742 70.6171C68.4942 70.6171 68.6042 70.6171 68.7242 70.6171C68.9342 70.9271 68.9442 71.3171 69.0742 71.6571L68.7342 71.8471C68.6242 72.4271 68.8442 72.8671 69.4142 73.0371C69.4142 73.2571 69.4342 73.5071 69.4142 73.7271C68.3942 73.3971 68.6442 75.4671 68.3742 76.4871C68.1042 77.5071 67.3842 78.7071 67.3342 79.2471C66.8742 79.7071 66.4342 80.1771 65.9542 80.6271C65.7242 80.8471 65.4242 81.1771 65.2642 81.3171C63.7842 81.9771 62.3542 82.9471 60.7742 83.3871C60.1942 82.7871 58.7142 82.7271 59.0442 83.7371C58.8142 83.7571 58.5842 83.7371 58.3542 83.7371C57.4442 82.7071 55.9442 83.1471 54.6242 82.8071C53.5042 82.5271 52.4742 81.6271 51.4542 81.3171C51.2742 81.2671 50.9842 81.3571 50.7642 81.3171C50.7042 81.2571 50.8242 81.0371 50.7642 80.9671C50.6542 80.8371 50.5042 80.7371 50.4142 80.6171C50.3242 80.4971 50.1842 80.3771 50.0642 80.2671C49.9542 80.1671 49.8442 79.9771 49.7142 79.9171C48.3842 79.3371 48.9642 79.1671 48.6742 78.8771C48.4442 78.1771 48.1542 76.9871 47.2942 77.1471C47.0942 76.7671 47.0742 76.3871 46.9442 76.1071C46.9942 75.4971 46.8942 74.9071 46.2542 74.7271C46.1742 74.5271 46.0142 74.3371 45.9042 74.0371C46.4942 72.6871 45.1742 70.8371 45.2042 69.3671C45.2042 69.0171 46.0442 66.5371 46.2142 66.3071C46.7742 65.5071 48.6742 66.7371 49.3642 66.1071C49.6542 66.2071 49.8542 66.3671 50.0542 66.4571L50.0842 66.4671ZM53.7642 80.9071C55.5742 81.8471 61.2542 83.4171 59.3542 79.8071C58.1642 77.5371 53.1042 74.5171 50.5342 74.5171C46.1142 74.5171 52.1242 80.0571 53.7742 80.9071H53.7642Z" fill="#231B25"/>
<path d="M31.4443 66.1272C31.4443 65.9072 31.8643 65.6172 31.6443 64.7572C30.9943 62.1972 24.3243 56.1472 22.6343 58.5272C21.6643 59.8872 25.4843 60.7072 26.5843 61.5072C27.3143 62.0272 28.6243 63.3672 29.1843 64.0872C29.9043 65.0272 29.7143 66.4972 31.1043 66.1372H31.4543L31.4443 66.1272Z" fill="#231B25"/>
<path d="M57.3343 109.617C55.8843 109.757 53.6343 109.717 52.1543 109.617C49.3043 109.427 46.5943 108.697 43.8743 107.887C43.6743 108.807 44.3443 108.557 44.8943 108.747C51.2943 110.927 59.6843 111.257 65.2743 107.197C62.7743 108.137 60.0243 109.357 57.3343 109.617Z" fill="#140E19"/>
<path d="M60.7842 83.3776C60.2042 83.5376 59.6642 83.6776 59.0542 83.7276C58.8242 83.7476 58.5942 83.7276 58.3642 83.7276C56.0142 83.7076 53.1542 83.0576 51.4642 81.3076C51.2842 81.2576 50.9942 81.3476 50.7742 81.3076C54.7642 85.5376 61.0842 84.8276 65.2742 81.3076C63.7942 81.9676 62.3642 82.9376 60.7842 83.3776Z" fill="#F5C396"/>
<path d="M53.5342 90.2871L53.3442 90.6471C56.7642 91.4971 59.8942 91.2471 63.2042 90.6271C60.0042 90.3671 56.7242 90.9271 53.5442 90.2771L53.5342 90.2871Z" fill="#140E19"/>
<path d="M48.3542 65.0872C48.0442 65.0272 47.2942 65.0372 46.9742 65.0872C45.2142 65.3572 44.3842 66.9172 44.2142 68.5372C43.9042 71.5572 46.0442 76.2772 48.0142 78.5472C47.8142 78.2072 47.5642 77.6072 47.3242 77.1672C47.1242 76.7872 47.1042 76.4072 46.9742 76.1272C46.7942 75.7372 46.5842 75.5072 46.2842 74.7472C46.2042 74.5472 46.0442 74.3572 45.9342 74.0572C45.0642 71.5072 43.3142 65.0172 47.7942 65.4472C48.6042 65.5272 48.9042 65.9572 49.3842 66.1272C49.6742 66.2272 49.8742 66.3872 50.0742 66.4772C51.9242 67.2272 53.7342 68.2472 55.5942 68.8972V68.5472C53.5842 67.8872 50.0242 65.3872 48.3442 65.0972L48.3542 65.0872Z" fill="#FDAD87"/>
<path d="M25.9243 58.1867C25.0443 57.9367 22.4443 57.0567 22.1143 58.4267C21.5443 60.7867 25.3643 60.9467 27.1243 62.3367C27.8843 62.9367 28.5243 63.7467 29.0643 64.5467C29.6043 65.3467 28.9343 65.7567 30.2143 66.4767C30.8743 66.8467 31.2043 67.2067 31.1043 66.1167C29.7143 66.4767 29.9043 65.0067 29.1843 64.0667C28.6243 63.3367 27.3243 62.0067 26.5843 61.4867C25.4743 60.6967 21.6643 59.8667 22.6343 58.5067C24.3243 56.1267 30.9943 62.1767 31.6443 64.7367C31.8643 65.6067 31.4343 65.8967 31.4443 66.1067C31.4443 66.2167 31.4443 66.3367 31.4443 66.4567C31.7943 66.1967 32.0043 65.8267 32.1343 65.4167V65.0667C31.9043 62.4967 29.5543 61.7667 28.6843 59.8867C28.0943 59.6367 27.4643 59.6267 27.6443 58.8467C26.7143 58.6367 26.3943 58.2867 25.9143 58.1567L25.9243 58.1867Z" fill="#FDAD87"/>
<path d="M52.1543 109.617C53.6343 109.717 55.8743 109.757 57.3343 109.617C56.0543 109.047 53.5043 109.037 52.1543 109.617Z" fill="#F5C396"/>
<path d="M24.5342 52.3168C24.7142 52.7068 27.5542 53.3668 27.9842 53.0068C26.8142 52.2668 25.8942 52.2268 24.5342 52.3168Z" fill="#FDAD87"/>
<path d="M40.7642 106.507C40.7642 106.507 40.6442 106.977 40.8342 107.117C40.9442 107.207 43.0342 107.737 43.5342 107.887L40.7742 106.507H40.7642Z" fill="#140E19"/>
<path d="M50.4243 80.9671V80.6171C50.3343 80.4971 50.1943 80.3771 50.0743 80.2671C49.9543 80.1571 49.8243 80.0571 49.7243 79.9171C48.3943 79.3371 48.9743 79.1671 48.6843 78.8771C48.5343 78.7371 48.1143 78.6771 47.9943 78.5271C48.5743 79.5071 49.1143 80.7671 50.4143 80.9471L50.4243 80.9671Z" fill="#F5C396"/>
<path d="M65.6143 106.847C66.3743 106.907 66.8343 107.027 66.6543 106.157C66.6043 106.197 65.9343 106.607 65.6143 106.847Z" fill="#140E19"/>
<path d="M65.9542 80.6171L67.3342 79.9271C67.3342 79.9271 67.3142 79.4071 67.3342 79.2371C66.8742 79.6971 66.4342 80.1671 65.9542 80.6171Z" fill="#F5C396"/>
<path d="M67.6843 105.128C68.6843 104.218 67.9843 104.557 68.0343 104.438L67.6843 105.128Z" fill="#140E19"/>
<path d="M50.4242 80.9672H50.7742C50.6642 80.8372 50.5142 80.7372 50.4242 80.6172V80.9672Z" fill="#140E19"/>
<path d="M71.5841 49.2774C66.7941 47.8374 67.4041 56.9974 70.2941 57.4874C74.2741 58.1574 74.3141 50.0874 71.5841 49.2774Z" fill="#231B25"/>
<path d="M63.5441 53.0074C63.3541 52.7374 61.1941 49.6974 61.4641 51.4574C61.6141 52.4174 63.3641 56.3374 63.8841 57.4974C64.8841 59.6974 68.5541 63.3074 64.5841 64.5874C63.0141 65.0874 60.1041 64.4774 61.4641 67.1674C61.9341 67.3874 65.5741 66.4374 66.2941 66.1274L66.6441 65.7774C66.9141 65.6074 67.3641 65.5974 67.5941 65.3474C67.7641 65.1574 67.6341 64.8274 67.6841 64.7474L68.0441 62.1674L67.3341 59.2274C66.4641 57.4774 64.6741 54.6474 63.5341 53.0174L63.5441 53.0074Z" fill="#231B25"/>
<path d="M47.6642 57.4969C54.4542 58.4869 50.8542 45.2669 46.9642 50.0669C44.9942 52.4969 46.2642 55.2369 47.6642 57.4969Z" fill="#231B25"/>
<path d="M65.6143 38.8571C64.7343 42.5671 69.6743 40.6471 71.9743 40.9571C73.7743 41.1971 79.1043 44.2871 77.0043 39.5471C76.6443 39.1171 76.0043 39.0771 75.6243 38.8571C76.1343 39.1471 77.2543 41.2771 76.1043 41.5971C75.5343 41.7571 72.2243 40.3171 70.9643 40.2371C69.3343 40.1271 67.9243 40.7371 66.3143 40.5871C66.3443 40.1071 66.2143 39.5271 66.3643 39.0771C66.6543 38.1871 71.3643 38.0671 72.3743 38.1571C72.8943 38.1971 75.3243 38.6871 75.6343 38.8571C75.4843 38.7771 75.3643 38.3471 74.8143 38.1371C71.9843 37.0671 68.2743 37.4771 65.6243 38.8571H65.6143Z" fill="#140E19"/>
<path d="M42.4842 39.1971C41.5342 39.9771 40.8842 41.8471 42.1342 42.6471C41.2942 38.0071 48.1542 37.8971 51.2742 38.1671C52.6842 38.2871 53.6642 38.3771 53.1242 40.0171C52.8242 40.9371 49.7542 40.5371 48.6142 40.6771C46.0742 41.0071 44.4942 42.3471 42.1342 42.6471C43.7942 43.7071 46.2142 41.5171 48.3442 41.2671C50.0542 41.0671 54.9842 42.0671 53.6042 38.9371C52.4042 36.2071 44.3142 37.6971 42.4742 39.1971H42.4842Z" fill="#140E19"/>
<path d="M63.8843 57.4967C63.3543 56.3367 61.6143 52.4267 61.4643 51.4567C61.1843 49.6967 63.3543 52.7367 63.5443 53.0067C63.9443 50.9867 60.8343 49.0667 60.8543 51.3867C60.8643 52.6867 63.0243 56.3167 63.8943 57.4967H63.8843Z" fill="#140E19"/>
<path d="M65.6143 38.8573C68.2643 37.4873 71.9743 37.0773 74.8043 38.1373C75.3643 38.3473 75.4743 38.7673 75.6243 38.8573C76.0043 39.0773 76.6443 39.1173 77.0043 39.5473C75.5243 36.1873 66.1743 36.4873 65.6143 38.8573Z" fill="#F5C396"/>
<path d="M42.4841 39.1969C44.3241 37.6969 52.4141 36.2069 53.6141 38.9369C54.9941 42.0669 50.0541 41.0669 48.3541 41.2669C50.3741 41.8569 55.1841 42.4969 54.1541 39.0969C53.2041 35.9369 44.3241 36.6869 42.4841 39.1969Z" fill="#F5C396"/>
<path d="M67.6843 58.1875C67.3843 58.4975 68.5743 60.9275 69.0643 60.2575C69.2143 58.8875 69.2043 58.2475 67.6843 58.1875Z" fill="#FDAB85"/>
<path d="M67.6842 64.7368C69.0142 62.4068 68.4442 61.4368 67.3342 59.2168L68.0442 62.1568L67.6842 64.7368Z" fill="#140E19"/>
<path d="M69.0642 33.6772L69.4042 33.5072L69.0642 33.3372C69.0242 33.4372 69.0942 33.5772 69.0642 33.6872V33.6772Z" fill="#F5C396"/>
<path d="M55.6042 68.5371V68.8871C59.0742 70.0771 61.6342 70.2471 65.2642 70.2671C65.4942 70.2671 65.7242 70.2671 65.9542 70.2671C66.7142 70.2671 67.8942 70.0071 68.3742 70.6171C68.4942 70.6171 68.6042 70.6171 68.7242 70.6171H69.0742C68.9742 70.4871 68.1342 69.6471 68.0342 69.5771H66.6542C64.4342 69.8971 63.6542 69.8371 61.4742 69.5771H60.4342C59.6742 69.5271 59.6742 69.3071 59.3942 69.2271H58.3542C57.6442 69.0771 56.2542 68.7571 55.5942 68.5371H55.6042Z" fill="#F5C396"/>
<path d="M38.3044 55.0268C39.3144 54.4368 39.1844 51.3368 37.4744 53.3368C36.4444 54.5368 37.4344 55.5368 38.3044 55.0268Z" fill="#FDAD87"/>
<path d="M68.7242 70.6074C68.9342 70.9174 68.9442 71.3074 69.0742 71.6474C69.2942 72.2574 69.3842 72.2074 69.4242 73.0274C69.4242 73.2474 69.4442 73.4974 69.4242 73.7174C69.3542 74.5874 69.2242 76.0974 68.3842 76.4774C68.1242 77.4774 67.3942 78.6974 67.3442 79.2374C68.0642 78.5174 68.4242 77.7774 69.0742 77.1674C68.8542 76.2574 69.9842 75.3174 70.1142 74.7474C70.4242 73.2774 69.9542 71.7174 69.0742 70.6074H68.7242Z" fill="#FDAD87"/>
<path d="M70.1043 74.7472C69.9843 75.3172 68.8543 76.2472 69.0643 77.1672C69.1043 77.1272 69.4343 77.2372 69.6543 77.0772C69.8843 76.9072 69.9143 76.2672 70.2943 76.1772C70.6343 76.0972 71.3243 76.6172 71.4843 76.4772C71.9043 76.1072 70.9643 74.5972 70.1043 74.7572V74.7472Z" fill="#FDA780"/>
<path d="M78.0443 71.9872C78.6743 72.0472 80.6643 72.1772 80.4543 71.1272C80.2443 70.0772 77.8143 70.8372 78.0443 71.9872Z" fill="#FDA780"/>
<path d="M51.8208 60.2536L50.7808 60.25L50.7771 61.29L51.8171 61.2936L51.8208 60.2536Z" fill="#FDAD87"/>
<path d="M48.3542 65.0872C48.6042 64.0272 46.7242 64.0272 46.9742 65.0872C47.2942 65.0372 48.0442 65.0272 48.3542 65.0872Z" fill="#FDA780"/>
<path d="M27.6442 58.8772C27.4542 59.6572 28.0942 59.6672 28.6842 59.9172C28.5942 59.7172 28.8042 59.0172 28.6842 58.8872C28.5742 58.7772 27.9342 58.9372 27.6542 58.8872L27.6442 58.8772Z" fill="#FDA780"/>
<path d="M66.6443 69.5769H68.0243C66.9843 68.8469 67.0943 69.5069 66.6443 69.5769Z" fill="#FDAD87"/>
<path d="M60.4342 69.5772H61.4742C60.7342 69.4872 60.6542 69.5872 60.4342 69.5772Z" fill="#FDAD87"/>
<path d="M58.3643 69.2273H59.4043C58.3943 68.9373 58.4343 69.2373 58.3643 69.2273Z" fill="#FDAD87"/>
<path d="M32.1343 65.4271C32.2743 64.9771 32.1543 65.2671 32.1343 65.0771V65.4271Z" fill="#FDA780"/>
<path d="M50.5342 74.5068C46.1142 74.5068 52.1242 80.0468 53.7742 80.8968C55.5842 81.8368 61.2642 83.4068 59.3642 79.7968C58.1742 77.5268 53.1142 74.5068 50.5442 74.5068H50.5342Z" fill="#F87B51"/>
<path d="M49.3942 66.1272C48.9142 65.9572 48.6142 65.5272 47.8042 65.4472C43.3142 65.0272 45.0742 71.5072 45.9442 74.0572C46.5342 72.7072 45.2142 70.8572 45.2442 69.3872C45.2442 69.0372 46.0842 66.5572 46.2542 66.3272C46.8142 65.5272 48.7142 66.7572 49.4042 66.1272H49.3942Z" fill="#140E19"/>
<path d="M50.0842 66.4668C50.8842 67.7768 51.7742 67.5268 52.8442 68.0268C56.6542 69.7968 59.7242 70.9268 64.0642 70.9668C64.7242 70.9668 65.4642 71.2768 65.2642 70.2668C61.6342 70.2468 59.0642 70.0768 55.6042 68.8868C53.7342 68.2468 51.9242 67.2168 50.0842 66.4668Z" fill="#140E19"/>
<path d="M58.3644 83.7276C57.4544 82.6976 55.9544 83.1376 54.6344 82.7976C53.5144 82.5176 52.4844 81.6176 51.4644 81.3076C53.1544 83.0476 56.0144 83.6976 58.3644 83.7276Z" fill="#140E19"/>
<path d="M69.4143 73.7169C68.3943 73.3869 68.6443 75.4569 68.3743 76.4769C69.2143 76.0869 69.3443 74.5869 69.4143 73.7169Z" fill="#140E19"/>
<path d="M60.7843 83.3771C60.2043 82.7771 58.7243 82.7171 59.0543 83.7271C59.6543 83.6771 60.2043 83.5471 60.7843 83.3771Z" fill="#140E19"/>
<path d="M69.4142 73.0275C69.3742 72.2075 69.2942 72.2575 69.0642 71.6475L68.7242 71.8375C68.6142 72.4175 68.8342 72.8575 69.4042 73.0275H69.4142Z" fill="#140E19"/>
<path d="M65.9542 70.2671C66.4142 70.8571 67.6242 70.6171 68.3742 70.6171C67.9042 70.0171 66.7142 70.2771 65.9542 70.2671Z" fill="#140E19"/>
<path d="M46.9742 76.1271C47.0242 75.5171 46.9242 74.9271 46.2842 74.7471C46.5842 75.5071 46.7942 75.7371 46.9742 76.1271Z" fill="#140E19"/>
<path d="M47.3242 77.1672C47.5642 77.6072 47.8142 78.2072 48.0142 78.5472C48.1342 78.6872 48.5542 78.7472 48.7042 78.8972C48.4742 78.1972 48.1842 77.0072 47.3242 77.1672Z" fill="#140E19"/>
<path d="M50.0841 80.2768C49.9741 80.1768 49.8641 79.9868 49.7341 79.9268C49.8341 80.0568 49.9641 80.1568 50.0841 80.2768Z" fill="#140E19"/>
<path d="M66.3042 66.1271C66.4242 66.0771 66.5242 65.8571 66.6542 65.7771L66.3042 66.1271Z" fill="#140E19"/>
<path d="M75.6242 38.8572C75.3142 38.6872 72.8842 38.1972 72.3642 38.1572C71.3642 38.0772 66.6442 38.1872 66.3542 39.0772C66.2042 39.5272 66.3342 40.1072 66.3042 40.5872C67.9242 40.7372 69.3242 40.1372 70.9542 40.2372C72.2142 40.3172 75.5243 41.7572 76.0943 41.5972C77.2543 41.2772 76.1342 39.1472 75.6142 38.8572H75.6242Z" fill="#231B25"/>
<path d="M42.1442 42.6467C44.5042 42.3467 46.0942 40.9967 48.6242 40.6767C49.7642 40.5267 52.8342 40.9367 53.1342 40.0167C53.6742 38.3867 52.6942 38.2867 51.2842 38.1667C48.1642 37.8967 41.3042 38.0067 42.1442 42.6467Z" fill="#231B25"/>
</svg>
