<svg width="104" height="196" viewBox="0 0 104 196" fill="none" xmlns="http://www.w3.org/2000/svg">
<path d="M29.5529 179.18L25.6029 188.67L19.1629 185.25L23.0929 175.94L29.5529 179.18Z" fill="#FCC9A7"/>
<path d="M27.7729 188.11C27.7729 187.54 27.2829 187.17 26.7929 187.38C25.8329 187.79 24.2529 188.14 22.3629 187.29C20.4029 186.41 20.0429 184.96 20.0329 184.01C20.0329 183.51 19.6729 183.13 19.2229 183.2L4.85289 185.27C3.98289 185.4 3.1629 185.9 2.5829 186.68C2.0329 187.41 2.2929 188.47 3.0629 188.71L24.5129 195.23C25.3529 195.49 26.2729 194.88 26.5229 193.9L27.7329 189.1C27.7529 189.02 27.7629 188.94 27.7629 188.86L27.7729 188.11Z" fill="#1F252A"/>
<path d="M87.7829 156.16L96.7829 161.12L92.6929 167.15L83.8629 162.23L87.7829 156.16Z" fill="#FCC9A7"/>
<path d="M96.4629 158.9C95.8929 158.84 95.4729 159.29 95.6229 159.79C95.9229 160.78 96.1029 162.4 95.0529 164.18C93.9629 166.03 92.4829 166.24 91.5329 166.13C91.0329 166.08 90.6229 166.39 90.6329 166.84L91.1229 181.35C91.1529 182.23 91.5629 183.1 92.2729 183.76C92.9329 184.38 94.0229 184.25 94.3429 183.5L103.153 162.89C103.503 162.08 102.993 161.1 102.053 160.75L97.4129 159.02C97.3329 158.99 97.2529 158.97 97.1729 158.96L96.4629 158.9Z" fill="#1F252A"/>
<path d="M34.3129 87.5L37.7829 109.76L55.3229 141.29L85.5229 167.55L92.5629 155.1L68.6129 132.76L54.5629 87.88L34.3129 87.5Z" fill="#092330"/>
<path d="M62.8129 86.23C62.8129 86.23 66.3029 92.83 60.8829 103.37L44.0529 135.49L31.2229 184.17L18.4829 179.72L27.6329 130.49L43.8529 92.07L34.3129 87.5L62.8129 86.23Z" fill="#0C2C40"/>
<path d="M26.1229 23.6C28.3429 26.03 32.1129 26.2 34.5329 23.99C36.9629 21.77 37.1329 18 34.9229 15.57C32.7029 13.14 28.9429 12.97 26.5029 15.18C24.0729 17.41 23.9029 21.17 26.1229 23.6Z" fill="#FCC9A7"/>
<path d="M21.3629 26.66L26.5429 20.42L30.6729 24.57L25.8129 30.52L21.3629 26.66Z" fill="#FCC9A7"/>
<path d="M33.0529 12.05L28.3029 18.41C27.6829 19.24 27.7029 20.39 28.3529 21.19L32.2029 25.94C33.1029 27.05 34.7829 27.06 35.6929 25.97L41.0629 19.58C41.8029 18.7 41.7629 17.4 40.9729 16.56L36.5029 11.84C35.5429 10.83 33.8929 10.92 33.0529 12.05Z" fill="#1C2226"/>
<path d="M37.9629 34.47L19.1329 43.92L29.4729 27.97L22.6529 22.07L1.09289 51.61C-0.867107 54.15 -0.107106 57.85 2.70289 59.4C4.13289 60.19 5.85289 60.27 7.35289 59.61L35.2729 48.52L37.9629 34.47Z" fill="#F7ECE7"/>
<path d="M31.2229 43.54C31.2229 43.54 34.5529 69.65 34.3129 87.5C34.3129 87.5 44.3029 91.9 65.4829 85.47L60.2429 36.92L50.0429 33.49L37.9629 34.47L31.2229 43.54Z" fill="#F7ECE7"/>
<path d="M41.3829 31.93L41.6429 33.63C41.6629 33.75 41.6229 33.88 41.5329 33.97L38.9229 36.74C38.6829 36.99 38.2629 36.85 38.2229 36.51L37.9529 34.47C37.9329 34.34 37.9829 34.21 38.0829 34.12L40.6929 31.69C40.9429 31.47 41.3429 31.6 41.3829 31.93Z" fill="#FCF3F0"/>
<path d="M44.8729 36.32C47.9729 36.07 50.2829 33.34 50.0329 30.24L49.2829 21.16L38.0429 22.08L40.3629 34.63C40.7329 36.23 41.7629 36.57 44.8729 36.32Z" fill="#FCC9A7"/>
<path d="M49.6629 24.34C49.6629 24.34 47.2429 31.22 42.3329 30.37C37.8229 29.59 38.0429 22.08 38.0429 22.08L49.6629 24.34Z" fill="#F4BE9A"/>
<path d="M43.1129 27.87L44.1129 27.76C49.0929 27.22 52.7029 22.74 52.1629 17.76L51.5529 12.08C51.0129 7.10001 46.5329 3.48999 41.5529 4.02999L40.5529 4.13999C35.5729 4.67999 31.9629 9.16001 32.5029 14.14L33.1129 19.82C33.6529 24.81 38.1329 28.41 43.1129 27.87Z" fill="#FCC9A7"/>
<path d="M43.1129 27.87L44.1129 27.76C49.0929 27.22 52.7029 22.74 52.1629 17.76L51.5529 12.08C51.0129 7.10001 46.5329 3.48999 41.5529 4.02999L40.5529 4.13999C35.5729 4.67999 31.9629 9.16001 32.5029 14.14L33.1129 19.82C33.6529 24.81 38.1329 28.41 43.1129 27.87Z" fill="#FCC9A7"/>
<path d="M51.9629 15.96C51.2829 15.89 48.4329 18.05 47.6929 17.11C46.6729 15.81 45.7429 13.44 47.0629 10.98C47.2829 10.57 47.3429 10.09 47.2029 9.64002C46.9429 8.83002 46.2429 7.89001 44.3129 8.57001C41.2229 9.66001 34.2729 13.16 32.2629 8.15C29.7229 1.84 49.7029 3.60001 49.7029 3.60001L54.2529 10.18L52.3029 19.56L51.9629 15.96Z" fill="#1C2226"/>
<path d="M49.1829 16.91C49.3729 18.69 50.9729 19.98 52.7529 19.78C54.5329 19.59 55.8229 17.99 55.6229 16.21C55.4329 14.43 53.8329 13.14 52.0529 13.34C50.2729 13.54 48.9929 15.13 49.1829 16.91Z" fill="#FCC9A7"/>
<path d="M43.8529 38.25L46.4029 77.56L41.6529 82.02L38.8329 77.7L41.6529 37.47L43.8529 38.25Z" fill="#0C2C40"/>
<path d="M40.0529 35.54L40.4429 35L40.3429 34.53H45.9629L46.4029 36L42.6629 39.3L40.0529 35.54Z" fill="#0C2C40"/>
<path d="M49.6729 29.71L44.3529 33.33C43.7529 33.74 43.6729 34.6 44.1929 35.11L48.3729 39.22C48.8429 39.68 49.6129 39.66 50.0529 39.16L54.2629 34.43C54.6729 33.97 54.6529 33.26 54.2129 32.83L51.1329 29.82C50.7429 29.45 50.1329 29.4 49.6729 29.71Z" fill="#FCF3F0"/>
<path d="M27.1329 31.58L19.1729 26.78" stroke="#EADDD8" stroke-width="0.7599" stroke-miterlimit="10" stroke-linecap="round" stroke-linejoin="round"/>
<path d="M41.6329 69.28L38.8429 99.11C38.7329 100.23 39.5029 101.25 40.6129 101.47L74.8229 108.01C76.0829 108.25 77.2729 107.37 77.4129 106.1L80.5429 77.75C80.6629 76.65 79.9429 75.63 78.8629 75.37L44.3129 67.36C43.0229 67.05 41.7629 67.96 41.6329 69.28Z" fill="#AFAFAF"/>
<path d="M44.0629 69.81L41.2729 99.64C41.1729 100.76 41.9329 101.78 43.0429 102L77.2529 108.54C78.5129 108.78 79.7029 107.9 79.8429 106.63L82.9729 78.28C83.0929 77.18 82.3729 76.16 81.2929 75.9L46.7429 67.88C45.4429 67.58 44.1829 68.49 44.0629 69.81Z" fill="#D1D1D1"/>
<path d="M56.9729 97.26C54.2229 94.74 49.9429 94.93 47.4229 97.68C44.9029 100.43 45.0929 104.71 47.8429 107.23C50.5929 109.75 54.8729 109.56 57.3929 106.81C59.9129 104.05 59.7229 99.78 56.9729 97.26Z" fill="#FCC9A7"/>
<path d="M62.0429 93.32L56.8229 100.9L51.7429 96.62L56.6229 89.41L62.0429 93.32Z" fill="#FCC9A7"/>
<path d="M60.2529 36.92C60.2529 36.92 67.9029 37.69 70.1229 50.2L78.9229 68.48C79.1629 69.28 79.3229 70.1 79.4029 70.92L60.8929 97.51L52.5429 92.56L67.5129 68.56L58.4229 54.17L60.2529 36.92Z" fill="#F7ECE7"/>
<path d="M55.2629 88.97L63.6929 93.49" stroke="#EADDD8" stroke-width="0.7599" stroke-miterlimit="10" stroke-linecap="round" stroke-linejoin="round"/>
<path d="M62.8729 61.22L57.4829 51.84" stroke="#EADDD8" stroke-width="0.7599" stroke-miterlimit="10" stroke-linecap="round" stroke-linejoin="round"/>
<path d="M34.3229 10.38C30.5029 8.65001 31.3029 4.19 32.1729 2.78C32.1729 2.78 32.3429 5.29001 34.0529 4.71001C34.0529 4.71001 33.8229 0.97 38.8329 0C38.8329 0 36.9829 3.36 43.5729 2.72C51.6629 1.93 52.1329 7.05 51.6829 13.41L49.2029 11.63L47.2829 7.20001H40.7329L34.3229 10.38Z" fill="#1C2226"/>
</svg>
