<svg width="229" height="116" viewBox="0 0 229 116" fill="none" xmlns="http://www.w3.org/2000/svg">
<g clip-path="url(#clip0_1_4495)">
<path d="M26.7999 1.70001H226.9V89.2L201.9 114.3H1.69995L1.79995 26.7L26.7999 1.70001Z" fill="#001A72"/>
<path fill-rule="evenodd" clip-rule="evenodd" d="M26.1786 0.200012H228.4V89.8196L202.523 115.8H0.198242L0.300664 26.078L26.1786 0.200012ZM3.29925 27.322L25.3 5.32124V88.5786L3.2041 110.675L3.29925 27.322ZM5.32127 112.8H201.277L223.289 90.7H27.4213L5.32127 112.8ZM225.4 3.20001V87.7H28.3V3.20001H225.4Z" fill="white"/>
<path d="M63.7001 36.6C63.7001 39.6 61.7001 42.2 56.9001 42.2C54.8001 42.2 53.1001 41.7 51.6001 41.1V36.9C53.2001 37.7 55.1001 38.2 56.8001 38.2C58.4001 38.2 59.2001 37.7 59.2001 36.8C59.2001 34 51.6001 34.9 51.6001 29.2C51.6001 25.7 54.4001 23.6 58.3001 23.6C59.9001 23.6 61.4001 24 63.0001 24.9V29.2C60.9001 27.9 59.4001 27.5 58.2001 27.5C56.8001 27.5 56.0001 28 56.0001 28.9C55.9001 31.6 63.7001 30.6 63.7001 36.6Z" fill="white"/>
<path d="M67.5 32.9C67.5 27.8 71.7 23.6 76.8 23.6C81.9 23.6 86.1 27.8 86.1 32.9C86.1 38 81.9 42.2 76.8 42.2C71.7 42.2 67.5 38 67.5 32.9ZM81.5 32.9C81.5 30.1 79.4 28 76.8 28C74.2 28 72 30.1 72 32.9C72 35.7 74.1 37.8 76.7 37.8C79.3 37.8 81.5 35.7 81.5 32.9Z" fill="white"/>
<path d="M96.5 22.5V24H102.4L100.4 28.2H96.6V41.8H92.3V28.2H89.3V24H92.3V22.3C92.3 16.9 95.1 14.2 99.5 14.2C100.6 14.2 101.6 14.4 102.5 14.6V18.8C101.7 18.5 100.8 18.4 99.9 18.4C97.4 18.3 96.5 19.9 96.5 22.5Z" fill="white"/>
<path d="M111.3 28.2V35.3C111.3 37.2 112.4 38 114.1 38C115.2 38 116.3 37.7 117.2 37.1V41.4C116 41.9 114.9 42.2 113.3 42.2C109.4 42.2 107 40.1 107 35.8V28.2H104.4V24H107V19.5L111.3 18.4V24H117.2V28.2H111.3Z" fill="white"/>
<path d="M148.4 24L142.7 41.8H138.4L134.5 29.6L130.5 41.8H126L120.3 24H125.2L128.4 35.9L132.2 24H136.5L140.3 35.9L143.5 24H148.4Z" fill="white"/>
<path d="M150.6 32.9C150.6 27.8 154.3 23.6 159.4 23.6C161.4 23.6 163 24.2 164.2 25.2V24H168.5V41.8H164.3V40.4C163.1 41.5 161.4 42.2 159.3 42.2C154.4 42.2 150.6 38 150.6 32.9ZM164.6 32.9C164.6 30.1 162.5 28 159.9 28C157.3 28 155.2 30.1 155.2 32.9C155.2 35.7 157.3 37.8 159.9 37.8C162.5 37.8 164.6 35.7 164.6 32.9Z" fill="white"/>
<path d="M174.6 24H178.8V26.5C180.1 24.1 182.5 23.7 184.6 23.7V28.8C181.6 28 178.9 29.7 178.9 33.5V41.8H174.6V24Z" fill="white"/>
<path d="M198.1 38C199.8 38 201.8 37.7 203.8 36.9L201.6 41.4C200.6 41.8 199.1 42.2 197.3 42.2C191 42.2 187.2 38.3 187.2 32.9C187.2 27.8 191 23.6 196.5 23.6C200.2 23.6 203.2 25.5 204.4 27.9V34.3H191.8C192.5 36.5 194.5 38 198.1 38ZM191.8 31H201.1C200.5 28.9 198.7 27.6 196.4 27.6C194.2 27.6 192.5 29 191.8 31Z" fill="white"/>
<path d="M76.4999 56.8V68.5H72.1999V57.5C72.1999 55.6 70.7999 54.5 69.3999 54.5C67.8999 54.5 66.5999 55.6 66.5999 57.5V68.5H62.2999V57.5C62.2999 55.6 60.8999 54.5 59.4999 54.5C57.9999 54.5 56.6999 55.6 56.6999 57.5V68.5H52.3999V50.8H56.5999V52.1C57.8999 50.8 59.1999 50.4 60.8999 50.4C62.7999 50.4 64.3999 51.2 65.4999 52.7C66.9999 51.1 68.7999 50.4 70.8999 50.4C73.8999 50.4 76.4999 53.1 76.4999 56.8Z" fill="white"/>
<path d="M81 59.7C81 54.6 84.7 50.4 89.8 50.4C91.8 50.4 93.4 51 94.6 52V50.8H99V68.6H94.8V67.2C93.6 68.3 91.9 69 89.8 69C84.7 68.9 81 64.8 81 59.7ZM95 59.7C95 56.9 92.9 54.8 90.3 54.8C87.7 54.8 85.6 56.9 85.6 59.7C85.6 62.5 87.7 64.6 90.3 64.6C92.9 64.6 95 62.5 95 59.7Z" fill="white"/>
<path d="M104.8 50.8H109V52.1C110.3 50.8 112 50.4 113.7 50.4C117.4 50.4 120.4 53.2 120.4 57V68.5H116.1V58C116.1 56.1 114.6 54.6 112.7 54.6C110.8 54.6 109.3 56.1 109.3 58V68.6H105V50.8H104.8Z" fill="white"/>
<path d="M137.6 63.4C137.6 66.4 135.6 69 130.8 69C128.7 69 127 68.5 125.5 67.9V63.7C127.1 64.5 129 65 130.7 65C132.3 65 133.1 64.5 133.1 63.6C133.1 60.8 125.5 61.7 125.5 56C125.5 52.5 128.3 50.4 132.2 50.4C133.8 50.4 135.3 50.8 136.9 51.7V56C134.8 54.7 133.3 54.3 132.1 54.3C130.7 54.3 129.9 54.8 129.9 55.7C129.9 58.3 137.6 57.3 137.6 63.4Z" fill="white"/>
<path d="M147 50.8V68.6H142.7V50.8H147Z" fill="white"/>
<path d="M151.5 59.7C151.5 54.6 155.7 50.4 160.8 50.4C165.9 50.4 170.1 54.6 170.1 59.7C170.1 64.8 165.9 69 160.8 69C155.7 69 151.5 64.8 151.5 59.7ZM165.5 59.7C165.5 56.9 163.4 54.8 160.8 54.8C158.2 54.8 156.1 56.9 156.1 59.7C156.1 62.5 158.2 64.6 160.8 64.6C163.4 64.6 165.5 62.5 165.5 59.7Z" fill="white"/>
<path d="M174.5 50.8H178.7V52.1C180 50.8 181.7 50.4 183.4 50.4C187.1 50.4 190.1 53.2 190.1 57V68.5H185.8V58C185.8 56.1 184.3 54.6 182.4 54.6C180.5 54.6 179 56.1 179 58V68.6H174.7V50.8H174.5Z" fill="white"/>
<path d="M198.6 63.7V64.4H197V68.6H196.2V64.4H194.7V63.7H198.6Z" fill="white"/>
<path d="M200.3 63.7L201.9 67.6L203.4 63.7H204.4V68.6H203.6V65L202.1 68.6H201.4L199.9 65V68.6H199.1V63.7C199.1 63.7 200.3 63.7 200.3 63.7Z" fill="white"/>
</g>
<defs>
<clipPath id="clip0_1_4495">
<rect width="229" height="116" fill="white"/>
</clipPath>
</defs>
</svg>
