<svg xmlns="http://www.w3.org/2000/svg" width="24" height="24" fill="none" viewBox="0 0 24 24"><g><path opacity="0.15" d="M19 12C19 15.866 15.866 19 12 19C8.13401 19 5 15.866 5 12C5 8.13401 8.13401 5 12 5C15.866 5 19 8.13401 19 12Z" fill="#001A72"></path><path d="M12 3V21" stroke="#001A72" stroke-width="1.5" stroke-linecap="round" stroke-linejoin="round"></path><path d="M3 12L21 12" stroke="#001A72" stroke-width="1.5" stroke-linecap="round" stroke-linejoin="round"></path><path d="M19 12C19 15.866 15.866 19 12 19C8.13401 19 5 15.866 5 12C5 8.13401 8.13401 5 12 5C15.866 5 19 8.13401 19 12Z" stroke="#001A72" stroke-width="1.5" stroke-linecap="round" stroke-linejoin="round"></path></g></svg>