<svg xmlns="http://www.w3.org/2000/svg" width="24" height="24" fill="none" viewBox="0 0 24 24"><g><path opacity="0.15" d="M4 6C4 5.44771 4.44772 5 5 5H19C19.5523 5 20 5.44772 20 6V15C20 15.5523 19.5523 16 19 16H5C4.44772 16 4 15.5523 4 15V6Z" fill="#001A72"></path><path d="M16 10.5L8 10.5" stroke="#001A72" stroke-width="1.5" stroke-linecap="round" stroke-linejoin="round"></path><path d="M13 13.5L16 10.5L13 7.5" stroke="#001A72" stroke-width="1.5" stroke-linecap="round" stroke-linejoin="round"></path><path d="M16 20H12H8" stroke="#001A72" stroke-width="1.5" stroke-linecap="round" stroke-linejoin="round"></path><path d="M12 20V16" stroke="#001A72" stroke-width="1.5" stroke-linecap="round" stroke-linejoin="round"></path><path d="M19 5H5C4.44772 5 4 5.44771 4 6V15C4 15.5523 4.44772 16 5 16H12H19C19.5523 16 20 15.5523 20 15V6C20 5.44772 19.5523 5 19 5Z" stroke="#001A72" stroke-width="1.5" stroke-linecap="round" stroke-linejoin="round"></path></g></svg>