<svg xmlns="http://www.w3.org/2000/svg" width="24" height="24" fill="none" viewBox="0 0 24 24"><g><path opacity="0.15" d="M6 5C6 3.89543 6.89543 3 8 3H16C17.1046 3 18 3.89543 18 5V19C18 20.1046 17.1046 21 16 21H8C6.89543 21 6 20.1046 6 19V5Z" fill="#001A72"></path><path d="M16 3H8C6.89543 3 6 3.89543 6 5V19C6 20.1046 6.89543 21 8 21H16C17.1046 21 18 20.1046 18 19V5C18 3.89543 17.1046 3 16 3Z" stroke="#001A72" stroke-width="1.5" stroke-linecap="round" stroke-linejoin="round"></path><path d="M12 18.01V18" stroke="#001A72" stroke-width="1.5" stroke-linecap="round" stroke-linejoin="round"></path></g></svg>