<svg xmlns="http://www.w3.org/2000/svg" width="24" height="24" fill="none" viewBox="0 0 24 24"><g><path opacity="0.15" d="M13 3L7 8H5C3.89543 8 3 8.89543 3 10V14C3 15.1046 3.89543 16 5 16H7L13 21V3Z" fill="#001A72"></path><path d="M7 8L13 3V21L7 16H5C3.89543 16 3 15.1046 3 14V10C3 8.89543 3.89543 8 5 8H7Z" stroke="#001A72" stroke-width="1.5" stroke-linecap="round" stroke-linejoin="round"></path><path d="M16 8.99998C16.5 9.49998 17 10.5 17 12C17 13.5 16.5 14.5 16 15" stroke="#001A72" stroke-width="1.5" stroke-linecap="round" stroke-linejoin="round"></path></g></svg>